/* XPM */
static char *_ae1c486fd224ad39bcb89c602e4ca3f7a5THl0J5bm7bgsM[] = {
/* columns rows colors chars-per-pixel */
"64 64 162 2 ",
"   c #4C4C4C",
".  c #50514F",
"X  c #555555",
"o  c #575857",
"O  c #595758",
"+  c #575859",
"@  c #5C5B5C",
"#  c #605F5F",
"$  c #61605E",
"%  c #5F5F60",
"&  c #605F60",
"*  c #646364",
"=  c #696667",
"-  c #6B6867",
";  c #676668",
":  c #696768",
">  c #676969",
",  c #6C6C6C",
"<  c #716E6E",
"1  c #6F706D",
"2  c #71716E",
"3  c #6F6F70",
"4  c #726E71",
"5  c #6F7071",
"6  c #757474",
"7  c #797676",
"8  c #767876",
"9  c #797977",
"0  c #777778",
"q  c #7A7679",
"w  c #777979",
"e  c #7C7C7C",
"r  c #817E7E",
"t  c #7E807F",
"y  c #81817F",
"u  c #7E7E80",
"i  c #817E81",
"p  c #7F8181",
"a  c #838486",
"s  c #838586",
"d  c #838584",
"f  c #868585",
"g  c #858785",
"h  c #868684",
"j  c #868785",
"k  c #878685",
"l  c #858586",
"z  c #858487",
"x  c #868587",
"c  c #858787",
"v  c #868787",
"b  c #878787",
"n  c #838384",
"m  c #888687",
"M  c #898686",
"N  c #868987",
"B  c #868887",
"V  c #898987",
"C  c #858688",
"Z  c #858788",
"A  c #868788",
"S  c #878788",
"D  c #878689",
"F  c #868789",
"G  c #878789",
"H  c #86878A",
"J  c #868688",
"K  c #898789",
"L  c #8A8788",
"P  c #88878B",
"I  c #89878A",
"U  c #898689",
"Y  c #858988",
"T  c #878889",
"R  c #878989",
"E  c #868989",
"W  c #878A89",
"Q  c #87898A",
"!  c #878A8A",
"~  c #868989",
"^  c #888889",
"/  c #898989",
"(  c #8B8989",
")  c #888A89",
"_  c #8A8A89",
"`  c #89898A",
"'  c #88888A",
"]  c #8A898A",
"[  c #8A898B",
"{  c #888A8A",
"}  c #898A8A",
"|  c #898B8A",
" . c #888A8B",
".. c #898A8B",
"X. c #898B8B",
"o. c #8A8B8B",
"O. c #898C8B",
"+. c #8A8C8A",
"@. c #89898C",
"#. c #898A8C",
"$. c #898B8C",
"%. c #8B8A8C",
"&. c #8A8B8C",
"*. c #8B8A8D",
"=. c #8A8B8D",
"-. c #8B8B8D",
";. c #8B8B8E",
":. c #8C8B8E",
">. c #8B8D8C",
",. c #8A8C8D",
"<. c #8A8C8E",
"1. c #8B8D8E",
"2. c #8D8C8C",
"3. c #8C8D8C",
"4. c #8C8C8D",
"5. c #8C8D8D",
"6. c #8D8F8C",
"7. c #8D8E8D",
"8. c #8C8C8E",
"9. c #8D8C8E",
"0. c #8C8D8E",
"q. c #8D8D8E",
"w. c #8C8D8F",
"e. c #8E8E8F",
"r. c #8E8F8F",
"t. c #8A8B8C",
"y. c #908D8D",
"u. c #8F918F",
"i. c #8D8E90",
"p. c #8E8E90",
"a. c #8F8E91",
"s. c #8E8F91",
"d. c #8E8E91",
"f. c #928F91",
"g. c #908F92",
"h. c #8F9192",
"j. c #909090",
"k. c #909190",
"l. c #909093",
"z. c #919293",
"x. c #939392",
"c. c #939493",
"v. c #929394",
"b. c #949395",
"n. c #949397",
"m. c #969494",
"M. c #929294",
"N. c #969799",
"B. c #959599",
"V. c #98969B",
"C. c #9C9C9C",
"Z. c #9FA1A0",
"A. c #A4A4A3",
"S. c #A8A6A6",
"D. c #A9A8A5",
"F. c #ADACAB",
"G. c #AFB1B0",
"H. c #B3B4B4",
"J. c #B7B8B7",
"K. c #B7B7B8",
"L. c #B7B8B8",
"P. c #BABBBB",
/* pixels */
"E X.X.j.>.$.E X.n E 8.O.j $.$.$.u c.d f.j.%.B.i.$.j E p $.>.i.i.d , 8.j 8.n.X.d E n E X.X.j j.$.$.F n N X.n.8.n.j.8.F E p F >.>.",
"n p e y e e e j d E 8.F j E $.E n E n r e e F j X.F n p j p n $.F , p e e t e e e t d F F d F X.$.F e p r r e n F E j E t j n n ",
"p e 0 q 6 6 7 6 e 0 9 7 0 n e e i n 6 2 6 6 0 0 q e 0 0 w 0 0 q n , p q 0 0 6 6 6 e 6 w e 6 i e e n 0 0 2 2 6 6 0 0 u e 6 e 0 0 ",
"F u F P P e i n n r p n n 8.n i n n q e y j j f p 9 n d X.j X.P F 5 n j F j r r e e r n n r j.j u j 0 0 e e f m f n e e d F j X.",
"n = d n.8.j j f e i n f ( 8.u * u 6 , n j X.%.X.j e n 8.j 8.>.w , , : i j.i.n n n e y f n P 8.p 4 0 6 * q X.X.8.$.X.y t X.j O.>.",
"X.i.p j e e e 6 , < e 6 7 6 e $.n >.n 6 e e e 0 6 6 6 q 6 q e e N , 8.n F e 0 e 0 , 2 0 7 6 7 7 j $.e F 0 q e e 0 0 < 6 w 0 0 q ",
"r n y X.q j u e 0 0 e e n e e e n 8.n q 8.n e n e t e X.p w w e j : r t j u q n e q w q e e i e e n i f w E n e n e q e n j e w ",
"n n j 8.d X.X.X.n f m V j f j h.n j.E d X.j V X.N E $.i.$.d n d ( - n n X.$.j $.X.j f f V m m n X.8.n $.n X.j m X.X.F $.>.i.E p ",
"t 0 e f u e F j >.n e e 0 0 e j n n e e e q q e e e e e e e w q F - q q n f e u P n 8.q e 7 0 0 i f q w e e q q q e e e e n u q ",
"e 0 n u n j p e X.n j q 0 0 q j n F e e e w e t n e e e e q e e F , 7 e u n j e n n 3.j e 0 q q e X.e q y e 9 w n t p p e e e e ",
"y n f t j j j x.d E 8.%.n n j $.n i.E >.d n n d d d n.8.j y y X.j.6 t n p n X.f 3.8.F X.f.f n n X.F n F 8.d n d n N p j.i.P n y ",
"p 6 q w 9 e e r e e e u 9 0 7 6 9 p q e q e p p q n f f e w w 0 j 0 q q w w e e r e u u r e 0 q , 7 6 0 q e q e d e p j f r e w ",
"F < 6 e u e e e i u e e q 9 0 - q F 6 e 0 0 e t e u i e 9 0 9 e 6 6 0 6 w u q i e e n e e e w 7 6 6 e < q q 0 q t e i i e e 0 0 ",
"0 u e p u u n e q u u n n u q e ; e e e w q e e e u p w w e q p q % u e e n e n e q e u u n n e q 6 , e u w w e e e e u q q e q ",
"$.e C.B.j.h.m X.V y.X.n.n.3.X.q n E q 8.>.X.E ( >.j.X.X.j.n.h.p t , i h.V.n.j.>.X.N 8.3.h.B.3.X.i n e q p h.O.E X.8.i.u.X.i.j.i.",
"X.M f 0 q q e 2 , 6 6 e q 6 w e n E e 0 q 6 6 6 0 6 7 7 e 6 e t t - P P u i e e 6 2 6 6 q e 6 6 p n e e 0 q 6 0 1 0 6 6 7 0 7 q ",
"j f F % @ * i n q q q n e q e q e p n n d e n e n e n n e j j e n , n F f P X.j n e 9 9 e t q q e e 6 t e d e n e n q q e e e j ",
"X.$.>.* , , n n P X.d N ( m n E e E n N n n d f >.h.d >.y.X.X.j N 3 $.$.i.8.8.X.n n %.d E X.X.f j j w n E n f n d j >.>.E X.m $.",
"n q i @ $ * 0 q 0 w q u i e q e u n q e 6 q e e n >.n F r e q w n , e e i e u q 0 q 0 0 u p e q q u e 0 e 0 0 e u e j d e j e e ",
"t q e O @ @ 6 7 e 0 0 e i q 7 e e F w e e e q i j j e j q q r 9 e - 9 e e i i w 0 q 7 0 q i e 7 q e e q q e e w i X.$.F e i 7 e ",
"n f n * * - e n e y n d d n n X.e n.d j $.F 8.%.F n $.i.X.n n n N - f n n j d n e r r n n d n n j d n j X.X.X.j i.X.X.8.$.8.n n ",
"n 0 e + - o w e 9 e u e e q e q u P i f P n j j e 9 n j r n e 7 e , 0 e e n q w q 9 e e n e q q e e q e f j n i X.q 9 n n n p n ",
"n , q O # 0 0 q 6 e n e q q e - p u 6 u X.j n e q 0 q f n e q 6 < , , 7 n e 0 w w 6 q e n q q 7 6 q 7 < 0 F j n n e e q i j e q ",
"%.8.E o , O e e e t F j E d e d n m n E 8.P f e q q e e y e e n P 4 8.8.j i 0 i e q e j j n >.e n n q n e F n m n q 0 e e n e e ",
"%.F P & & * 7 e 7 j j d n F u e n V j n d e d w r e e n e e e r n 6 F %.n e e 0 e 7 r F j n X.n e n q j F n f n t e e e e e e e ",
"F e q O * O 4 6 4 7 0 q 7 j q w u j e n e u e 0 f q 0 6 0 6 6 7 r , e e 0 e 0 6 6 4 0 7 q 0 n e 0 u n q e u u e q n r 7 7 6 0 6 ",
"j n f O * e e e e n e e n X.n j e j.t N n e n F f e e n n e n r f - F n n X.N n e e n n q e F F e n f n f N n e f P e e n n n r ",
"p j X.@ 0 * n $.j E j n d 8.P h.j V.n.E F p d 8.X.E F >.X.$.f.F j - j F >.8.j.$.F P F X.j p $.$.$.j F n.X.E p p 8.$.d E $.$.$.f.",
"n e e @ * * e i e n n 9 6 e u n q 8.F u e q 0 q f E e %.e e e e n - e q e f n e n e u n e 6 w i e e w f X.u 9 0 w i $.u P f e i ",
"t 6 e X O @ n j u j j 9 e n n 0 e j e n e e e e f P e F n e e 7 e - 0 e e n j n j i n j e w w n q e 0 0 f e e e q n P n j n p e ",
"d 6 j < * > d >.d E $.n n E >., e r 2 p j j j n F $.j.X.E n j i 7 , 6 f ( ( n d X.j $.X.j t n X.9 7 q < q n j d f j P i.X.E d n ",
"%.$.n # O * e E t F j e j X.X.f 9 m y e e n n n j F F X.e u f n 8.6 $.F n j n e F n F f E d 8.X.V y q n e e n d r j f X.j f e n ",
"P i u 6 * 6 e e w e u e e q e e w y 7 7 q e e q e q n q e u u u n 6 u i e n j e u w e e n p e e 7 q 6 7 0 q q e q e e u t e e i ",
"E X.n O * O u n q p j u n n f u e 8.e j j P >.n n u n e d n d j n , $.n F f.d n n e e j j n 8.j u p e t y j X.X.F n u p e p d n ",
"d e e $ , - q e e n P j j F F F n N n m n e 8.P j p p u j d F $.d , p e y n n e e e d X.F X.F F j j e t i P e j $.j n n e j d j ",
"p i q % X - q e e e n n u X.F n n d e 9 7 0 u e d $.e e e e e n j , p e e e 9 q q N e j j n j j j F w e q 9 q e n n j j q u e e ",
"X.$.j i , , e q e e p u e F n F n X.t 9 e r e e e q n n j n f $.>., i.j f n e q e e n n n q j n j F q n w q r e e e q e n F n n ",
"n , e 6 6 , 6 e 0 r e i N >.u , u 9 < e y f P F n 9 e N n E E e 0 3 , e P F n e r r r n e n j.p 6 e 6 - q n n P j j q e n n N X.",
"F e e 6 : * , 0 6 9 y e e e e q n p e q n n n e e q q u e n n e q , e j 8.z n n e 9 9 e e e e q e n w 0 e u n n e e 9 q e e y n ",
"y d y F 0 , i e 0 0 e e r e e u n %.i e X.n n e e e q j e e e e n - t p X.n e P n e 0 q e e i e e n i n q j j n n e q q p n e e ",
"y n e , X * n j e n n X.j f n X.n f.P n X.j j X.d F j h.E t t n X.= n n F j f i.n y r i m m P n j X.i %.t N j n X.N d j $.>.n e ",
"n e q - * * F $.j f n y r r r 8.n N e n j n n n d n j F F n e p X.- r r j F e j X.j m i n r r r j X.q e e j n n n j n j n P j t ",
"e q e 0 @ O n u 8.y r 7 7 7 0 n n j e q e 0 q e q e q q e e q q F - 0 q i n n u n n u.r q 6 7 7 e F e q t e 0 0 e q e e w e e q ",
"f f E p X , n m p j $.f i r n 8.n X.e n n e t j E p j d n e e e >.- r n p n F n j j j X.P i i i X.8.u e j n e e n E p F d j y e ",
"t e n 6 & O y X.n n j j e e e 7 q n e j t n d d e j n.X.e e e q j , 0 e e e n n m j n j f i e e 6 e q e j p e n n p n f.$.n e e ",
"n , 1 , - * q e 0 e q q 6 6 6 * 0 e , e 0 6 e e w e u r 0 w 6 6 6 , , 2 0 e 0 q e 7 e q q 6 6 6 : < 0 = 6 q 6 w p w e u e e w 6 ",
"e 0 2 O X * e e q u e e p q 0 6 > e 7 w 6 0 q e e e u w 0 6 0 w 0 % q 6 0 u e u q 9 n e e n e 0 6 , 4 0 w 6 6 w e e e u w 9 6 0 ",
"u E X.4 + * j N n V X.i.h.8.E $.6 F d E g N g P E X.E E >.>.>.p d * $.$.n.i.i.>.E y X.X.$.h.>.>.X.u 0 E d Y E N m X.F X.F >.i.$.",
"j 6 $.* 0 : 7 7 0 e q n n 7 q , n n < e e q w q e e q e i e u w 6 , 0 X.j f n e 0 0 e q u n 7 0 0 e q , 0 u q q w e e e q e e n ",
"j f i i n n n q 7 6 0 n q 0 0 q e d n q p q q 0 w 6 7 0 q q e w n , j i i f n j e q 6 6 e e 6 0 q e w d 6 p w e 6 9 6 6 q 0 e n ",
"E $.8.p O - n n n d n j j n n d q N p E f n j n O.N j d f j E n j 5 X.%.%.8.i.X.n n F t f f n t j n w t N j n d n N j E j ( j 8.",
"j e n e * 6 e q e e p n j r q n e n e u 9 e e e p X.n F r e t e n , n p n n n i 9 e e e n n r e e n q q n q e e n e j E p X.n n ",
"e 0 e 6 O O 1 0 6 0 6 e e 0 0 0 e p 6 0 0 w q e u >.i n r 7 q 6 e , 0 7 e e e 6 6 0 6 6 0 e q 6 0 e e 6 0 0 0 w e e F j e f 7 e ",
"p n q O % @ e e e e e n F n y X.q f.p n X.j j P %.n F 8.j n n r j - n y p f n e e r e e p d n n n d i p n j X.n P P F E j f.n t ",
"n y f y X @ e n e n n n n y n n e f.P X.8.X.$.X.X.n 8.$.f j n f m - n n j j n y y e n n n n t n n n u F %.%.X.X.X.j e P >.%.d j ",
"y , 6 0   . 2 0 6 7 e e 7 6 q , e p 6 e e n e n 0 q q i n e 0 4 4 , < 6 q e 0 6 6 2 7 q e 7 6 6 0 q 7 6 0 e e w n w 0 0 i n q q ",
"X.q e O @ * e e e e F i t n e 6 i n 7 d j.X.r e e q e r n e e e q 4 e j 3.r 0 e e e e n n r n e w e q 7 e i.y f n t e e e n e e ",
"i.g.%.q O X e r e F 8.X.8.8.d E n X.8.j X.n O.p e e n f n i i f m 4 i.B.j n i i r 0 f 8.X.E n.j F F e V j E j O.n n q r n f n i ",
"P e e 0 * # 4 6 4 e q e 0 e 0 0 n X.y q e e e 6 n e 0 7 6 6 6 7 e 4 u e q q 6 4 7 4 0 q e 0 q q 0 u q e 0 e i q q e i 0 7 6 6 6 ",
"j e 0   O 2 4 6 7 e 0 0 q P e q e $.e n u w q e i 7 7 0 q 7 q 7 i , u e q e 0 6 6 7 e 7 0 0 j u 0 e e q n n e p i i e 7 q q q q ",
"d >.>.X.0 , n X.j >.N p j i.$.>.e B.X.E i.n X.i.$.E j $.$.X.i.E V > >.$.8.N.C.j.j X.j 8.n n i.i.$.j j j.N X.E j 8.i.F j $.$.$.8.",
"n e f p V d n F n n n y e j n F j 8.X.j n e e n F >.n i.n F n n j - p n n f j n P n n n f q n F n n j $.>.$.e q n j E E %.P n F ",
"e 6 q 7 f e q e 0 u u 2 1 0 e e e j i e 0 0 6 0 i P 0 F e 0 q 0 e - 0 0 7 r p q e q e i 0 1 6 e 6 q 9 i j 0 6 0 6 e P q j e 0 q ",
"F.C.H.H.L.L.P.P.H.P.L.H.H.H.G.C.F.F.A.H.L.J.H.H.H.K.J.H.P.H.H.S.A.C.A.F.H.H.L.P.P.K.L.P.L.H.H.H.Z.A.D.A.H.H.L.H.H.H.H.K.H.K.L.H."
};
