/* XPM */
static char *_ee2be12ab17498ef8be31be1c8f60bc3Va73nMBGmYCZVdQ[] = {
/* columns rows colors chars-per-pixel */
"64 64 146 2 ",
"   c #5D5D5D",
".  c #605E5E",
"X  c #5D5E60",
"o  c #656465",
"O  c #686666",
"+  c #676867",
"@  c #6A6867",
"#  c #676768",
"$  c #6D6768",
"%  c #676869",
"&  c #6B6B6B",
"*  c #706D6D",
"=  c #6F706E",
"-  c #72716F",
";  c #6E6E71",
":  c #736F71",
">  c #6F7271",
",  c #757474",
"<  c #797676",
"1  c #767876",
"2  c #797977",
"3  c #777778",
"4  c #7A7779",
"5  c #777979",
"6  c #7C7C7C",
"7  c #807E7E",
"8  c #7E817E",
"9  c #81817F",
"0  c #7E7E80",
"q  c #817F81",
"w  c #7F8181",
"e  c #858587",
"r  c #868587",
"t  c #858787",
"y  c #868787",
"u  c #868686",
"i  c #858585",
"p  c #838384",
"a  c #888485",
"s  c #888586",
"d  c #898587",
"f  c #898687",
"g  c #888787",
"h  c #898686",
"j  c #858887",
"k  c #868887",
"l  c #878887",
"z  c #868887",
"x  c #888886",
"c  c #898986",
"v  c #868688",
"b  c #878688",
"n  c #868788",
"m  c #878689",
"M  c #868688",
"N  c #888788",
"B  c #8A8788",
"V  c #888789",
"C  c #858889",
"Z  c #878988",
"A  c #868989",
"S  c #87898A",
"D  c #878A8A",
"F  c #868989",
"G  c #898888",
"H  c #8B8888",
"J  c #888A88",
"K  c #898B89",
"L  c #88888A",
"P  c #89888A",
"I  c #88898B",
"U  c #89898B",
"Y  c #8A898B",
"T  c #898A8A",
"R  c #888A8B",
"E  c #888B8B",
"W  c gray54",
"Q  c #8A8A8B",
"!  c #8A8B8B",
"~  c #8D8A8A",
"^  c #8A8D8B",
"/  c #8D8C8B",
"(  c #8B898D",
")  c #888A8C",
"_  c #888B8C",
"`  c #8A8A8C",
"'  c #8B8A8C",
"]  c #8A8B8D",
"[  c #8B8B8D",
"{  c #8B8B8E",
"}  c #8C8A8D",
"|  c #8C8B8E",
" . c #898C8C",
".. c #8A8C8D",
"X. c #8A8D8D",
"o. c #8B8D8D",
"O. c #8B8D8E",
"+. c #8B8E8E",
"@. c #8C8C8E",
"#. c #8C8D8E",
"$. c #8E8D8F",
"%. c #8D8F8E",
"&. c #8C8E8F",
"*. c #8D8E8F",
"=. c #8D8F8F",
"-. c #8E8E8F",
";. c #8E8F8F",
":. c #8A8B8C",
">. c #908E8E",
",. c #908F8D",
"<. c #8C908F",
"1. c #8E918F",
"2. c #8E908F",
"3. c #90908F",
"4. c #8E8D91",
"5. c #8E8E90",
"6. c #8E8F91",
"7. c #8F8F91",
"8. c #8E8E90",
"9. c #908F92",
"0. c #8E9090",
"q. c #8E9091",
"w. c #8E9191",
"e. c #8E9291",
"r. c #8F9092",
"t. c #8F9292",
"y. c #8E9091",
"u. c #909093",
"i. c #909193",
"p. c #929192",
"a. c #919292",
"s. c #909293",
"d. c #919393",
"f. c #939293",
"g. c #939491",
"h. c #939593",
"j. c #919194",
"k. c #919394",
"l. c #949496",
"z. c #929293",
"x. c #969896",
"c. c #949498",
"v. c #979699",
"b. c #98969A",
"n. c #9B999D",
"m. c #9E9EA1",
/* pixels */
"w e e e e p p & u.6 a s e ;.e a w 6 1 w p e e 6 & o.6 p 5.p 6 0 6 6 6 e 8 e p p L 6 8 6 ~ e [ L a p w 5 6 p p n 6 , z.p q | p w ",
"S l.;.[ ;.u.;.; 1.L s s p ;.5.t.[ S e o.S [ t.o.& o.p p k p e p L ;.t.u.t.u.;.t.u.6 k s L p L 5.;.o.o.p [ L L [ u.6 t.e 9 k p e ",
"2 p p 6 L p p & S 1 3 , < 6 6 w e 6 6 0 6 6 6 p & e 6 6 6 < < , e 6 6 n 3 p p p [ , 6 3 , < 4 6 6 p p 1 0 6 6 6 6 5 o.q 6 0 6 < ",
"6 6 6 6 e 0 p ; S 6 1 6 7 6 6 6 , 6 p n 8 p L e & 5.p p p 6 6 6 6 7 p p 2 e p 6 | 3 6 1 1 7 7 6 6 3 2 9 p p p s p 6 z.p a p 6 6 ",
"p e s / g.e o # 8 , w L L ;.[ ;.8 p u.e 1.;.n + & , 6 5.u.B p s q p e p B g.e 3 q 3   6 k S u.[ L p 9 L L ^ t.u.  , L & n v.L p ",
", 6 < 4 4 6 L ; 1.B 1 0 p 0 6 3 3 1 6 1 6 0 6 e & 9.n [ q p p 9 3 2 1 6 < 6 4 e z.6 p 6 6 p p 6 6 , 1 6 6 6 6 6 p 2 c.| p B 6 6 ",
"= , , < < , 6 & 5.6 , e 6 3 6 3 5 , 6 6 , > 3 6 O 6 6 6 6 , q 6 , = , , < 4 , < e 6 6 , p 0 3 6 3 , 3 3 p 3 > , 6 , s 6 2 p > 6 ",
"s s ~ e B e o.; z.[ p L e e ;.L L [ u.o.e p e L O s s e 5.S ;.L e p a L L ~ q e c.6 ;.p S k L L ^ S [ ;.t.L w p s 2 ;.p e 9.e o.",
",.a e q a p u.; ^ e e e e p e S e n e L S p e ;.& B s 5.z.S [ u.[ x.a e q a p L u.5 p t [ p e p S e S e | L p p S 6 / 7 B 5.L e ",
"9 6 < , : , 6 & L , 1 3 - , 6 6 6 6 3 4 3 3 3 0 & 6 6 q 6 a 5 6 6 L 8 4 : , , , ;.6 3 2 6 , , 6 3 6 6 3 4 4 3 , 6 6 e , 6 6 6 6 ",
"6 a a 6 6 6 p & ;.6 p 6 6 6 6 8 6 L p 6 2 2 6 e & 6 6 8 < 0 6 7 s 6 p e 4 6 6 p o.6 6 e 6 6 6 5 8 6 e e 7 6 2 6 6 6 x 6 6 2 6 6 ",
"n L L p 6 q < o L p k p e S L p n z.u.p 8 8 6 p & p 6 p 8 p p s p n S L p 7 p < 9 , 6 e e p S E p p 5.u.L p 8 8 p 1 ;.6 p w p e ",
"p 6 0 6 2 4 O o ;.- 6 6 1 6 w 6 0 p 6 6 6 2 6 * & 6 - 3 p 6 p 0 6 a 0 0 6 1 6 , 2 6 + 3 6 1 6 w 6 0 p 6 9 5 1 6 O , 5.& - 6 q 6 ",
"6 6 0 p 6 1 6   p 0 6 , 3 5 5 5 6 0 , 1 1 3 6 6   p 6 1 0 6 0 6 3 6 6 6 0 p 1 6 5 & p 6 , 3 5 1 6 6 6 5 5 3 3 3 w + 0 w 1 6 6 6 ",
";.L z.c.;.o.p & u.w o.5.o.S ~ ;.t.;.o.z.u.0.e w % | ;.n.l.u.;.L k / ;.;.v.1.o.B | 6 6 e t.o.^ x o.5.u.L t.v.t.o.6 , f.p m.v.z.u.",
"4 < 0 0 < 6 3 & ;.6 6 6 1 5 1 6 6 4 6 6 6 w w 6 + B B n p a q < , < 2 6 p < 1 0 L 6 1 3 0 6 6 , 6 6 6 6 6 6 p p 6 1 9.a B p e p ",
"3 2 6 6 3 6 6 + t 8 6 p 6 p 1 6 3 6 6 6 6 p 6 8 & L a p a S e 7 6 3 2 6 q 3 6 6 p , w 6 p 6 p 5 6 6 1 6 6 6 q e 6 3 5.e p p n L ",
"[ p L ~ s p k & o.p L p e k e o.t.L S L x ;.k p & u.5.5.5.u.;.p p ;.p x L ~ p e ;., p S e p p k k ;.t.k L ~ L S p 6 c.;.;.;.5.z.",
"6 6 a e 7 6 0 & ^ 6 w 1 6 p p p k p e e 7 6 6 w & e 6 a p p 0 6 6 6 6 p a p 6 6 L 6 5 p 6 2 p p 6 e n w u.p e 8 6 6 ;.6 a p p p ",
", : 3 6 3 , 3 + L , 3 3 6 , 6 p p 6 6 < , < 3 2 & 6 , 6 6 6 3 * 3 , , , 6 6 , , p 6 , , 3 6 3 4 0 q e 3 q , , < , 3 k , 6 4 6 4 ",
"6 6 w p 7 7 p + f.6 p L e e L a p a L e 6 6 q p % p 7 6 a w 6 6 6 6 6 6 w 9 9 6 S 6 p p p B p B B B e L ;.7 6 p 6 1 o.9 6 p 6 6 ",
"s e e e p e n & z.L 5.9.u.;.u.e 6 L 5.L L L p p & k p e L e p p p p e L s p p L L 6 B 5.9.;.u.u.p p o.o.;.S L p 7 6 ;.p e L k p ",
"6 p w 6 6 6 O + e : 6 e e q e 6 6 6 a p 6 6 , $ & - - 6 0 6 2 1 3 2 6 e 6 6 6 , 6 < o 3 L p a q 6 6 7 q n 6 6 3 o , s O 6 p 6 2 ",
"1 0 6 6 6 3 w & ;.7 6 p 7 < 6 , * , 3 2 3 3 6 p & 9.L p 4 , 4 < , < 6 6 6 p < w S 6 9 6 w 3 7 6 , 2 , , 6 , 3 < a 3 v.L e 6 , , ",
"p L B e [ w w & ;.e p e p e 6 6 6 6 p 6 6 7 q q & 5.5.p q 7 6 7 4 6 B S p ;.p w o.6 k p w p p 6 9 q 6 7 q 6 7 q q 3 v.[ B p 7 6 ",
"6 6 0 6 L 6 6 & [ p p n p p 6 ~ 7 6 6 6 6 4 6 7 & | q 6 q 6 4 4 , 6 6 6 6 p p 6 e 6 7 6 e B p 6 p L 6 6 6 6 6 6 6 3 l.p q q 6 6 ",
"6 6 1 6 B p 6 & u.9 8 p 6 6 0 q 6 < 6 6 6 6 6 6 & L 0 6 e p 6 , < 6 6 6 6 a p 6 p 6 6 6 e p 6 0 q 6 6 6 6 6 6 6 6 3 ;.6 q a p 7 ",
"p p 9 8 n n [ & n.L p n 6 w L n p p n e e [ p p + e e S o.3.;.7 a p S p 6 e n n L p 5.k n p 8 e B w e e n e n e p 3 ^ p e [ ;.t.",
"e S 9 1 w [ p & ;.u.e p 6 6 6 n o.p 9.p p e 6 e O n 6 p x x p n p p n e 1 6 e w e 2 | S [ 6 6 6 e S S [ [ w e 6 p < ;.6 p p / p ",
"p e 6 , 6 e , + L 6 p 6 6 6 6 p B 6 B p 6 6 3 , & 6 3 6 9 p p p 0 0 e 0 3 1 0 3 p 2 4 L 6 6 6 6 q n p e q 0 6 2 * 3 k * 6 7 p p ",
"e S w 6 6 w O O / , 6 p p w 8 p n L e e 6 p p , & 6 q L ~ 8 p n n n S e 6 9 e 2 7 6 $ 6 6 p p w p n [ e p p 6 p , 2 L , p ~ p p ",
"L B w o.;.k p + ~ 9 6 9 e e p L B | [ p p n e L ; 5.B p s e p n n S B S p ;.1.s x 6 p 6 7 p n p L n [ L L 8 e e n 0 v.[ e s p e ",
"0 0 6 p 6 6 6 o p 2 2 6 6 6 6 6 6 p 6 6 6 p p w , n p 0 6 L 6 q 6 6 p p 6 w 6 9 p , < < 6 6 6 6 7 6 p 8 6 6 p p 0 6 f.p q 7 e 0 ",
"6 e p e e p 6 + ;.6 7 9 e B p 6 6 6 5 0 p w e 6 & 5.q p u.p 6 p 6 6 e p 6 S p p e 3 6 6 p e e e 0 6 6 6 6 w w e 6 5 c.e q [ e p ",
"[ [ n L n n n & ;.p s L 9 ;.[ L w p w n n n [ e & S 6 9 k p w 8 6 e e ;.L [ | n [ 6 p p ;.p L 5.L e p 6 e S S L S 6 t.8 9 e p e ",
"p L e p L L e ; E 6 6 6 6 p p k [ p 6 p 6 8 p e & e 6 6 0 6 6 6 e 6 w [ e [ S n 5.3 6 6 6 6 6 a p S L 6 p 0 w p p 5 o.p 6 p 6 6 ",
"6 6 p 2 p 0 p & L 6 , 2 4 6 6 6 5 6 6 a 6 6 e e & 5.p q 0 4 < < 6 2 6 8 6 6 6 0 [ 3 6 3 , 6 < 6 5 6 6 6 p 6 6 p p 6 u.p q 0 6 < ",
"p p q L l.p 6 & p < 6 p a L B L 1 8 ^ e L L e 6 & w 0 B n p 6 7 6 7 q 7 p l.e 6 [ , , 6 9 p L B e 6 6 p e k L ;.3 5 5.6 n B e 6 ",
"6 p 7 7 9 p 4 & k q 6 a n n p p 6 6 e 8 e e p , & a a u.L q p 6 2 2 8 p 7 9 6 p L 1 & 6 p S L p p 6 6 p 9 p S e = 3 u.6 n 9.a p ",
"& 3 , 4 , < 6 & ;.6 , p 0 6 4 3 , , 6 3 4 3 3 6 + p w p 0 , 6 6 , - , < < 4 , 6 n 6 6 3 6 p 6 6 6 3 , 3 6 3 3 3 3 3 L p 6 B 3 p ",
"6 7 p p a 7 e & t.n 6 e p q S p e p [ e 6 6 6 e + p 7 p a 6 e 6 0 6 6 p a s 7 9 o.6 B 6 e e 6 e e p e e [ w 5 6 p 3 L 7 9 B 6 [ ",
"~ B e s a a u.; 1.e e L L s e [ L o.[ ;.L e S ^ & L p L 5.e o.u.[ L a L s s a L c.5 e p ;.L L e L [ [ S u.o.e e L 6 ;.p s ;.k o.",
"s 7 6 < 4 4 p & L 6 6 6 2 1 6 6 6 6 6 6 6 6 6 n & 6 6 p p p 0 e p l.q 6 , 4 < 6 ;.6 6 w q 2 2 6 6 6 6 5 6 6 6 5 w 6 k < e B a e ",
"6 p 6 4 < 6 p ; L 3 6 6 , 3 8 w 5 0 6 6 3 3 3 p & 6 1 6 6 q 2 6 6 6 p q < 4 4 6 t.6 3 6 6 3 3 6 8 6 6 6 6 6 3 3 6 6 k 3 p 6 p p ",
"a L B 7 6 q 6 O ;.p L w p e e 8 e l.;.9 6 6 9 e & p 6 6 6 p p s L e e L p 7 8 6 e 1 p S p p e p 8 w 5.5.e 6 6 7 p 6 ^ 6 p p 6 p ",
"p p p 6 6 < o . e & 6 6 6 w k 6 p e e 8 w 6 3 - + 3 - 6 p 6 p p 7 p p p 6 6 6 & 3 3 + 1 8 6 6 S 6 0 n p s 8 6 6 & , [ & , e 6 7 ",
"e p p e 8 6 3   [ 6 w 6 6 w w 8 a e 6 6 1 6 6 6 o p 6 6 p 0 e p 7 n p p e p 6 6 6 , 6 p 6 5 0 8 p p a 6 8 5 2 6 6 & L 6 1 p p p ",
"e e S [ [ e L o e e e w p p p e n S e S L S p e X [ n 5.[ L [ e 8 p p e [ [ n n p & n e e w p p e n e e S [ S 8 e % n S 5.5.S [ ",
"7 6 n n 6 8 & & o., 6 w 6 6 6 p p 6 6 p p e w 1 & q n 5.B S 7 6 6 6 7 p L 6 6 6 e 6 O 5 e 6 6 6 w 0 p 6 p p p w & , 5., u.n L p ",
", , 6 6 , 3 6 % S w 3 6 3 6 > , , , , 3 6 6 3 p & L q 6 q p p 6 3 , , 2 8 - 3 6 e , e , 6 3 6 , , , , < 3 3 6 6 6 , 5.a 6 0 p p ",
"e 9 e p p 8 e % E w L e e L p 1.L e p s x ;.k p & ;.5.;.o.u.[ e p e 8 p p p 9 e k , w e S p e e x ;.k e a p L e 8 6 c.| 5.[ ;.u.",
"e e L L p p e & o.p n 6 p p e e S e ;.L ~ e e p & ;.e L S L B 7 p e p L L s p p 5.5 6 S 8 8 p e p S o.e u.p e e 8 6 u.e L e L [ ",
", , 6 0 3 3 4 + S 3 4 , 3 6 6 6 L q 0 6 6 3 , 6 & 6 3 6 6 6 3 , 3 , , 3 6 6 , , p 6 > 3 3 , 6 6 6 0 e 3 a , 4 , 3 6 L , 6 6 6 6 ",
", , 5 6 6 < 6 + 9.3 6 6 6 6 q p p p 0 9 4 6 < 6 & 6 2 1 6 6 3 , 3 , 3 3 6 6 2 < p 6 5 6 2 q 1 0 0 0 6 6 p < 1 6 3 3 k 2 2 6 6 6 ",
"s L L k k x ^ & v.;.u.l.9.u.l.L e 5.b.;.L L L / & ;.x L ;.k x p e p B L x k x L ;.6 9.9.u.z.z.u.L p 5.5.f.L o.L L 6 t.x L | k x ",
"6 p e 7 6 6 , + L 4 a a n 6 B 6 6 p B e p 6 3 , @ 2 3 6 p 6 6 6 1 6 p e p 6 6 7 e 3 : 0 n e e B 6 3 6 e [ p p 2 * < ~ * 6 w p 6 ",
"3 6 3 3 6 6 & # L < 3 e 6 < , > 4 < < 6 , , 2 : & 6 6 e 4 , , , , , 3 6 3 6 < 3 p < & 3 B 6 6 6 1 6 6 , 6 , , , * , ;., 6 6 , , ",
"p L e L o.6 p & ^ p 0 w p k 5 2 4 6 6 6 6 6 q p & 9.9.p 7 6 7 6 4 6 B e e c.p p [ 6 p p 6 6 L 6 8 6 6 6 7 6 6 7 a 3 b.4.B p 6 6 ",
"e p n 6 e w 8 & ;.e p p e e 8 L p 7 p 6 6 7 q 7 & 5.n a p 6 4 7 4 7 e e w p p 6 S 6 k p p p e 6 e ~ 7 7 7 6 7 q 7 3 v.n e p 7 6 ",
"6 3 6 < n 6 3 # u.2 7 6 6 p 6 q < , < 4 < 4 < 6 & e 6 3 6 < , : , < , 1 3 p 0 3 p 6 3 3 w 0 6 q 0 6 < < < 4 < < 4 3 5.6 6 6 6 3 ",
"e e 6 8 L n e O l.;.p n 8 a n B e 6 n n e L p p + [ e e u.l.u.6 a p | 6 6 n L e e 6 L p S p e n n e p p e n e e p 3 o.n e t.h.l.",
"B n ^ 8 [ [ S & v.u.L | p 6 L [ ^ L 9.L [ | e e + S e [ k x S L e n n / 8 e [ n ;.6 f.x u.k 8 e | n o.| u.n 5.e e , ^ p [ k x L ",
"6 p - & 3 p > & e a 6 4 , , 3 6 L 3 B 6 3 6 , 2 & 6 , 6 9 p 6 6 3 6 0 6 = , 6 3 9 - 6 B 6 , , , 6 n 6 a 6 3 4 3 : < S - 6 6 s 6 ",
"e e 6 1 2 p - & x 6 q p 6 6 6 p a p w p 6 6 6 , & < 6 p p w e e e p e p 6 1 6 1 9 7 , q 6 p p 6 0 q a p 6 p 6 6 * 3 e , 6 p p p "
};
