/* XPM */
static char *_c613718620c490ae8f86dbb71501d91pZ2nCJbVkOQxBEu3[] = {
/* columns rows colors chars-per-pixel */
"64 64 234 2 ",
"   c None",
".  c #080408",
"X  c #150608",
"o  c #0D121D",
"O  c #151519",
"+  c #111214",
"@  c #150F0D",
"#  c #28060B",
"$  c #281506",
"%  c #3C1C08",
"&  c #351318",
"*  c #340C0E",
"=  c #3A2314",
"-  c #151A28",
";  c #192335",
":  c #232427",
">  c #3D2B34",
",  c #333339",
"<  c #352E33",
"1  c #321E29",
"2  c #460913",
"3  c #580814",
"4  c #4A1016",
"5  c #571218",
"6  c #410A0C",
"7  c #680917",
"8  c #6A1116",
"9  c #7A101C",
"0  c #462418",
"q  c #572C10",
"w  c #633918",
"e  c #6F2B0E",
"r  c #5D1724",
"t  c #4B1B25",
"y  c #740825",
"u  c #661825",
"i  c #7A1727",
"p  c #72082D",
"a  c #442A35",
"s  c #512B3A",
"d  c #493739",
"f  c #543332",
"g  c #6E253A",
"h  c #6C2C3A",
"j  c #792A37",
"k  c #6B313F",
"l  c #76471A",
"z  c #7E4B08",
"x  c #775323",
"c  c #373945",
"v  c #293348",
"b  c #573C57",
"n  c #77364A",
"m  c #723248",
"M  c #39425B",
"N  c #37496B",
"B  c #3B5379",
"V  c #45444A",
"C  c #4A4958",
"Z  c #505157",
"A  c #64455F",
"S  c #5B5B69",
"D  c #534F67",
"F  c #695B74",
"G  c #7A5271",
"H  c #5E6173",
"J  c #666576",
"K  c #74747E",
"L  c #6B6573",
"P  c #840B1B",
"I  c #9F3802",
"U  c #8F2E12",
"Y  c #A82E06",
"T  c #AA320D",
"R  c #871D29",
"E  c #850432",
"W  c #97112C",
"Q  c #AB0632",
"!  c #BC0239",
"~  c #AF1332",
"^  c #8E2839",
"/  c #A8263B",
"(  c #AA3823",
")  c #CB2C09",
"_  c #D82D08",
"`  c #DA2D18",
"'  c #CC3012",
"]  c #E42C0C",
"[  c #F72A0B",
"{  c #EC2C15",
"}  c #F42B14",
"|  c #F72614",
" . c #E43213",
".. c #DF3621",
"X. c #E6392F",
"o. c #974706",
"O. c #8B5211",
"+. c #A55403",
"@. c #B65905",
"#. c #AD5108",
"$. c #B66306",
"%. c #92482E",
"&. c #AA4B27",
"*. c #BA7C2C",
"=. c #C65108",
"-. c #CD6D05",
";. c #CB7602",
":. c #D87805",
">. c #D47518",
",. c #CC6D17",
"<. c #E17F1A",
"1. c #C76234",
"2. c #B61744",
"3. c #953149",
"4. c #AC364D",
"5. c #B0344F",
"6. c #B63F61",
"7. c #D40856",
"8. c #D2145B",
"9. c #C50142",
"0. c #C43C5B",
"q. c #DD1062",
"w. c #E9116E",
"e. c #E5146E",
"r. c #F61A7E",
"t. c #EC1672",
"y. c #D23A68",
"u. c #935551",
"i. c #A6435D",
"p. c #AE6847",
"a. c #8D5471",
"s. c #B64264",
"d. c #A85373",
"f. c #8A6278",
"g. c #A76175",
"h. c #AC6573",
"j. c #C84668",
"k. c #D54972",
"l. c #DA537B",
"z. c #D04C6F",
"x. c #E44278",
"c. c #D28A14",
"v. c #E78503",
"b. c #F58E05",
"n. c #F99103",
"m. c #F6910B",
"M. c #E98D1E",
"N. c #D59F3E",
"B. c #DDA221",
"V. c #F3B439",
"C. c #F6D836",
"Z. c #DAAC54",
"A. c #DCA967",
"S. c #F8EC5A",
"D. c #E9D066",
"F. c #7C7C8C",
"G. c #787883",
"H. c #F81981",
"J. c #F81981",
"K. c #F5368C",
"L. c #BE5883",
"P. c #877488",
"I. c #B07392",
"U. c #DE5F89",
"Y. c #CD5983",
"T. c #E45987",
"R. c #F34994",
"E. c #CA668A",
"W. c #D66B97",
"Q. c #D8739A",
"!. c #D06891",
"~. c #E4628B",
"^. c #EB6895",
"/. c #E86996",
"(. c #F16F9E",
"). c #EC719E",
"_. c #E5729B",
"`. c #F0719F",
"'. c #FA6BA8",
"]. c #ED73A2",
"[. c #E97AA7",
"{. c #F172A2",
"}. c #F27DAB",
"|. c #F479A9",
" X c #F56BAA",
".X c #82828B",
"XX c #818287",
"oX c #858593",
"OX c #8A8993",
"+X c #8C8C99",
"@X c #888796",
"#X c #91919C",
"$X c #928693",
"%X c #9495A2",
"&X c #9999A6",
"*X c #9D9CAB",
"=X c #9898A6",
"-X c #8D90A1",
";X c #A09FAE",
":X c #9FA1AF",
">X c #A1A0AF",
",X c #A1A0B0",
"<X c #D48AB0",
"1X c #E886AB",
"2X c #ED88B9",
"3X c #F58BBB",
"4X c #F98CBC",
"5X c #F684B8",
"6X c #EF8CB9",
"7X c #DCB4A1",
"8X c #C89382",
"9X c #F9ECB7",
"0X c #B8BCCA",
"qX c #F78EC3",
"wX c #F694C5",
"eX c #F992C3",
"rX c #F997CB",
"tX c #F59ACC",
"yX c #F99BCE",
"uX c #F596C9",
"iX c #F79DD3",
"pX c #F99DD5",
"aX c #FA9FD8",
"sX c #EF96C8",
"dX c #D6ADD1",
"fX c #F7A1D9",
"gX c #F9A0D8",
"hX c #F7A1D6",
"jX c #F6B6D9",
"kX c #E8B3DB",
"lX c #EDD3C8",
"zX c #F6E7CF",
"xX c #F2D1E3",
"cX c #F8EBEB",
/* pixels */
"                                                                                                                                ",
"                                                                                                                                ",
"                                                                                                                                ",
"                                                                                                                                ",
"                                                                                                                                ",
"                                                                                                                                ",
"                                                                                                                                ",
"                                                                                                                                ",
"                                                                                                                                ",
"                                                                                                                                ",
"                                                                                                                                ",
"                                                                                                                                ",
"                                                                                              d q 0 0                           ",
"                                                                                            d ' [ ] Y 0                         ",
"                                                                                          d e ` [ } ` e                         ",
"                                                                                          = e Y _ } { U                         ",
"                                                                                          x p.*.=._ } ' U e f                   ",
"                                                                                      D l Z.9XS.c.Y { } } ) U =                 ",
"                                                                                    M q p.lXS.V.*.&. .{ | } ) q                 ",
"                                                                                  v l ,.@.&.B.9XzX7XT I ] [ } ` a               ",
"                                                                                v w o.-.>.@.$.lX9XD.>.A.1._ } { 0               ",
"                                                                                q $.@.@.-.:.#.8XD.C.D.zXN.=.) ) 0               ",
"                                                                              % ;.b.v.@.#.-.:.#.$.Z.cXzXN.+.e e                 ",
"                                      o + O O O O O + + ;                     = <.m.n.:.@.I >.-.@.p.lXZ.o.w > <                 ",
"                                v o ; Z L oX+X+X+X+XK S c o -                 $ o.:.n.b.v.$.+.:.:.@.%.w 0                       ",
"                              N C V V K +X*X>X>X>X>X=X+XF.S Z v                 % ;.n.n.b.v.@.@.-.$.%                           ",
"                            B c K G.G.+X*X>X>X>X>X%X+X@X+X%XOXV M               w ;.n.n.n.m.:.#.+.O.                            ",
"                          N , K *X#XOX;X>X>X>X*X%X.Xf.f.f.I.#X+XS : @ s t & $ O.b.n.;.$.:.b.v.o.f                               ",
"                        M : G.=X,X#XOX>X,X,X:X=XF.P.!./._.Q.$X=X+XS a _.U.m z m.n.M.l 0 o.>.$.=                                 ",
"                        , S XX=X;X+XOX;X>X,X,X-XF E.2XjXcXxX0X#XXXK L uXrXa.O.m.M.q     X $ @                                   ",
"                        c G.%X*X>X&X#X+X*X,X=X.XF <XdXkXxXjX<XP.J J P.sXpX<Xu.l w                                               ",
"                      v S OX>X>X>X>X=XXXOXF.H C C <XdXkXaX<X3.g.I.I.i.~.3XuXE.j .                                               ",
"                    ; , K OX>X>X,X&X+XG.L f.a.G a.s.Q.qXgX6Xg.i.E.[.j.5.U.}.~.3.X                                               ",
"                    ; V XXoX*X>X*X@XK F b L./.].tXn 6._.iXjXxXd 3.).Q.i 5.l.j.i X                             X.                ",
"                    ; Z +XXX.X=X+XS A Y.Y.2XrXiXhXlXu.s.5XrX1Xj R j.2Xj.R ^ R 4 .                             X.                ",
"                    ; Z #XG.J G.L a.W.uXrXpXaXaXpX1Xt u z.pXwXs.r s iX1X^ 8 *                             f.( { %.              ",
"                    ; V #XoXH J g.Q.4XpXgXgXgXgXaX6Xh 5 3.fXpX/.h > pXwX4.5                               g._ [ '               ",
"                    ; V .XoXD G W.3XhXgXgXgXgXgXaXtXi.u k hXpX5Xn > gXiXk.u                               h.[ [ {               ",
"                  - v C J L b E.4XiXgXgXaXaXpXpXpXrX~.g > fXgXuXa.s iXqXT.g                               h.] [ ..              ",
"              N c %XP.J C A !.qXiXpXgXgXgXgXyXeXeXqX].n > hXgXiXE.4.(.K.x.g                               f.T  .(               ",
"              D %X@X.XS m 6.3XyXaXfXgXaXaXaX'.K.K.K.|.z.s.gXgXaXtXwXuX5XT.g                                                     ",
"              : c , < : g l.rXpXgXaXfXgXrXpX4X'.'.'.eX2X[.gXpX[.2XpXwX4Xz.u                                                     ",
"                        m /.rXpXgXgXpXyX3XiXyXuXrXrXpXfXfXfXiX~.).rXqX5X4.4                                                     ",
"                        n |.qXiXhXiXrX4X[.wXpXfXgXaXgXgXpXpXyX/.).4X5X/.j &                                                     ",
"                        m ).4X3X4X}.).^.(.3XrXiXpXpXpXpXyXeXqX4X4X5X^.j.&                                                       ",
"                        r 0.].{.{.{.^.l.^.3XeXeXwXeXeXwXeXqX4X}.{.{.T.5.*                                                       ",
"                        # u 0.l.T.k.0.0.~.|.}.}.}.}.}.}.}.}.}.{.].^.s.4 X                                                       ",
"                          X u 3.4./ ~ 2.k.T.^.`.{.{.{.{.{.{.{.`./.l.^ 2 X                                                       ",
"                          . X 3 8 W 9.7.7.y.T.^.(.{.].`.).(.^.^.l.5.9 Q 6                                                       ",
"                          X 8 / 7.e.r.J.J.H.w.8.k.~.^.^.^.T.j.4.R P ! 7.! 3                                                     ",
"                          # W 1XR.r.J.r.H.H.r.w.8.2.j.0.5./ i 8 P Q 7.t.7.p                                                     ",
"                          # ~ T.K.J.J.J.J.J.J.w.! P r t 5 9 7 P Q 9.7.q.W 2                                                     ",
"                          # P 8.e.w.w.w.w.e.8.2.7 6       * 6 7 y E E p 4 1                                                     ",
"                            2 y E E E E E y 3 &                                                                                 ",
"                                                                                                                                ",
"                                                                                                                                ",
"                                                                                                                                ",
"                                                                                                                                ",
"                                                                                                                                ",
"                                                                                                                                ",
"                                                                                                                                ",
"                                                                                                                                ",
"                                                                                                                                ",
"                                                                                                                                "
};
