/* XPM */
static char *_b9041ba06d84a6596833ec64439fb9dt9T38H0vD2RTIDXN[] = {
/* columns rows colors chars-per-pixel */
"64 64 234 2 ",
"   c None",
".  c #080609",
"X  c #150609",
"o  c #080B12",
"O  c #0E1117",
"+  c #13161A",
"@  c #141618",
"#  c #1D0812",
"$  c #27070A",
"%  c #3A0A0D",
"&  c #36121B",
"*  c #320F13",
"=  c #3D261D",
"-  c #161D29",
";  c #1F1F33",
":  c #351B26",
">  c #162233",
",  c #19232D",
"<  c #3C353B",
"1  c #2A2B37",
"2  c #481E09",
"3  c #450D15",
"4  c #590A13",
"5  c #4C1014",
"6  c #6A0A18",
"7  c #760B15",
"8  c #6A1417",
"9  c #71141B",
"0  c #562E0E",
"q  c #782D09",
"w  c #6A3808",
"e  c #6A2C11",
"r  c #541625",
"t  c #750727",
"y  c #681923",
"u  c #791926",
"i  c #513233",
"p  c #742736",
"a  c #6C410F",
"s  c #7A470F",
"d  c #7D542B",
"f  c #262F44",
"g  c #283449",
"h  c #373B49",
"j  c #4D3B4F",
"k  c #713249",
"l  c #374B70",
"z  c #484956",
"x  c #4B474C",
"c  c #575767",
"v  c #5C5C72",
"b  c #4A4E64",
"n  c #655168",
"m  c #6A5972",
"M  c #775C73",
"N  c #6D6D7A",
"B  c #686873",
"V  c #736C7C",
"C  c #72727D",
"Z  c #66656D",
"A  c #63564C",
"S  c #90300B",
"D  c #A42D06",
"F  c #A43906",
"G  c #AF2C09",
"H  c #8A0C26",
"J  c #9C0526",
"K  c #840333",
"L  c #93182B",
"P  c #A70531",
"I  c #AE0833",
"U  c #8B2435",
"Y  c #982639",
"T  c #923B23",
"R  c #A4332C",
"E  c #C42D09",
"W  c #DA2C0A",
"Q  c #CF2F0C",
"!  c #EA2B0D",
"~  c #F7270C",
"^  c #F32B14",
"/  c #F92814",
"(  c #E93218",
")  c #D83E3A",
"_  c #F03022",
"`  c #8C4F0B",
"'  c #AD5105",
"]  c #A85107",
"[  c #B25403",
"{  c #BA5D05",
"}  c #AD520A",
"|  c #B86406",
" . c #AD6817",
".. c #AA4C23",
"X. c #AC7130",
"o. c #9A4B2B",
"O. c #CE6B01",
"+. c #C97109",
"@. c #D37503",
"#. c #D87A09",
"$. c #C96823",
"%. c #BE124C",
"&. c #99344D",
"*. c #863E4F",
"=. c #AB2C45",
"-. c #B82A47",
";. c #A9314B",
":. c #BC3C59",
">. c #AC3750",
",. c #C70346",
"<. c #D50957",
"1. c #CB1252",
"2. c #D4135E",
"3. c #C41548",
"4. c #C9395C",
"5. c #DE0E63",
"6. c #E70D6C",
"7. c #E90E70",
"8. c #F51B7C",
"9. c #EB1371",
"0. c #E43374",
"q. c #DA2C64",
"w. c #8F505A",
"e. c #8A4D6D",
"r. c #B44B6B",
"t. c #B05170",
"y. c #A66660",
"u. c #CF4A6D",
"i. c #C74667",
"p. c #D6446D",
"a. c #D55378",
"s. c #CF5476",
"d. c #E04879",
"f. c #C7715A",
"g. c #D6820D",
"h. c #E78509",
"j. c #F68E05",
"k. c #F99101",
"l. c #F69204",
"z. c #EE8A14",
"x. c #F29013",
"c. c #DBA41D",
"v. c #E4B337",
"b. c #F6D730",
"n. c #DBAA56",
"m. c #EDB86E",
"M. c #C7947F",
"N. c #ECCE6C",
"B. c #F8E452",
"V. c #7B7B86",
"C. c #787986",
"Z. c #7A6A81",
"A. c #F81981",
"S. c #F81981",
"D. c #F3378B",
"F. c #AE5C83",
"G. c #946688",
"H. c #887888",
"J. c #AE6887",
"K. c #B86886",
"L. c #AC7695",
"P. c #BB78A2",
"I. c #D85A85",
"U. c #CB5A85",
"Y. c #E35B87",
"T. c #F34E90",
"R. c #D4668C",
"E. c #D76D95",
"W. c #CA7193",
"Q. c #EC6C9B",
"!. c #E76894",
"~. c #EF709E",
"^. c #E3739E",
"/. c #EC6693",
"(. c #D87BA6",
"). c #C97AA5",
"_. c #F86BA9",
"`. c #ED73A1",
"'. c #E97AA8",
"]. c #F173A3",
"[. c #F17CAB",
"{. c #F574A9",
"}. c #F07FB1",
"|. c #7E808F",
" X c #898994",
".X c #8C8C9B",
"XX c #878596",
"oX c #91919D",
"OX c #8B8A94",
"+X c #9898A6",
"@X c #9D9CAB",
"#X c #9596A2",
"$X c #A09FAE",
"%X c #AF8CA7",
"&X c #9DA4B0",
"*X c #A1A0AF",
"=X c #A1A0B1",
"-X c #BAA5A9",
";X c #D29E81",
":X c #D0AA86",
">X c #F281AE",
",X c #ED84B3",
"<X c #E887B7",
"1X c #F484B3",
"2X c #F58BBD",
"3X c #F88CBC",
"4X c #F786B9",
"5X c #F591BF",
"6X c #E387AC",
"7X c #D3ADA8",
"8X c #D88CBA",
"9X c #F4ECB0",
"0X c #F9DEB3",
"qX c #F48CC1",
"wX c #F592C4",
"eX c #F992C4",
"rX c #F995CA",
"tX c #F69ACD",
"yX c #F99ACC",
"uX c #F595C8",
"iX c #F69CD2",
"pX c #F99DD4",
"aX c #FA9FD8",
"sX c #D2B4D0",
"dX c #F3BDCE",
"fX c #F5A2D4",
"gX c #F9A0D6",
"hX c #F7A1D9",
"jX c #F9A0D8",
"kX c #F2B0D1",
"lX c #E7D7C3",
"zX c #F6EECE",
"xX c #F8C2E5",
"cX c #F8F3E9",
/* pixels */
"                                                                                                                                ",
"                                                                                                                                ",
"                                                                                                                                ",
"                                                                                                                                ",
"                                                                                                                                ",
"                                                                                                                                ",
"                                                                                                                                ",
"                                                                                                                                ",
"                                                                                                                                ",
"                                                                                                                                ",
"                                                                                                p S q 0                         ",
"                                                                                              j Q / W D 0                       ",
"                                                                                            = q Q ^ ^ ( e                       ",
"                                                                                            = q D Q ^ ^ D e i <                 ",
"                                                                                          A X.;Xv.+.E ~ W E D q r.              ",
"                                                                                        j d N.9XB.g.D ^ / ~ ! E (               ",
"                                                                                      1 0 X.lXB.v.$...! ! ! / ! _               ",
"                                                                                    @  .+.} ..c.0XzX7XF F Q W G ( R             ",
"                                                                                  < s ] O.@.[ | lXzXN.#.;Xf.G W ^ W             ",
"                                                                                x w @.} { @.@.[ ;XN.b.m.zX:X{ ^ / /             ",
"                                                    l                           w #.j.#.{ ' O.@.[ | n.cX9Xm.+.Q ^ W             ",
"                                      O O O + + + + O O O                       s z.j.k.#.{ F #.@.} X.lXn. .S T ) R             ",
"                                g O ; z B V..X.X.X.XV.B z , O f                 2 [ j.k.j.h.| ] #.@. .o.0 0 i                   ",
"                              l z x z C  X@X*X*X&X*X@XoXXXN c z                 < w j.k.k.j.h.{ [ O.| 2                         ",
"                              h C.V.C  X@X*X$X$X*X+X.XXXXXoXoXC h               x ` x.k.k.k.k.#.' ] d g                         ",
"                            - B +XoX X$X*X*X$X$X@X XZ.m m H.oX#XZ + . X # # . X ` x.j.g.g.z.j.j. .0                             ",
"                          1 N oX*XoX X$X*X*X=X$XXXH.J.I.I.I.L. XoXB - k U.r.* a h.k.z.0 0 [ z.@.2                               ",
"                        g z V.+X*XoX X$X*X*X$X@XN J.(.5XdXdXsX&X XV.z G.2X'.i ` k.#.w   < 2 0 0                                 ",
"                      > < V.oX@X*X+XoX.X@X*X@X Xv %XsXsXxXxXkX).B B v L.yXfX).w.a i                                             ",
"                      f b  X$X*X*X*X+X XoX.XV.B b %XsXsXfXjXE.r.G.G.e.t.}.rXiXK.& -                                             ",
"                    o z C  X$X*X*X@X#XV.C.V n j j t.'.tXaXjXK.*.E.1Xi.:.a.1X3X!.p >                                             ",
"                    o c V. X*X*X*XoXV.v z e.U.U.8X&.>.!.iXfXdX-Xi ^.[.r.U a.Q.a.r -                                             ",
"                    o N  X X.X@XoXN n t.t.W.4X2XiX7Xy.>.>XiXfXW.y i.,XR.;.U :.=.3 -                                             ",
"                    o V.oXV.C .XV.M e.`.].qXhXhXfXdXy.y s.2XrXR.u u (.1Xu.8 H 8 :                                               ",
"                    o C oXV.v C.M F.`.pXfXfXjXjXaX,X*.% Y 6XfX,XU X P.yXE.9 4 &                                                 ",
"                    o Z oX.Xv m F.'.tXjXaXaXjXjXhXiXt.4 y (.fXwXt.X P.aX6XY %                                                   ",
"                  - 1 b C C j J.,XrXjXjXjXjXjXjXjXhX^.&.$ P.hXpXK.# P.hX4Xi.&                                                   ",
"                b N B v c n F.6XrXpXjXjXjXjXaXrXtXyX[.r.X P.jXaX(.p R._.T.u.&                                                   ",
"              b C +XV.c j w.'.rXjXjXjXjXjXjXrX_._._.{.U.r ).jXhX5Xs.`._.T.u.&                                                   ",
"            > z XXC N h k i.5XiXaXjXjXhXaXaXqXD.D.D._.'.:.,XjXfXtXaXaXrX[.i.&                                                   ",
"            > o @ O O . p I.tXjXjXjXjXfXrXyXpX4X4X4XwXiXwXiXjXqX!.pXrXeX`.=.*                                                   ",
"                        k Q.eXaXjXhXiXrX1XqXaXpXiXiXaXjXaXaXjX2XY.eXwX4XR.u $                                                   ",
"                        k [.wXtXyXtX3X1X].4XpXjXjXjXjXhXjXpXyX2XQ.2X4X`.r.3                                                     ",
"                        k ~.3X2X3X>X~.Q.~.1XeXaXaXaXaXpXaXeXeX5X3X3X[.Y.&.X                                                     ",
"                        5 ;./.Q.Q.Q.Y.u./.[.3X3X3X3X3X3X2X3X2X1X`.].Q.i.u .                                                     ",
"                        . 3 ;.p.a.4.-.-.Y.].].].].].].].].].].].].~.I.p X .                                                     ",
"                          X 3 u U L I 3.q.d.Y.].~.`.`.].].].].].Q.I.;.u 4 .                                                     ",
"                          . $ 6 H I <.5.6.q.0.Y./.Q.].`.~.].Q.Y.u.;.L J P 3                                                     ",
"                          X 6 Y 1.6.A.8.A.A.9.<.p.Y./.Q././.a.:.L 7 J ,.1.P $                                                   ",
"                          $ L 6XT.8.A.A.A.A.S.8.<.%.4.u.-.-.Y 9 7 P ,.5.7.%.*                                                   ",
"                          $ P Y.D.S.A.S.A.A.A.8.I H y r 3 9 8 7 J ,.,.<.1.H $                                                   ",
"                          $ J 2.7.7.7.7.7.6.2.%.6 3 :     : % 3 t K K K t %                                                     ",
"                            3 t K K K K K t 6 %                                                                                 ",
"                                                                                                                                ",
"                                                                                                                                ",
"                                                                                                                                ",
"                                                                                                                                ",
"                                                                                                                                ",
"                                                                                                                                ",
"                                                                                                                                ",
"                                                                                                                                ",
"                                                                                                                                ",
"                                                                                                                                ",
"                                                                                                                                "
};
