/* XPM */
static char *b4ca53af59804a52a16bdb807640ad4cVJ7TSQ9jj0Q3VKI7[] = {
/* columns rows colors chars-per-pixel */
"64 64 156 2 ",
"   c #5B5B5C",
".  c #615E5E",
"X  c #666565",
"o  c #696667",
"O  c #666867",
"+  c #696867",
"@  c #676768",
"#  c #6C6769",
"$  c #676969",
"%  c #6B6A6B",
"&  c #706D6D",
"*  c #6F716E",
"=  c #71716E",
"-  c #6E6D70",
";  c #726E71",
":  c #6F7270",
">  c #757574",
",  c #797576",
"<  c #767876",
"1  c #797977",
"2  c #777778",
"3  c #7A7779",
"4  c #777978",
"5  c #7C7B7C",
"6  c #807E7E",
"7  c #7E807E",
"8  c #81817F",
"9  c #7E7E80",
"0  c #817F81",
"q  c #7F8181",
"w  c #848586",
"e  c #858587",
"r  c #878586",
"t  c #858787",
"y  c #858786",
"u  c #868786",
"i  c #868686",
"p  c #858585",
"a  c #838384",
"s  c #898787",
"d  c #898686",
"f  c #858887",
"g  c #868887",
"h  c #878987",
"j  c #868886",
"k  c #898987",
"l  c #868588",
"z  c #858789",
"x  c #868788",
"c  c #878788",
"v  c #878789",
"b  c #87868A",
"n  c #868688",
"m  c #888688",
"M  c #88868A",
"N  c #898689",
"B  c #858888",
"V  c #868888",
"C  c #878988",
"Z  c #878989",
"A  c #87898A",
"S  c #868989",
"D  c #888989",
"F  c #888989",
"G  c #898B88",
"H  c #888A89",
"J  c #88888A",
"K  c #88898A",
"L  c #89898A",
"P  c #88898B",
"I  c #89898B",
"U  c #8A898A",
"Y  c #888A8A",
"T  c #888A8B",
"R  c gray54",
"E  c #8A8A8B",
"W  c #8A8B8B",
"Q  c #898D8B",
"!  c #8A8C8A",
"~  c #8A8C8B",
"^  c #8D8C8B",
"/  c #898B8C",
"(  c #8A8A8C",
")  c #8A8B8C",
"_  c #8B8B8C",
"`  c #8A8B8D",
"'  c #8B8B8E",
"]  c #8D8B8E",
"[  c #8D8B8F",
"{  c #888D8D",
"}  c #8A8C8D",
"|  c #8A8C8E",
" . c #8A8C8F",
".. c #8B8D8F",
"X. c #8C8C8D",
"o. c #8C8D8D",
"O. c #8D8D8D",
"+. c #8D8E8C",
"@. c #8C8E8D",
"#. c #8C8C8E",
"$. c #8D8C8F",
"%. c #8D8D8F",
"&. c #8F8D8E",
"*. c #8C8E8F",
"=. c #8D8E8F",
"-. c #8E8E8E",
";. c #8E8F8E",
":. c #8B8B8C",
">. c #908D8E",
",. c #8B908E",
"<. c #8F908F",
"1. c #8E908F",
"2. c #90908F",
"3. c #8D8E90",
"4. c #8F8F90",
"5. c #8F8E91",
"6. c #8F8F91",
"7. c #8E8E91",
"8. c #908E91",
"9. c #8F9190",
"0. c #8F9091",
"q. c #8E9092",
"w. c #8F9092",
"e. c #8F9191",
"r. c #909190",
"t. c #909192",
"y. c #909193",
"u. c #929292",
"i. c #929294",
"p. c #939394",
"a. c #939295",
"s. c #939395",
"d. c #939496",
"f. c #939596",
"g. c #949596",
"h. c #969597",
"j. c #929294",
"k. c #989596",
"l. c #959698",
"z. c #969599",
"x. c #959898",
"c. c #9A9A9C",
"v. c #A09F9E",
"b. c #A1A09F",
"n. c #A4A4A4",
"m. c #A8A6A5",
"M. c #AAAAA9",
"N. c #AFB1AE",
"B. c #B0B1AF",
"V. c #AFB0B1",
"C. c #B4B5B5",
"Z. c #B8B6B6",
"A. c #B8B8B7",
"S. c #B7B6B9",
"D. c #B6BAB9",
"F. c #BABBBC",
/* pixels */
"% g.y &.u.&.g.6.&.y A q D { &.0.a $ u.y D l.D a A a A A D y p.0.6.&.5 g y k.&.p.p.^ x A a y { { 0.g 4 d.D x p.Q D a y a y &.g A ",
"- { a 6 6 5 x x Q x a 5 y q a D A % y 5 5 8 5 5 1 7 a ' &.x ' ' ' &.4 a 6 6 5 a x A y A 7 y a a a D 5 ,.q 5 a 5 5 1 7 a a ' D ' ",
"% y > = = > > > 4 9 4 > 5 > > 4 5 $ y 4 3 3 > > = 5 = > a > a 4 5 M > > > = > > 4 > 9 5 > 5 > > 4 4 4 Q 5 > 5 > > ; 4 4 > 1 1 5 ",
"% g 4 1 8 a y a a 1 8 a D y D ' a - D a M x 6 5 5 5 s y a p u.a 9 ^ > 1 1 1 a M a a 1 5 a y y D ' 0 5 u.0 x x a 5 6 5 5 0 q a Q ",
"@ 7 ; 5 D D ' D ^ 5 7 0.p &.{ a X $ > 4 &.6.y y p 6 a a s y &.a > 5 >   4 y D 6.D s a 7 A g D &.6.  > D # a d.D a 8 0 5 a a a <.",
"- 0.x > 4 5 5 > > > > 4 > 4 5 5 a $ u.x y 5 > 5 5 > > 1 4 > , , p u.4 y 4 > 9 5 2 3 & > > 2 > 4 4 a 1 p.&.5 a 3 3 4 > & = 4 > , ",
"% u.a 4 D a 5 a 5 5 1 x a 4 4 5 a o a a a 9 4 y 5 5 4 , 5 5 a 5 5 x 5 l 4 y y 5 a 5 4 5 q M 5 4 4 a > D a 8 D 4 a 9 5 4 4 5 6 0 ",
"- d.D a D y s D D A ' 6.&.y a a D o s a D p.y ' &.^ y 0 k s M a y d.5 ' a A y D D Q x ' { 8.D q a y 4 &.a y 8.a D D D a a s D s ",
"% g 1 5 5 4 4 5 5 5 5 1 0 9 4 4 a $ 6 , a D a y ^ q <.3 5 , 3 3 0 ' 4 4 5 0 4 5 4 5 5 5 4 a 0 4 4 5 5 D , 5 a 9 5 y a ' 6 5 3 3 ",
"- { 4 5 5 4 4 a q 9 9 5 5 5 5 1 y $ 5 4 9 a ^ 5 a 5 &.g 6 , 3 4 4 u.4 5 7 a , 4 a 5 a 0 1 5 5 4 4 q 5 g > a 9 a a 9 5 &.a y 3 3 ",
"% p.x &.a a a a y a g.&.y 8 a a &.$ y a q a &.a k 2.y D 8.a a a D 6.5 x &.g a y q g q 6.0.D a 8 a y 9 Q a a 8 y y y p.a D &.D a ",
"X a > 5 4 4 q a 4 a a y 1 4 4 > 5 $ 5 > 4 4 5 5 6 5 9 9 6 1 > 4 & 5 > > 4 5 4 5 a 1 5 a a a 1 4 > 4 > { > 4 4 4 5 6 5 5 9 5 9 > ",
"X 8.> 5 4 > 5 7 5 0 0 5 1 4 4 5 = $ 5 > > 9 4 0 5 5 a 9 5 1 1 1 > 5 5 # 4 4 > 4 5 5 0 0 4 6 > > 4 $ > 0.& = 5 9 5 5 5 0 9 5 5 1 ",
"  5 5 5 4 4 5 5 5 9 a 4 4 5 4 5 4   q 5 5 a 9 a 9 4 5 5 q a a 4 5 2 @ 9 9 4 4 5 4 5 5 9 5 5 1 4 4 5 O 5 9 5 a 9 a 9 5 4 9 9 a a ",
"% 0.4 A 3.Q A ^ &.6.{ D u.6.&.q 4 $ x D c.d.u.&.D g ^ &.&.l.&.D a D 5 > q 0.Q A D { &.u.A 0.u.&.A 1 4 u.4 c.z.u.0.s D k &.Q d.u.",
"% { 5 > 4 > > : > > > > 4 > 5 5 7 + ^ M a 9 5 5 > = = > > 5 > > q D 4 5 > 4 > > : > > > , > , 4 5 q 5 l.^ a 5 0 5 4 = = > > 5 4 ",
"X y q 9 a 5 a 4 a 4 5 5 5 5 a 1 5 % A x a M D D a 5 4 1 5 a 4 4 5 a > q 5 y 7 a 5 8 5 4 5 5 5 y a 4 5 d.a x x M D a 8 5 4 5 a 4 ",
"$ Q a A a p y y D &.D A D s ' g a % 0.^ &.&.&.^ a a ^ a g D D p a &.> a A a p a y y D 0.y ^ s D { a 5 u.' { &.&.8.y a M A a g ^ ",
"$ D 4 5 > > 5 5 9 y 9 q a 5 4 4 5 % a 4 0 5 9 5 > 4 > , 5 9 5 4 4 y 4 > 9 > > 5 5 4 a a 4 ' 6 a 5 1 5 ^ 1 0 5 5 9 > 4 4 4 4 9 0 ",
"@ ' 4 4 5 0 4 0 y x 5 9 5 , 6 4 5 $ 5 4 9 0 0 4 > 4 3 , 4 0 5 , 4 a 4 4 4 5 0 4 5 a a y 5 a , 5 0 > > D 4 9 5 0 9 > , 5 2 , 5 0 ",
"$ g.a x &.D D &.M D x { D a a a g $ k a a M a a 5 6 6 a a a a p a D 5 y M y ^ D ^ M x ' 6.6.D g a a 4 { p a y a a 7 a 5 a a a a ",
"@ { 5 a M a 5 y 7 5 a x a a 5 4 4 $ 5 5 5 a 4 4 4 4 5 5 q 6 5 5 5 a > 5 a x y a a 7 4 5 a ' a 9 4 > > D > 5 q 5 1 4 1 1 5 5 5 5 ",
"X D > 5 M a 4 a 4 6 5 a a 5 1 > & % , , a 5 3 4 4 > , 5 a 5 4 5 > a 1 # 3 D a 5 5 4 5 a a M 1 4 > o > D & 4 7 5 , 4 4 > 5 a 5 4 ",
"% &.a a y 0 y 5 4 5 5 5 8 5 5 0 a % p.&.g 6 3 0 6 3 5 a x a &.5 a ' 4 p 7 y 6 y 5 4 > 5 a 5 5 5 5 M > l.^ D y 6 5 a 5 5 q x y A ",
"% &.y a q a y 7 a 6 5 0 5 5 6 6 6 % ^ ^ a 0 5 3 5 3 5 x y q D a q ' 4 g a 5 5 a 7 4 5 a 5 6 4 5 6 6 > l.M x a 5 5 5 3 3 y y a y ",
"$ D 1 4 0 4 a 2 y 4 , , > > > , 5 $ y 5 3 5 > > > ; > , 4 > a 5 > a 5 4 , 5 4 a 9 6 a , , > > > , , > u.5 4 5 3 > ; > ; , 2 2 5 ",
"X 8.y g a a y a l 9 5 a a 6 a 5 a $ { a a D g y 3 5 a a 1 5 y x a y 5 a 8 y a a D ^ 9 5 a a a 6 0 6 > 0.a a D D y 3 5 5 a 5 1 a ",
"% c.u.A D a a ' ' a x ^ x ' p.x y o A x &.&.u.&.y M y ' g 7 D ' ' &.5 p.&.' y a ' ' a A D ^ D 6.' y > { x ' &.<.0.a ' y D y a y ",
"% Q D a a 4 > 4 0 D 5 ^ 0 5 9 4 a o a 4 5 p p 5 a 5 9 a 8 > > 0 5 a > a y x 4 5 > 0 D a x x 5 0 4 5 , D 4 5 5 k 9 9 0 5 a a > > ",
"o D 6 D 5 5 5 5 a D 5 M a 5 5 4 > $ 5 4 6 a a a y a a y a 4 4 a 4 5 , 5 ^ q a 5 4 a M a y a a 1 1 > , D > 5 6 p a a a 9 y a 1 4 ",
"X s 1 a y y a a y M &.D A a y y > $ 5 a ^ >.a a A A D { A q a A 5 6 5 # 5 a y y p a M 6.' A a a y > 4 { > y >.y a y &.a A { a a ",
"X D 6 5 5 a a 8 x y D y 7 5 a a A ; 6.M 0 y a q a a y y y q D y y k 4 s 8 5 8 y 5 y y M y y 5 a a x 9 l.D a s a a 9 x q y x 5 A ",
"O a , , 4 5 5 4 5 4 a 1 5 5 9 q 9 > y 0 5 5 M 9 0 4 4 a a 5 1 1 5 5 4 , > 1 4 4 5 6 5 5 7 5 5 0 a 5 5 p.0 0 5 x 9 9 5 4 9 a 5 5 ",
"$ 0.5 a y D ^ y a q q 1 a a a x q % 0.a a p.a q a 5 5 a a a &.a a D 5 7 5 s g D D a a q 5 q a a A q 4 g.x a 6.A a q a 4 q a 5 a ",
"% { a a y 5 ' D x q q 5 y a y D a % A 5 5 y a 7 1 5 y a x y ' &.' 6.4 5 0 D 5 y ^ y a a 1 y y y y A 4 <.5 5 p 8 a 1 5 q a M a y ",
"- A 1 1 1 3 9 0 a D a 4 q 5 5 a a $ a 5 5 5 5 4 4 a 1 5 y 5 ' D y ^ > 5 4 4 3 5 a 7 y A 4 9 5 5 5 q 4 { 0 4 9 4 4 4 8 7 5 A a y ",
"- { 7 4 5 6 6 5 5 4 5 a I 7 a ' ' % d.x a a 5 5 4 4 5 5 a 4 y y a 6.> a 4 4 6 6 9 5 5 5 8 y a a k x 5 d.M y a 6 5 3 5 5 5 q a 5 ",
"$ 8 > 4 a a x y y 1 5 A a g A a > % 2 5 x x 0 5 5 5 5 6 6 0 u.a > a > X 4 7 a D y a 5 4 a a y A ' $ > ' ; a ' a 5 5 5 , a a a <.",
"% g 5 4 a a a 5 5 1 4 9 4 a a 5 > $ a a ' a 5 9 4 > > 5 6 5 5 5 9 ' 4 > 5 5 a y 5 9 4 4 5 1 5 a a : > 6.6 a ^ 5 5 4 4 > 5 7 a 5 ",
"% 8.0 4 D a q 9 5 5 4 a 5 5 5 4 5 o p a s a 4 a 9 4 4 4 5 6 0 5 5 A 5 a 4 a x a a 9 4 1 5 y 5 1 5 5 > D a a ^ 4 0 9 a 4 5 8 6 6 ",
"% p.D 7 D y p Q y x x 6.' q 7 a s X y a y D a D a a 6 0 s k M 0 p 0.5 ^ a A y p D k a A D 6.a 5 7 y > ^ a a ^ 7 A y D 8 a a s y ",
"% { 5 q y a a a y a y a x a 7 q y $ a 5 a D 5 y ' y k 6 a 6 6 6 a 0.4 5 5 y a a 6 y a a a ' y 7 7 a 5 ^ 5 a M y q M 6.y s 6 0 6 ",
"- D 1 5 1 > > 5 4 5 5 4 5 5 4 4 y $ 5 1 0 a a 0 a 0 u.6 5 > , , 4 &.4 4 7 0 > > 5 4 5 5 4 5 5 4 4 5 5 g > 5 a x y x a u.5 6 , , ",
"; &.7 a a 5 5 a g q x a a 5 5 5 A $ a 7 a 7 x 8 a y a D D 6 0 6 x p.5 7 y a 5 5 a g q y y y a 5 6 q 5 D 5 a 5 x D y ^ q y ' a 0 ",
"X D 5 y 7 q a a 5 a p.^ 5 1 5 5 a $ 5 4 1 5 a a p y a a y 6 5 6 > a > 5 a q 5 a a q q 6.&.a 5 1 5 5 4 D 4 5 1 5 s 8 s a a y a 5 ",
". y % 4 > > 4 5 4 5 5 5 1 4 > > & + 3 & > 5 > 4 5 , 5 5 4 > > > % , > X > 4 > > q 4 4 0 4 6 4 > > o > { % % 4 3 5 5 4 3 5 4 4 > ",
"  0 > 4 > > 4 5 4 5 9 > 4 > 4 4 4   a > > 9 4 0 5 1 q 5 5 9 5 > > > % > 4 > > 4 4 5 5 9 4 4 > > , > O 9 > > 5 5 5 5 4 5 9 5 5 a ",
"@ g a A A g g s D A D A { 6.Q 7 y X p.' l.6.&.&.A a g D D 0.{ Q A x % A a A A A y A x D g { 0.{ a A % ' A d.p.{ 6.g g 8 k D 6.6.",
"$ { > 4 5 4 4 4 5 5 4 4 9 5 5 5 > $ a y M a a 5 > > 4 5 5 a 4 4 4 a 5 $ > a 4 4 4 1 5 5 5 5 5 5 5 % > 6.> &.a a 5 4 > > 5 4 a 0 ",
"$ A q > 9 > 5 > > > , , 1 , 5 5 7 $ &.0 0 a y y 5 4 > > 4 a > > 4 a > a > 9 4 5 > 1 > > 3 4 , 5 5 1 4 0.a 0 0 a y a 4 1 , > a , ",
"$ H 7 A a p y a Q y y y a s &.g g > { ' ' &.0.D a 8 x q p y p 8 a D > q a y p a a g y D a y a D a 7 4 d.' &.{ &.6.y a a a a p y ",
"$ A 5 a 4 5 5 q 7 a q a 6 a 5 y 7 % A 9 a a a a 4 5 5 5 a a 6 5 1 ' 4 4 a 4 4 5 q 5 a A 5 D 6 5 q 1 5 2.5 a q a a 5 4 5 5 a a a ",
"o x > 2 > 3 2 5 0 y 5 q 0 5 5 4 4 $ 5 , 5 5 5 > > > > > > 5 5 > > a 4 > 2 2 > 4 4 5 a y > a > 3 > > 1 k > 5 5 5 4 * > > > > 5 0 ",
"$ d.5 a { y y M M ' y ' &.a a 6 q $ y 8 q x a q 1 6 5 6 5 a a a 8 D 5 a a a ^ a M M M y y &.a q y 5 4 Q a 8 a a a 1 5 6 5 5 a y ",
"$ p.y D &.D ' D a y D u.M D y a y $ y a y y a 8 8 5 8 a a a a 8 a D 4 M ^ D ' &.' y 1 D x ^ y y a a 4 &.8 y y a 8 8 a 5 a p a a ",
"X D > 5 5 a 4 5 * , 4 0 a 4 > > ; $ > > > 5 , > > * , 4 9 5 > > 5 a > % 3 0 0 4 5 > 1 4 9 a 4 4 > $ , D % > 5 4 > > > > , 5 5 > ",
"$ ^ 5 5 u.y 6 5 4 , 5 a a 5 4 5 , % a a &.6 4 5 5 5 5 5 y 5 a 5 4 a 4 > 1 u.a y 5 1 4 a a M 5 5 5 > > u.5 y y 5 5 7 5 5 5 y 6 q ",
"% &.D y a a g a a 4 6 a a 0 0 a s % d.l.y a 0 0 8 5 6 ^ { g x.y x &.5 k x a a y 7 a > 0 a a 0 0 0 M > c.p.^ s 0 0 6 6 3 D { D 0.",
"% D 5 5 4 2 5 1 y a > , > > > , 5 % M 5 4 4 > ; , ; , 4 5 > 4 4 > a 4 5 4 4 4 4 > a s 5 > > > > , , > p.5 5 5 > > > ; > 4 4 5 > ",
"@ &.> a 9 5 a 9 a 4 , 4 4 , 5 , 5 $ y 5 4 5 > > > , 5 > 2 > a 0 4 a 5 4 1 5 5 4 a a 5 , 4 , 4 , , 3 > &.4 5 5 4 > ; , 3 3 > > 5 ",
"$ c.D y 6.y ' 8.^ x a ' ' ' 0.A y O 6.' { g.c.g.a D y u.a q { 6.{ D 5 6.D &.D A 6.8.x A D ' &.{ { x > 0.{ ' g.c.c.a D y &.g q A ",
"$ &.6.g x a q a y D y ^ a y y a a o y 9 a a y a M a a a y 4 5 x a D 1 &.g 6.5 5 a y y A M ' a M a a > ' 5 y 7 y a a l 0 a a 5 5 ",
"$ p l 5 5 > > > 6 D > M 5 > 4 > 4 $ 5 > 4 6 a 4 5 4 5 9 4 & > 5 4 5 1 5 a 4 5 4 > 5 x 5 a 5 2 > > > , A > 4 5 p 5 5 5 3 9 5 = = ",
"c.C.m.S.F.Z.C.C.S.C.Z.Z.F.Z.C.M.n.c.m.M.Z.Z.Z.F.F.F.S.F.F.C.N.C.m.M.m.n.Z.D.Z.Z.C.Z.C.F.Z.Z.F.C.N.v.m.B.b.C.Z.A.F.F.F.V.F.F.C.C."
};
