/* XPM */
static char *_c47a5d8eabe427bc5de8b130dd7f3a9zL5zvrAANQ51Hd0Z[] = {
/* columns rows colors chars-per-pixel */
"64 64 162 2 ",
"   c #5D5C5F",
".  c #646263",
"X  c #696464",
"o  c #6B6865",
"O  c #6A6768",
"+  c #6C6C6B",
"@  c #716E6E",
"#  c #6F706F",
"$  c #71716F",
"%  c #6C6F70",
"&  c #726F72",
"*  c #6F7171",
"=  c #757474",
"-  c #797576",
";  c #767876",
":  c #797977",
">  c #777778",
",  c #7A7679",
"<  c #777978",
"1  c #7C7C7C",
"2  c #807E7E",
"3  c #7E807E",
"4  c #81807F",
"5  c #7F7E80",
"6  c #817F81",
"7  c #7F8181",
"8  c #858784",
"9  c #848685",
"0  c #868684",
"q  c #868784",
"w  c #868785",
"e  c #848586",
"r  c #848587",
"t  c #858587",
"y  c #848486",
"u  c #858686",
"i  c #858786",
"p  c #858687",
"a  c #848787",
"s  c #868686",
"d  c #868786",
"f  c #878687",
"g  c #868787",
"h  c gray53",
"j  c #868584",
"k  c #838384",
"l  c #888585",
"z  c #888586",
"x  c #898787",
"c  c #898586",
"v  c #848886",
"b  c #858887",
"n  c #868886",
"m  c #898987",
"M  c #898987",
"N  c #838588",
"B  c #858788",
"V  c #868688",
"C  c #868788",
"Z  c #878789",
"A  c #86878A",
"S  c #868688",
"D  c #888689",
"F  c #898689",
"G  c #888789",
"H  c #88878A",
"J  c #89878A",
"K  c #858888",
"L  c #858988",
"P  c #858889",
"I  c #878989",
"U  c #878B8A",
"Y  c #878A8B",
"T  c #878989",
"R  c #898889",
"E  c #8A8888",
"W  c #8A8989",
"Q  c #8B8989",
"!  c #888A89",
"~  c #898A89",
"^  c #8B8A89",
"/  c #88898B",
"(  c #89898B",
")  c #8A898B",
"_  c #888A8A",
"`  c #898A8A",
"'  c #888A8B",
"]  c #898B8B",
"[  c #8B8A8B",
"{  c #8C8889",
"}  c #8C8989",
"|  c #8C898B",
" . c #8E8A8B",
".. c #8E8B8B",
"X. c #8B8C8A",
"o. c #8B8D8B",
"O. c #89888C",
"+. c #89898C",
"@. c #8A898C",
"#. c #8A888D",
"$. c #898A8C",
"%. c #898B8C",
"&. c #898B8D",
"*. c #8A8A8C",
"=. c #8A8B8D",
"-. c #8B8B8D",
";. c #8C898D",
":. c #8C8B8E",
">. c #888D8C",
",. c #898D8C",
"<. c #898C8D",
"1. c #898D8D",
"2. c #8B8C8C",
"3. c #8B8D8C",
"4. c #8A8C8D",
"5. c #8B8C8D",
"6. c #8A8D8D",
"7. c #8B8E8D",
"8. c #8A8C8E",
"9. c #8B8C8E",
"0. c #8B8D8E",
"q. c #8E8D8C",
"w. c #8C8C8E",
"e. c #8D8C8E",
"r. c #8C8D8E",
"t. c #8C8C8F",
"y. c #8D8C8F",
"u. c #8D8D8F",
"i. c #8E8D8F",
"p. c #8C8E8F",
"a. c #8C8F8F",
"s. c #8D8F8F",
"d. c #8E8F8F",
"f. c #8A8A8B",
"g. c #918F8F",
"h. c #8F908F",
"j. c #90918F",
"k. c #8D8E90",
"l. c #8D8F90",
"z. c #8E8E90",
"x. c #8E8F90",
"c. c #8E8E91",
"v. c #8F8E91",
"b. c #8F8F92",
"n. c #8E8E90",
"m. c #908F92",
"M. c #918F92",
"N. c #908E92",
"B. c #8F9090",
"V. c #8F9190",
"C. c #8E9091",
"Z. c #8F9191",
"A. c #8E9191",
"S. c #909092",
"D. c #919093",
"F. c #919193",
"G. c #919394",
"H. c #929294",
"J. c #979896",
"K. c #959598",
"L. c #98969A",
"P. c #99999C",
/* pixels */
"( k G ..k k 7 0.Z w.C.K ( 0.X., : l 1 1 k 0 f k Z -.D.m.f k f N f + y G ....7 7 ( k w.c.K 7 w.C.4 : , , 1 3 0 k k k G D.w.( k k ",
"w.:.G ..w.( f ( b c.-.K ( f f ( : ..k k 0 ( ( ( 0.-.w.K k f -.Z w.= -.:.f w.0.f :.k -.c.w.0.C.f 0 4 , k k k f -.f C.( w.b G k -.",
"Z 6 1 1 k , , 1 ; 1 k , , = = = ; 4 = = = , , = , = , = , 1 , , 5 = 5 1 1 k 1 , , = = 5 5 = , = = ; = = = = , , , = = > ; = , , ",
"Z k 2 f f k 1 k 1 k f 1 3 k k k 1 w.1 l m f w.f y 1 3 ; k k f f 3 + Z 1 y -.k 1 k , 1 7 f 1 f k k k 1 3 2 ( f ( Z y k 7 < 1 k k ",
"k f 4 f 0 0.k X.( 0.c.w.w.c.D.c.k 0.( l f k m.w.c.0.K f 0.K -.G.0.+ f k 0 b f k k f -.0.w.0.c.D.c.-.1 f l ( k ( c.w.0.0.k 0.K -.",
"k k , 5 1 , 1 1 1 , 3 1 1 ( k k k k : = = , 1 , 7 f 1 1 1 , , 1 f O k 1 1 1 , , : 7 ; 1 k , Z k k y = , = = , , 1 1 k 7 < 5 , , ",
"K y Z 5 k 1 2 1 , , 1 1 1 f 5 k k f < = 1 2 1 1 , = 1 k f 7 0 ( ( % ( k k 6 , , , = 1 1 1 , f k 5 Z , , ; : 2 2 1 1 = : k y k k ",
"k O -.P.w.f f k 1 k f l w.D.k . 5 = @ k ( X.c.w.m 3 k D.b h.w.1 + + O k G.C.f k k 2 k f f ( H.k & , = . 1 ( ( c.:.w.k k X.( w.c.",
"( -.( m.k 1 1 = = = 3 , , , 1 ( k X.y < 7 7 7 , , = ; 1 ; 1 5 1 f + w.k w.k , 5 : = = , , , , , ( -.1 Z < 1 k 5 , , = ; 1 , 1 5 ",
"1 1 , G # , , > # # = = , = = , k G , = f , < , = < = k < * * = 2 O : , 2 , = , = = # = = , , = = 1 5 5 = k 1 = , > = = , 1 = * ",
"k k f D.k -.( ( 4 l l ..l z f w.k G.( k ( b ( X.K K -.D.-.k k k ..O k 0 ( -.b -.b f k z ..( G k ( 0.k w.k K f m X.( K ( c.c.K 7 ",
"k 2 f c.( f m.c.D...y y 6 k y D.k ( k K f f 0 b Z f f ( ( K k k c.O k k -.c.k ( D.-.K.z y 6 y k :.( 1 k K ( 0 f f ( k Z f :.( k ",
"1 = , , 1 6 , , G 1 1 = = & = 1 k k = = , = = : , , < = > = = ; k O = = , , 6 , , 1 m 1 - & = = , Z , = : , = = 1 ; , , = , , , ",
"1 , 1 ; 1 1 1 ..1 5 f y , , 1 k k ( 1 k 1 , , 1 3 1 ( k 1 1 : 3 K O , , < , 6 , k f 1 k f 1 , , k f 1 1 k 1 , 1 , 7 1 Z k 1 : : ",
"k 1 k 3 k y l l k Z ( ( k 2 2 , , f k K k k K K k ( D.g.k k f f ( # , 3 3 7 k 0 l k ( ( ( 0 2 k = , = 1 f k k K K k f c.D.m k 3 ",
"f + $ 1 6 1 5 1 5 k 1 1 1 , , X < k @ 1 ; ; 1 7 1 5 k 2 , 3 : 1 = + & = , k 1 k 1 1 y 5 5 1 ; , @ = , + , 1 ; 1 k 1 6 k 1 1 : ; ",
"> k < 1 , , 5 , ; 1 1 5 k , , 1 O k 5 < = = < , , 1 1 = ; , = 7 1   k , , 5 , 5 , = 1 1 1 k 5 = 1 = * k 1 = = < < , , 1 ; ; ; = ",
"-.k P.L.G.D.( X.m h.X.G.G.w.0.k 7 -.7 C.0.X.U ..0.C.X.D.K.K.G.7 k + Z G.L.K.D.w.( b w.w.C.K.w.0.Z k 1 7 b C.0.( o.w.c.C.( D.G.C.",
"K 6 ( k f k 1 = = , : 7 5 : 1 = k K ; 1 1 , ; ; , < 2 , k , 5 1 1 O y G f y k k , = : : 5 k , = 1 k 1 , = 1 , , ; 1 , , , 1 1 1 ",
"f y k k Z ( k 1 , = : 3 , < , 1 1 k 7 1 7 1 5 : 4 1 1 2 1 1 1 1 k + y y k Z K l 1 1 = : 1 1 = , 1 1 ; 7 , k 1 k ; 1 ; : , , , k ",
"( w.c.w.w.G.l k ( ( f ( ..l k ( , U k ( 0 0 K ( 0.K.K ( m m 0.b m = 0.w.D.C.D.-.0 f w.k ( ( ( 0 b f < k K 0 f f f K C.0.K ( l w.",
"k 1 y 6 k k , 1 , 1 5 k f 2 1 k 1 k 1 1 ; 1 f k k 0.k K k 2 3 1 k + k k k k k 1 , , 1 1 y f k 1 1 k , , k , , 1 k 7 Z f 7 -.2 2 ",
"1 = , > 1 , # = = = & > 1 = = , 1 k = > > , , 5 k ( = 1 , = , = 1 O = = , 1 1 = @ = = = = , , = = , , = = = , , 1 k k 5 > 1 = , ",
"7 4 1 k 7 1 1 1 , , 1 7 k 1 4 f , m.1 k Z f f y ( k k -.f 5 1 2 k O 4 2 7 k 6 1 , 1 , 1 1 7 4 4 1 k 6 k k k f f w.-.f f f ( 1 1 ",
"f k f ( b k k f 4 l f f f 0 l f 5 m.-.:.L.D.:.( k k -.c.G -.f k f + k f Z ( 0 4 k 4 0 f K f 0 0 ( k 1 G m.c.G.( w.( 1 ( -.:.( ( ",
"4 X , 7 1 , ; , = , k 1 , , , . 1 , + 5 w.b 6 , = , 1 y y 1 , @ @ + X = k 5 , : ; = , 1 k , , , @ = = O > Z ( 6 k = , , k f 1 1 ",
":.( k k , = , = = ; 6 1 1 1 , 7 k ..0 7 f k , = = = = = , = = 6 z & -.( k , & , = = = 1 1 , k = 7 k , 4 k f 1 k , = = = = , = = ",
":.O.( y 2 1 , , , f ( f f ( 7 3 k o.X.7 k , k 1 2 1 2 k , 1 2 6 k = G m.k 6 2 , 1 , k ( K k w.k 7 k 1 m Z 7 y k 1 1 1 1 2 2 1 2 ",
"( k 6 6 6 : , , - 1 1 5 1 ( 1 1 Z :.k f k 1 k 1 ( 2 , , , , , 1 k + y k 1 6 , , , = 1 1 5 , f 6 1 k f 4 k f k 6 1 f l , 1 , , , ",
"k 5 6 k f 1 , , , 2 , < , :.5 1 1 w.1 k , , 1 6 6 , : 1 1 , , , k O k 6 1 f 4 1 , , 1 , ; , f k 1 1 6 k k 1 , , 6 y 1 , 1 1 1 , ",
"7 k f -.j.C.2 y 6 k k 3 1 -.-.-.k K.( 3 k 1 7 ( f k k G f f ( k k O k k K w.D.( k y k f 3 1 f Z -.f G -.4 k 1 1 ( G 7 k f Z f ( ",
"k 5 k k o.k k Z 5 Z f 1 ; Z f Z 1 -.( f k 1 < k Z 0.k m.k f k 6 f O k 5 k ( f k Z 6 f Z k ; 1 k 5 7 k G ( f 1 1 1 f ( k n.( k f ",
"1 @ 1 1 0 k k k , k f 1 = 7 k = , 1 1 k 1 1 , 1 y G 1 f k 1 1 = , O = : 1 4 k k k 5 k f 1 ; 1 k = ; : = y 1 , 1 , 6 G 7 f k 1 1 ",
"k = k ( f 7 k ( k f -.k k k f o : 2 $ 1 0 k k 1 y G ( f k 1 4 5 , O = k G l 7 k K f Z f 7 3 k k = = : + < 3 k k 7 k Z -.f k 7 1 ",
"-.-.f l f k 7 -.k G Z b w.( ( k : ( k 1 4 f f 0 K -.-.w.k k Z k w.= -.G k G k 7 ( k :.( ( K D.w.0 1 , k 2 1 f f k ( G :.( Z k f ",
"( 6 6 6 G k 5 1 ; 5 5 k 7 ; : 2 ; k : , 1 1 1 1 1 , f , 1 6 k k k = 6 k 1 k Z 1 5 = k Z k 7 1 , , , = , , , 1 1 1 1 , k 3 1 1 6 ",
"K Z k Z Z k 5 5 ; 1 k 1 k 1 5 1 1 X., k k 0 G 7 1 1 1 < k k 7 k 7 + K 6 y w.k 1 k , 1 f k k k 1 1 1 1 1 1 k 0 f k 1 1 1 < 1 k 7 ",
"k k 4 f k f 1 4 7 f -.Z f ( ( K k ( k ..l k C.( Z 7 k 7 K Z ( 0.f + k 1 k f f 7 3 k ( -.( Z Z ( Z f 1 k y :.k ( w.Z k k 3 f K Z ",
"k k , k 1 , , 3 k 1 f k k -.-.Z k f 1 , , , k k f 0.7 1 7 1 3 k Z + k 1 1 1 1 k 1 K 1 K k 7 ( K G Z < 1 , , , 1 k f K K 1 k 1 7 ",
"K y k 5 , , , ; : , 1 , , k 5 k k f , = : , , , , ; 1 5 k 1 3 f ( + -.k 5 1 , 1 1 1 1 1 1 ; k 5 6 f < 1 = = , , , , < , 1 k 1 1 ",
"k > f G Z 1 6 2 , 6 k k X.D.k , 5 3 : 1 k f ( G 0 , 3 X.f ( 0.k k * , 7 Z f k k 2 6 2 6 6 k J.k 1 k = = 1 k y ( G ( 1 1 f f ( ( ",
"( 1 K G.y 2 k 1 , 1 0 2 2 2 k , 7 7 , 1 f f Z k 1 , 1 f 3 Z f 1 , + 1 Z L.w.k f k : , k k 6 4 1 5 k ; = 1 k K ( k k , 1 k 3 f K ",
"4 k , -.= , , > = $ = = , = , 1 k G , = k 1 , , = = = 1 = > < = 3 + 1 1 ( k 1 k > = $ = = - , = , 5 5 5 = 1 5 1 , , = = , , < = ",
"2 2 4 G 1 f k k , 1 2 0 k 6 2 f k c.f 1 ( k k f k k k w.k 1 1 3 l O 2 2 f ( 1 k 1 1 1 2 k k z 2 k f 5 G 1 f k 1 f k k k K ( 7 < ",
"k k f c.K b c.D.K { G f f z l G.7 w.k K -.( ( ( -.( -.w.w.K k K w.O k k ( D.k -.D.-.( z m l z z w.0.1 f k :.m ( f ( -.0.( m.-.k ",
"1 = 1 k k k y k D.k 6 , , , , f k f 1 1 1 : , 1 1 1 1 , 1 1 1 1 G O , , k k k 5 f k H.2 , - , , 1 Z 1 , 7 1 : ; 1 , 1 1 , 1 1 1 ",
"1 = 1 < 1 1 , 2 , 1 k 1 , , , f k k = < , = = 3 k , 1 , , = = = f O , , , , 6 , 1 , 1 k 2 , , , 6 ( , = 1 , = = 1 3 < 1 , , , = ",
"k 1 k 1 2 k 0 o.k f ( Z 2 1 6 1 1 ( f K 7 k k k 1 f G.w.4 1 1 k ( + 1 k 1 1 k k l l f Z ( k 1 2 1 1 , k K k k k k k k D.w.k 1 3 ",
"k + = 1 6 2 k k 1 k 7 k 1 , , . = 1 + k 1 1 k f 1 k f l 1 3 1 = = + + = 1 k 1 k y , y k k 1 , , X @ = O , 3 1 1 K 3 6 f y 0 3 1 ",
"5 , ; 7 k k k k k f k k f 3 , = * Z 1 1 , 1 7 k k y y 1 1 , , 7 , . 7 : 1 k 5 f 4 2 Z k k f 7 1 , = , 1 k , , 1 7 k k f 1 1 ; 1 ",
", Z :.c.K -.f k 3 0 k -.-.( f -.& k k k 7 k k y f Z f k f ( k 7 7 . -.Z c.-.-.G k 3 f k Z -.-.K Z 1 = Z k 7 k k k f k f k Z ( 0.",
"G = D.Z ( f , 1 , k 1 Z f 1 1 + k k $ k 7 3 1 1 k k 1 5 k 7 k < $ + , w.( G f 1 , : 4 2 f ( 1 1 = 1 , + < k 1 1 1 7 7 4 1 k y K ",
"f f 1 1 k k k = = = = 1 , = = 1 5 k 7 = 1 = < = = = = = = = 1 , k + Z 6 1 6 k 0 , = = = , 1 = = 1 7 < k = 1 = , # = = = , , , k ",
"( :.c.-.0.G.f 0 f k k f k k k k , K k K f k Z k w.( f y f m ( k b = ( c.w.:.D.( f f f 3 0 0 k 4 f 7 ; 7 b b f K k X.w.( b l l w.",
"K f ( f ( -.k 3 k k k Z :.f 3 b 1 b k f 1 4 f f K 0.k 0.f f f k b + K Z ( ( ( Z 1 k k k ( ( l k k f 1 3 K 3 4 k f b 0.C.K w.l k ",
"2 = 1 , 1 , $ = = = = , 1 , = , 1 7 = , = = , k k 0.1 1 , , , = 1 + = , 1 , , = = = = = , 1 , = = 1 , = > = = < 1 5 k k 1 y = , ",
"3 , , < 1 , = = = = = , 1 , , 1 1 -.< < 1 , k 1 y 7 , 6 1 = , , 1 O : , ; 1 , = = = = = = , , , , 1 5 < , , 1 = 6 Z k k , k , = ",
"k m ..w.( b b m k l ( ( b b ( w.1 K.w.c.G.m.K.0.w.K c.K...-.( ( w.+ ( m ( 0.m m 0 0 l ( ( m b m ( f k c.G.G.m.D.c.( f K.w.m.( X.",
"k @ , k k , , 1 , 2 k k 2 , 2 = 1 k , f -.w.k f , 1 k O.Z k 1 = = + = = 3 k 1 1 1 = 2 k f 2 , , 1 1 , > 5 f ( f Z ; , 1 G -.k k ",
"f & k 2 - = = = = = 1 , = , , + 5 k = 1 ( k , = = = = , , = = , - + = 2 0 , = = = = = : , = , , = , , @ = f 4 6 = = = = - 1 = = ",
":.-.( y 1 1 1 , , k G f 0.K 5 7 y ( ( 3 f y k < , , 1 2 1 1 1 6 f & -.G.k 2 1 1 , , 2 G f k D.7 k k 1 f k f k ( 3 , , , 1 2 1 1 ",
"-.Z f y 6 , , 1 , f k f 1 f 1 7 f ( ( G f 1 k 1 ..k 2 k , 1 2 2 k = G G k k 1 , 2 , k f f 5 k k 1 k , m ( k G k 1 f l 2 2 1 1 2 ",
"f , 1 , , = & = - , = < , f , , k -.1 1 , > , , 6 = , = , , , , 2 + 1 , > 1 = = = = , = = = y 5 = 1 5 , 1 5 5 = 1 6 , , , , , , ",
"k Z f w.J.G.6 k k f k 1 7 ( Z f 1 G.( k k 3 f ( Z k 2 Z Z k Z k 0 O Z f b D.K.w.6 y k ( 1 1 K -.f k Z -.f K 3 k ( O.k k f Z f f "
};
