/* XPM */
static char *result[] = {
/* columns rows colors chars-per-pixel */
"64 64 233 2 ",
"   c #1C0709",
".  c #12121B",
"X  c #150D13",
"o  c #22070C",
"O  c #2A0B14",
"+  c #380A15",
"@  c #25151A",
"#  c #371517",
"$  c #32200E",
"%  c #171B24",
"&  c #271B27",
"*  c #391926",
"=  c #1D222D",
"-  c #1E2532",
";  c #1D283C",
":  c #202634",
">  c #252A35",
",  c #36353B",
"<  c #332930",
"1  c #4C091A",
"2  c #590A15",
"3  c #491117",
"4  c #4F0D13",
"5  c #720E1B",
"6  c #582B1A",
"7  c #4E2F14",
"8  c #6A3C17",
"9  c #723012",
"0  c #530622",
"q  c #431926",
"w  c #5E1F2A",
"e  c #691B29",
"r  c #700E24",
"t  c #562926",
"y  c #4A3229",
"u  c #583328",
"i  c #513435",
"p  c #723232",
"a  c #784614",
"s  c #6E4717",
"d  c #564336",
"f  c #5B4129",
"g  c #283144",
"h  c #353A48",
"j  c #323E54",
"k  c #6B394E",
"l  c #572F42",
"z  c #38445A",
"x  c #42434C",
"c  c #424347",
"v  c #474755",
"b  c #515159",
"n  c #524C5E",
"m  c #59596B",
"M  c #4F5260",
"N  c #67546B",
"B  c #6F4F6B",
"V  c #63646E",
"C  c #686777",
"Z  c #77667B",
"A  c #74747E",
"S  c #694951",
"D  c #982B17",
"F  c #8B340C",
"G  c #B32D0C",
"H  c #881627",
"J  c #941F32",
"K  c #920C2A",
"L  c #A40835",
"P  c #B7053E",
"I  c #A70F32",
"U  c #882535",
"Y  c #98283A",
"T  c #84202E",
"R  c #A2293E",
"E  c #C42D0C",
"W  c #D82C0D",
"Q  c #D22F10",
"!  c #E42B12",
"~  c #EA2A11",
"^  c #F32A12",
"/  c #EB2D0F",
"(  c #8E5412",
")  c #AC5506",
"_  c #B45A05",
"`  c #B75805",
"'  c #A75913",
"]  c #B25115",
"[  c #BD6509",
"{  c #B76D16",
"}  c #BF700E",
"|  c #8B6036",
" . c #A07D3C",
".. c #C96B05",
"X. c #C56405",
"o. c #CB7109",
"O. c #D47509",
"+. c #D67606",
"@. c #C54818",
"#. c #B80749",
"$. c #A90A41",
"%. c #853449",
"&. c #903249",
"*. c #A53B57",
"=. c #B73A57",
"-. c #BD2D4C",
";. c #C20A45",
":. c #CA0756",
">. c #CB0E50",
",. c #D50957",
"<. c #CB1B56",
"1. c #DF1869",
"2. c #DE0C61",
"3. c #F3167A",
"4. c #F21A7A",
"5. c #E4136B",
"6. c #DA346B",
"7. c #E82B77",
"8. c #C13553",
"9. c #894753",
"0. c #B8425E",
"q. c #A64259",
"w. c #B27149",
"e. c #964863",
"r. c #985576",
"t. c #8F536D",
"y. c #BA4664",
"u. c #AD516F",
"i. c #AB6D78",
"p. c #C77653",
"a. c #C64668",
"s. c #CB4B73",
"d. c #D64971",
"f. c #C75779",
"g. c #D65278",
"h. c #D14A6E",
"j. c #E3427B",
"k. c #BE842B",
"l. c #E88607",
"z. c #F28C04",
"x. c #F99006",
"c. c #F79003",
"v. c #DBA82B",
"b. c #D99430",
"n. c #D8AF5C",
"m. c #C89773",
"M. c #DBB376",
"N. c #F3BC63",
"B. c #F5D752",
"V. c #DFC074",
"C. c #747483",
"Z. c #7A7A85",
"A. c #7E7D8A",
"S. c #7B7287",
"D. c #6E6E80",
"F. c #F91981",
"G. c #F91782",
"H. c #F52986",
"J. c #9F5D83",
"K. c #A65D81",
"L. c #857D8C",
"P. c #8E7089",
"I. c #A86A88",
"U. c #DC5A83",
"Y. c #CA5B83",
"T. c #E35A85",
"R. c #F84694",
"E. c #EF4C8F",
"W. c #C86488",
"Q. c #D3658B",
"!. c #D96A94",
"~. c #CB6E92",
"^. c #ED6D9C",
"/. c #E56894",
"(. c #E9709B",
"). c #E5618D",
"_. c #DB7AA6",
"`. c #E878A6",
"'. c #F173A3",
"]. c #F278A7",
"[. c #F37CAB",
"{. c #F571AD",
"}. c #F56FAA",
"|. c #7F808A",
" X c #82828D",
".X c #8A8B95",
"XX c #8D8D99",
"oX c #868696",
"OX c #92919D",
"+X c #9B8696",
"@X c #9595A2",
"#X c #9D9CAB",
"$X c #9A99A6",
"%X c #918FA0",
"&X c #A09FAE",
"*X c #AB86A1",
"=X c #A1A0AF",
"-X c #B8ACBD",
";X c #DCB78D",
":X c #ECBD80",
">X c #D48FB4",
",X c #EA86B6",
"<X c #F584B4",
"1X c #F58CBC",
"2X c #F88ABC",
"3X c #EF82AF",
"4X c #DEBFA7",
"5X c #EDD48E",
"6X c #F2E191",
"7X c #F6E7AE",
"8X c #F1CDAB",
"9X c #DE90C0",
"0X c #F68CC1",
"qX c #EB94C4",
"wX c #F592C6",
"eX c #F894C5",
"rX c #F596CA",
"tX c #F79ACE",
"yX c #F899CD",
"uX c #F996CD",
"iX c #F69CD2",
"pX c #F99CD3",
"aX c #F99FD8",
"sX c #D5ACC6",
"dX c #F8A0D7",
"fX c #F9A0D8",
"gX c #F6A2D6",
"hX c #E6BAD8",
"jX c #EAABC7",
"kX c #F6EBD0",
"lX c #F7C9E5",
"zX c #F4C0D4",
"xX c None",
/* pixels */
"xXxXxXxXxXxXxXxXxXxXxXxXxXxXxXxXxXxXxXxXxXxXxXxXxXxXxXxXxXxXxXxXxXxXxXxXxXxXxXxXxXxXxXxXxXxXxXxXxXxXxXxXxXxXxXxXxXxXxXxXxXxXxXxX",
"xXxXxXxXxXxXxXxXxXxXxXxXxXxXxXxXxXxXxXxXxXxXxXxXxXxXxXxXxXxXxXxXxXxXxXxXxXxXxXxXxXxXxXxXxXxXxXxXxXxXxXxXxXxXxXxXxXxXxXxXxXxXxXxX",
"xXxXxXxXxXxXxXxXxXxXxXxXxXxXxXxXxXxXxXxXxXxXxXxXxXxXxXxXxXxXxXxXxXxXxXxXxXxXxXxXxXxXxXxXxXxXxXxXxXxXxXxXxXxXxXxXxXxXxXxXxXxXxXxX",
"xXxXxXxXxXxXxXxXxXxXxXxXxXxXxXxXxXxXxXxXxXxXxXxXxXxXxXxXxXxXxXxXxXxXxXxXxXxXxXxXxXxXxXxXxXxXxXxXxXxXxXxXxXxXxXxXxXxXxXxXxXxXxXxX",
"xXxXxXxXxXxXxXxXxXxXxXxXxXxXxXxXxXxXxXxXxXxXxXxXxXxXxXxXxXxXxXxXxXxXxXxXxXxXxXxXxXxXxXxXxXxXxXxXxXxXxXxXxXxXxXxXxXxXxXxXxXxXxXxX",
"xXxXxXxXxXxXxXxXxXxXxXxXxXxXxXxXxXxXxXxXxXxXxXxXxXxXxXxXxXxXxXxXxXxXxXxXxXxXxXxXxXxXxXxXxXxXxXxXxXxXxXxXxXxXxXxXxXxXxXxXxXxXxXxX",
"xXxXxXxXxXxXxXxXxXxXxXxXxXxXxXxXxXxXxXxXxXxXxXxXxXxXxXxXxXxXxXxXxXxXxXxXxXxXxXxXxXxXxXxXxXxXxXxXxXxXxXxXxXxXxXxXxXxXxXxXxXxXxXxX",
"xXxXxXxXxXxXxXxXxXxXxXxXxXxXxXxXxXxXxXxXxXxXxXxXxXxXxXxXxXxXxXxXxXxXxXxXxXxXxXxXxXxXxXxXxXxXxXxXxXxXxXxXxXxXxXxXxXxXxXxXxXxXxXxX",
"xXxXxXxXxXxXxXxXxXxXxXxXxXxXxXxXxXxXxXxXxXxXxXxXxXxXxXxXxXxXxXxXxXxXxXxXxXxXxXxXxXxXxXxXxXxXxXxXxXxXxXxXxXxXxXxXxXxXxXxXxXxXxXxX",
"xXxXxXxXxXxXxXxXxXxXxXxXxXxXxXxXxXxXxXxXxXxXxXxXxXxXxXxXxXxXxXxXxXxXxXxXxXxXxXxXxXxXxXxXxXxXxXxXxXxXxXxXxXxXxXxXxXxXxXxXxXxXxXxX",
"xXxXxXxXxXxXxXxXxXxXxXxXxXxXxXxXxXxXxXxXxXxXxXxXxXxXxXxXxXxXxXxXxXxXxXxXxXxXxXxXxXxXxXxXxXxXxXi u y xXxXxXxXxXxXxXxXxXxXxXxXxXxX",
"xXxXxXxXxXxXxXxXxXxXxXxXxXxXxXxXxXxXxXxXxXxXxXxXxXxXxXxXxXxXxXxXxXxXxXxXxXxXxXxXxXxXxXxXxXxXp D D 9 u xXxXxXxXxXxXxXxXxXxXxXxXxX",
"xXxXxXxXxXxXxXxXxXxXxXxXxXxXxXxXxXxXxXxXxXxXxXxXxXxXxXxXxXxXxXxXxXxXxXxXxXxXxXxXxXxXxXxXd i D ! ~ E 9 xXxXxXxXxXxXxXxXxXxXxXxXxX",
"xXxXxXxXxXxXxXxXxXxXxXxXxXxXxXxXxXxXxXxXxXxXxXxXxXxXxXxXxXxXxXxXxXxXxXxXxXxXxXxXxXxXxXi 8 6 G W ^ ! D t xXxXxXxXxXxXxXxXxXxXxXxX",
"xXxXxXxXxXxXxXxXxXxXxXxXxXxXxXxXxXxXxXxXxXxXxXxXxXxXxXxXxXxXxXxXxXxXxXxXxXxXxXxXxXxXxXd 8 s ] ] ! ~ G F t y xXxXxXxXxXxXxXxXxXxX",
"xXxXxXxXxXxXxXxXxXxXxXxXxXxXxXxXxXxXxXxXxXxXxXxXxXxXxXxXxXxXxXxXxXxXxXxXxXxXxXxXxXxXd  .M.V.5Xv.` ! ^ ~ E F y xXxXxXxXxXxXxXxXxX",
"xXxXxXxXxXxXxXxXxXxXxXxXxXxXxXxXxXxXxXxXxXxXxXxXxXxXxXxXxXxXxXxXxXxXxXxXxXxXxXxXxX, 8 m.6X6XB.v.] ! ^ ^ ^ G t xXxXxXxXxXxXxXxXxX",
"xXxXxXxXxXxXxXxXxXxXxXxXxXxXxXxXxXxXxXxXxXxXxXxXxXxXxXxXxXxXxXxXxXxXxXxXxXxXxXxXi s ' w.n.n.B.:Xm.@.E Q ^ W D xXxXxXxXxXxXxXxXxX",
"xXxXxXxXxXxXxXxXxXxXxXxXxXxXxXxXxXxXxXxXxXxXxXxXxXxXxXxXxXxXxXxXxXxXxXxXxXxXxX, a _ O.[ ` _ M.kX6Xp.p.p.W ^ ~ 6 xXxXxXxXxXxXxXxX",
"xXxXxXxXxXxXxXxXxXxXxXxXxXxXxXxXxXxXxXxXxXxXxXxXxXxXxXxXxXxXxXxXxXxXxXxXxXxXxX8 _ ) ..O.` X.w.;XB.N.8X4X@.Q Q 6 xXxXxXxXxXxXxXxX",
"xXxXxXxXxXxXxXxXxXxXxXxXxXxXxXxXxXxXxXxXxXxXxXxXxXxXxXxXxXxXxXxXxXxXxXxXxXxX7 [ l...) ..+.+.[ { v.7XkX5X{ D F u xXxXxXxXxXxXxXxX",
"xXxXxXxXxXxXxXxXxXxXxXxXxXxXxXxXxXxXxXxXxXxXxXxXxXxXxXxXxXxXxXxXxXxXxXxXxX= 8 l.z.l.X.` ` ` O.X.] 4XM.k.a 6 y xXxXxXxXxXxXxXxXxX",
"xXxXxXxXxXxXxXxXxXxXxXxXxXxXxXxXxXxXxX- - : : : ; - - g xXxXxXxXxXxXxXxXxX= 7 ` z.c.l...` _ X.o.X.w.| s u xXxXxXxXxXxXxXxXxXxXxX",
"xXxXxXxXxXxXxXxXxXxXxXxXxXxXxXxXxXxXxX- - - : : - - - g xXxXxXxXxXxXxXxXxX= 3 ` z.c.l...` _ X.+.{ w.| 8 u xXxXxXxXxXxXxXxXxXxXxX",
"xXxXxXxXxXxXxXxXxXxXxXxXxXxXxXxX; > g h v b b b b v , h : xXxXxXxXxXxXxXxXxX* a l.c.c.l.} .._ X.o.9 u xXxXxXxXxXxXxXxXxXxXxXxXxX",
"xXxXxXxXxXxXxXxXxXxXxXxXxXxXj , > b b Z.@X=X&X=X#X@X XC z , z xXxXxXxXxXxXxXu ( l.c.c.c.l.l...) ( y xXxXxXxXxXxXxXxXxXxXxXxXxXxX",
"xXxXxXxXxXxXxXxXxXxXxXxXxXz v C.C S.Z.OX&X=X&X&X$X%XoXoXoXA.v h xXxXxXxXxXf ( l.l.[ o.l.z.z.} a y xXxXxXxXxXxXxXxXxXxXxXxXxXxXxX",
"xXxXxXxXxXxXxXxXxXxXxXxXh z A @X XOXOX&X&X&X&X#X.XS.Z S.+XOXZ.x % . & & . ( l.c.{ 8 F [ o.o.a $ xXxXxXxXxXxXxXxXxXxXxXxXxXxXxXxX",
"xXxXxXxXxXxXxXxXxXxXxXg v Z.$X#X.XOXOX=X=X=X#XXXL.I.W.~.~.+XOXZ.x < u.q.p ' z.} f xX@ $ $ $ < xXxXxXxXxXxXxXxXxXxXxXxXxXxXxXxXxX",
"xXxXxXxXxXxXxXxXxXxX> h V XX#X#XXXOXOX=X=X=X$XS.I.`.iXhXzX-X%XA.V N ,X,XW.9.s 7 xXxXxXxXxXxXxXxXxXxXxXxXxXxXxXxXxXxXxXxXxXxXxXxX",
"xXxXxXxXxXxXxXxXxXxX% x A.@X&X&XOXOXOX$X=X#XXXC *XsXhXlXlX>X+XA C P.qXiX1Xu.y . xXxXxXxXxXxXxXxXxXxXxXxXxXxXxXxXxXxXxXxXxXxXxXxX",
"xXxXxXxXxXxXxXxXxXxXg m OX&X&X&X=XOX.X.XOX|.C m *XsXhXfXqXu.r.P.r.t.`.eXyX!.%.. xXxXxXxXxXxXxXxXxXxXxXxXxXxXxXxXxXxXxXxXxXxXxXxX",
"xXxXxXxXxXxXxXxXxX% b A %X&X&X&X%XP.L.D.D.t.B B u.!.qXgXjXi.r.Q.!.y.s.(.3Xg.U . xXxXxXxXxXxXxXxXxXxXxXxXxXxXxXxXxXxXxXxXxXxXxXxX",
"xXxXxXxXxXxXxXxXxX% V  XXX&X&X$XL.D.D.n t.Q.).>Xr.q.!.rXgXjXS e.`.Q.&.y.T.0.e . xXxXxXxXxXxXxXxXxXxXxXxXxXxXxXxXxXxXxXxXxXxXxXxX",
"xXxXxXxXxXxXxXxXxX% Z..X XXX@XL.N r.r.Y.!.0XuXdXjXi.q.,XtX,Xk Y Y.,Xy.U &.T 3 . xXxXxXxXxXxXxXxXxXxXxXxXxXxXxXxXxXxXxXxXxXxXxXxX",
"xXxXxXxXxXxXxXxXxX% A.XXA C.S.S.J._._.0XuXaXfXfXjX9.e f.wX1X0.e 9.rXW.U 5 3 @ xXxXxXxXxXxXxXxXxXxXxXxXxXxXxXxXxXxXxXxXxXxXxXxXxX",
"xXxXxXxXxXxXxXxXxX. A OXC.C D.J._.0XwXaXaXfXaXaX1Xe.2 q.qXiXU.w S iX`.&.4 xXxXxXxXxXxXxXxXxXxXxXxXxXxXxXxXxXxXxXxXxXxXxXxXxXxXxX",
"xXxXxXxXxXxXxXxXxX: V  XD.N J.(.uXaXaXaXaXaXfXfXiXI.5 k qXiX,Xk k gX,Xy.3 xXxXxXxXxXxXxXxXxXxXxXxXxXxXxXxXxXxXxXxXxXxXxXxXxXxXxX",
"xXxXxXxXxXxXxXz z n m V N J.`.eXaXaXaXaXaXaXpXuXpX].%.i 9XaXqXe.B 0X{.s.q xXxXxXxXxXxXxXxXxXxXxXxXxXxXxXxXxXxXxXxXxXxXxXxXxXxXxX",
"xXxXxXxXxXxXxXM  XS.m n t.,XrXaXaXaXaXaXaXuX0X2X2X[.e.l 9XiXiXW.a.}.E.h.q xXxXxXxXxXxXxXxXxXxXxXxXxXxXxXxXxXxXxXxXxXxXxXxXxXxXxX",
"xXxXxXxXxXxXv  X XS.v k f.0XaXdXaXaXaXaXfX0XR.R.R.}.Q.y.qXfXiXwXqXwX}.s.q xXxXxXxXxXxXxXxXxXxXxXxXxXxXxXxXxXxXxXxXxXxXxXxXxXxXxX",
"xXxXxXxXxXxX% h , > & %.(.pXdXdXfXaXaXuXtXuX{.{.{.2X1X3XiXaX`.,XuXwX`.=.# xXxXxXxXxXxXxXxXxXxXxXxXxXxXxXxXxXxXxXxXxXxXxXxXxXxXxX",
"xXxXxXxXxXxXxXxXxXxXX 9.].pXaXdXaXiXtX0X0XaXpXpXyXdXgXgXfXpX/.`.eX1X!.Y O xXxXxXxXxXxXxXxXxXxXxXxXxXxXxXxXxXxXxXxXxXxXxXxXxXxXxX",
"xXxXxXxXxXxXxXxXxXxX@ e.3XeXyXtXwX1X1X].[.pXaXaXgXgXgXgXpXuX`.[.1X[.s.t xXxXxXxXxXxXxXxXxXxXxXxXxXxXxXxXxXxXxXxXxXxXxXxXxXxXxXxX",
"xXxXxXxXxXxXxXxXxXxX@ %.(.<X<X<X[.'.^.(.[.eXpXpXpXpXpXyX1X2X<X<X<X/.*.* xXxXxXxXxXxXxXxXxXxXxXxXxXxXxXxXxXxXxXxXxXxXxXxXxXxXxXxX",
"xXxXxXxXxXxXxXxXxXxXX e a.^.'.^./.g.g.).[.0X2X2X2X2X2X2X2X2X3X'.'.g.U @ xXxXxXxXxXxXxXxXxXxXxXxXxXxXxXxXxXxXxXxXxXxXxXxXxXxXxXxX",
"xXxXxXxXxXxXxXxXxXxXxXo e 0.d.d.8.-.-.g.^.'.[.].'.].].].3X].'.'.).*.+ X xXxXxXxXxXxXxXxXxXxXxXxXxXxXxXxXxXxXxXxXxXxXxXxXxXxXxXxX",
"xXxXxXxXxXxXxXxXxXxXxXxXO 2 T Y I ;.;.1.6.T.^.^.'.'.'.'.'.^.'.g.a.H 2 O xXxXxXxXxXxXxXxXxXxXxXxXxXxXxXxXxXxXxXxXxXxXxXxXxXxXxXxX",
"xXxXxXxXxXxXxXxXxXxXxXxX  4 H L >.2.2.5.7.7.j.T.^.'.'.'.^.).d.-.J K L r < xXxXxXxXxXxXxXxXxXxXxXxXxXxXxXxXxXxXxXxXxXxXxXxXxXxXxX",
"xXxXxXxXxXxXxXxXxXxXxXxX4 Y a.2.3.G.G.G.3.3.2.6.d.g.T.g.h.=.Y H K ;.:.$.1 xXxXxXxXxXxXxXxXxXxXxXxXxXxXxXxXxXxXxXxXxXxXxXxXxXxXxX",
"xXxXxXxXxXxXxXxXxXxXxXxX4 Y a.1.3.G.G.F.F.3.1.6.6.U.T.g.d.=.J K K ;.,.#.+ xXxXxXxXxXxXxXxXxXxXxXxXxXxXxXxXxXxXxXxXxXxXxXxXxXxXxX",
"xXxXxXxXxXxXxXxXxXxXxXxX2 a.'.4.F.F.G.F.F.F.3.>.I Y &.J J 5 5 K ;.,.2.$.+ xXxXxXxXxXxXxXxXxXxXxXxXxXxXxXxXxXxXxXxXxXxXxXxXxXxXxX",
"xXxXxXxXxXxXxXxXxXxXxXxX4 ;.7.4.3.3.3.3.4.4.1.L r 3 O 3 2 2 H L P P L r O xXxXxXxXxXxXxXxXxXxXxXxXxXxXxXxXxXxXxXxXxXxXxXxXxXxXxX",
"xXxXxXxXxXxXxXxXxXxXxXxX+ K >.:.:.:.:.:.#.L r 3 o xXxXxX    o O + + O o xXxXxXxXxXxXxXxXxXxXxXxXxXxXxXxXxXxXxXxXxXxXxXxXxXxXxXxX",
"xXxXxXxXxXxXxXxXxXxXxXxXxX+ 1 0 0 0 0 0 1 1 O xXxXxXxXxXxXxXxXxXxXxXxXxXxXxXxXxXxXxXxXxXxXxXxXxXxXxXxXxXxXxXxXxXxXxXxXxXxXxXxXxX",
"xXxXxXxXxXxXxXxXxXxXxXxXxXxXxXxXxXxXxXxXxXxXxXxXxXxXxXxXxXxXxXxXxXxXxXxXxXxXxXxXxXxXxXxXxXxXxXxXxXxXxXxXxXxXxXxXxXxXxXxXxXxXxXxX",
"xXxXxXxXxXxXxXxXxXxXxXxXxXxXxXxXxXxXxXxXxXxXxXxXxXxXxXxXxXxXxXxXxXxXxXxXxXxXxXxXxXxXxXxXxXxXxXxXxXxXxXxXxXxXxXxXxXxXxXxXxXxXxXxX",
"xXxXxXxXxXxXxXxXxXxXxXxXxXxXxXxXxXxXxXxXxXxXxXxXxXxXxXxXxXxXxXxXxXxXxXxXxXxXxXxXxXxXxXxXxXxXxXxXxXxXxXxXxXxXxXxXxXxXxXxXxXxXxXxX",
"xXxXxXxXxXxXxXxXxXxXxXxXxXxXxXxXxXxXxXxXxXxXxXxXxXxXxXxXxXxXxXxXxXxXxXxXxXxXxXxXxXxXxXxXxXxXxXxXxXxXxXxXxXxXxXxXxXxXxXxXxXxXxXxX",
"xXxXxXxXxXxXxXxXxXxXxXxXxXxXxXxXxXxXxXxXxXxXxXxXxXxXxXxXxXxXxXxXxXxXxXxXxXxXxXxXxXxXxXxXxXxXxXxXxXxXxXxXxXxXxXxXxXxXxXxXxXxXxXxX",
"xXxXxXxXxXxXxXxXxXxXxXxXxXxXxXxXxXxXxXxXxXxXxXxXxXxXxXxXxXxXxXxXxXxXxXxXxXxXxXxXxXxXxXxXxXxXxXxXxXxXxXxXxXxXxXxXxXxXxXxXxXxXxXxX",
"xXxXxXxXxXxXxXxXxXxXxXxXxXxXxXxXxXxXxXxXxXxXxXxXxXxXxXxXxXxXxXxXxXxXxXxXxXxXxXxXxXxXxXxXxXxXxXxXxXxXxXxXxXxXxXxXxXxXxXxXxXxXxXxX",
"xXxXxXxXxXxXxXxXxXxXxXxXxXxXxXxXxXxXxXxXxXxXxXxXxXxXxXxXxXxXxXxXxXxXxXxXxXxXxXxXxXxXxXxXxXxXxXxXxXxXxXxXxXxXxXxXxXxXxXxXxXxXxXxX",
"xXxXxXxXxXxXxXxXxXxXxXxXxXxXxXxXxXxXxXxXxXxXxXxXxXxXxXxXxXxXxXxXxXxXxXxXxXxXxXxXxXxXxXxXxXxXxXxXxXxXxXxXxXxXxXxXxXxXxXxXxXxXxXxX"
};
