/* XPM */
static char *result[] = {
/* columns rows colors chars-per-pixel */
"64 64 234 2 ",
"   c #0C060B",
".  c #08070A",
"X  c #1B040B",
"o  c #140508",
"O  c #090C12",
"+  c #0D121D",
"@  c #0F1214",
"#  c #151315",
"$  c #1C0C12",
"%  c #28070B",
"&  c #391806",
"*  c #2A0C14",
"=  c #37121B",
"-  c #2F0D0B",
";  c #382209",
":  c #141B2A",
">  c #0F1522",
",  c #2D1825",
"<  c #351F2D",
"1  c #292C39",
"2  c #393537",
"3  c #36292F",
"4  c #162433",
"5  c #480B15",
"6  c #540E12",
"7  c #52041E",
"8  c #531217",
"9  c #691318",
"0  c #751219",
"q  c #700D19",
"w  c #452405",
"e  c #462408",
"r  c #5B250E",
"t  c #582C10",
"y  c #682A12",
"u  c #531B26",
"i  c #7A1927",
"p  c #6A1826",
"a  c #412D2B",
"s  c #532D30",
"d  c #782233",
"f  c #692A2D",
"g  c #7C5915",
"h  c #765010",
"j  c #24334D",
"k  c #2F364B",
"l  c #393947",
"z  c #28354C",
"x  c #4D3A53",
"c  c #763246",
"v  c #713348",
"b  c #38435A",
"n  c #2F4566",
"m  c #47434D",
"M  c #484755",
"N  c #54555A",
"B  c #534041",
"V  c #585868",
"C  c #58536A",
"Z  c #784668",
"A  c #645B72",
"S  c #705870",
"D  c #64646C",
"F  c #6D6B7C",
"G  c #676475",
"H  c #756D7D",
"J  c #72717C",
"K  c #6F737E",
"L  c #8E091E",
"P  c #9B3900",
"I  c #973505",
"U  c #93300D",
"Y  c #A52C07",
"T  c #B22F07",
"R  c #8B0B24",
"E  c #950C25",
"W  c #861827",
"Q  c #951233",
"!  c #B60538",
"~  c #AD1337",
"^  c #8C2B3A",
"/  c #A5273D",
"(  c #CB2D08",
")  c #DB2C0A",
"_  c #D92C14",
"`  c #CF300A",
"'  c #E42A0B",
"]  c #EC2B0D",
"[  c #F3290E",
"{  c #EB2B13",
"}  c #F82A12",
"|  c #834D0C",
" . c #AA4C02",
".. c #B85E06",
"X. c #A95617",
"o. c #B54B0D",
"O. c #B96511",
"+. c #B7670C",
"@. c #AA5A24",
"#. c #C75F06",
"$. c #C46200",
"%. c #C76D06",
"&. c #DE7903",
"*. c #D97807",
"=. c #D97D10",
"-. c #B90646",
";. c #94344C",
":. c #932C43",
">. c #AC2B45",
",. c #B53956",
"<. c #A63651",
"1. c #CC0B55",
"2. c #D20857",
"3. c #D11155",
"4. c #C73759",
"5. c #D1285C",
"6. c #DB1964",
"7. c #DD0B62",
"8. c #EB1773",
"9. c #F4167A",
"0. c #F51A7D",
"q. c #E00361",
"w. c #D13964",
"e. c #F3227C",
"r. c #8A4558",
"t. c #AD445D",
"y. c #AD6344",
"u. c #984562",
"i. c #905671",
"p. c #AC4965",
"a. c #B84665",
"s. c #B05475",
"d. c #827578",
"f. c #C6415E",
"g. c #C74466",
"h. c #D64973",
"j. c #D8567A",
"k. c #C65573",
"l. c #F38D03",
"z. c #FA9102",
"x. c #F8910D",
"c. c #EF8B11",
"v. c #DDA12E",
"b. c #F0C23F",
"n. c #E69344",
"m. c #ECB24B",
"M. c #F8BC75",
"N. c #D2976D",
"B. c #F1C145",
"V. c #F3C873",
"C. c #EEC972",
"Z. c #7A7B85",
"A. c #777686",
"S. c #F91981",
"D. c #F7338B",
"F. c #AA5D83",
"G. c #B75A81",
"H. c #827A8B",
"J. c #907289",
"K. c #B9678A",
"L. c #B0718F",
"P. c #BB77A2",
"I. c #A57DA0",
"U. c #DA5883",
"Y. c #CA5C80",
"T. c #E35A86",
"R. c #F15196",
"E. c #D86795",
"W. c #D76A8C",
"Q. c #E3618B",
"!. c #ED6D9C",
"~. c #E56897",
"^. c #EC719D",
"/. c #E3729C",
"(. c #F0719F",
"). c #F06C9C",
"_. c #DB77A4",
"`. c #C97DA7",
"'. c #F96AA8",
"]. c #EC74A2",
"[. c #E97AA9",
"{. c #F172A2",
"}. c #F37CAB",
"|. c #F278A7",
" X c #F27AAE",
".X c #F95EA4",
"XX c #83848C",
"oX c #84858A",
"OX c #858591",
"+X c #898993",
"@X c #8B8B99",
"#X c #91919D",
"$X c #948A99",
"%X c #9595A2",
"&X c #9999A6",
"*X c #9D9CAB",
"=X c #9798A6",
"-X c #A09FAE",
";X c #AD9BA9",
":X c #A09FB0",
">X c #A1A0AF",
",X c #A2A1B1",
"<X c #D386A9",
"1X c #E882B2",
"2X c #F584B4",
"3X c #F58ABB",
"4X c #F889BA",
"5X c #F28CB4",
"6X c #D99A9E",
"7X c #ECCFAA",
"8X c #F58EC2",
"9X c #F98FC1",
"0X c #EC9BCB",
"qX c #F793C4",
"wX c #F993C4",
"eX c #F996CA",
"rX c #F69ACC",
"tX c #F99ACD",
"yX c #F595CA",
"uX c #F69DD2",
"iX c #F99ED5",
"pX c #FA9FD9",
"aX c #ED8DC3",
"sX c #CDB3CF",
"dX c #F6A1D9",
"fX c #F9A0D8",
"gX c #F8A3D7",
"hX c #E9B0D9",
"jX c #F9F0D9",
"kX c #F7E9D0",
"lX c #F8CFE5",
"zX c #FAF1F0",
"xX c #DECAD4",
"cX c None",
/* pixels */
"cXcXcXcXcXcXcXcXcXcXcXcXcXcXcXcXcXcXcXcXcXcXcXcXcXcXcXcXcXcXcXcXcXcXcXcXcXcXcXcXcXcXcXcXcXcXcXcXcXcXcXcXcXcXcXcXcXcXcXcXcXcXcXcX",
"cXcXcXcXcXcXcXcXcXcXcXcXcXcXcXcXcXcXcXcXcXcXcXcXcXcXcXcXcXcXcXcXcXcXcXcXcXcXcXcXcXcXcXcXcXcXcXcXcXcXcXcXcXcXcXcXcXcXcXcXcXcXcXcX",
"cXcXcXcXcXcXcXcXcXcXcXcXcXcXcXcXcXcXcXcXcXcXcXcXcXcXcXcXcXcXcXcXcXcXcXcXcXcXcXcXcXcXcXcXcXcXcXcXcXcXcXcXcXcXcXcXcXcXcXcXcXcXcXcX",
"cXcXcXcXcXcXcXcXcXcXcXcXcXcXcXcXcXcXcXcXcXcXcXcXcXcXcXcXcXcXcXcXcXcXcXcXcXcXcXcXcXcXcXcXcXcXcXcXcXcXcXcXcXcXcXcXcXcXcXcXcXcXcXcX",
"cXcXcXcXcXcXcXcXcXcXcXcXcXcXcXcXcXcXcXcXcXcXcXcXcXcXcXcXcXcXcXcXcXcXcXcXcXcXcXcXcXcXcXcXcXcXcXcXcXcXcXcXcXcXcXcXcXcXcXcXcXcXcXcX",
"cXcXcXcXcXcXcXcXcXcXcXcXcXcXcXcXcXcXcXcXcXcXcXcXcXcXcXcXcXcXcXcXcXcXcXcXcXcXcXcXcXcXcXcXcXcXcXcXcXcXcXcXcXcXcXcXcXcXcXcXcXcXcXcX",
"cXcXcXcXcXcXcXcXcXcXcXcXcXcXcXcXcXcXcXcXcXcXcXcXcXcXcXcXcXcXcXcXcXcXcXcXcXcXcXcXcXcXcXcXcXcXcXcXcXcXcXcXcXcXcXcXcXcXcXcXcXcXcXcX",
"cXcXcXcXcXcXcXcXcXcXcXcXcXcXcXcXcXcXcXcXcXcXcXcXcXcXcXcXcXcXcXcXcXcXcXcXcXcXcXcXcXcXcXcXcXcXcXcXcXcXcXcXcXcXcXcXcXcXcXcXcXcXcXcX",
"cXcXcXcXcXcXcXcXcXcXcXcXcXcXcXcXcXcXcXcXcXcXcXcXcXcXcXcXcXcXcXcXcXcXcXcXcXcXcXcXcXcXcXcXcXcXcXcXcXcXcXcXcXcXcXcXcXcXcXcXcXcXcXcX",
"cXcXcXcXcXcXcXcXcXcXcXcXcXcXcXcXcXcXcXcXcXcXcXcXcXcXcXcXcXcXcXcXcXcXcXcXcXcXcXcXcXcXcXcXcXcXcXcXcXcXcXcXcXcXcXcXcXcXcXcXcXcXcXcX",
"cXcXcXcXcXcXcXcXcXcXcXcXcXcXcXcXcXcXcXcXcXcXcXcXcXcXcXcXcXcXcXcXcXcXcXcXcXcXcXcXcXcXcXcXcXcXcXcXcXcXcXcXcXcXcXcXcXcXcXcXcXcXcXcX",
"cXcXcXcXcXcXcXcXcXcXcXcXcXcXcXcXcXcXcXcXcXcXcXcXcXcXcXcXcXcXcXcXcXcXcXcXcXcXcXcXcXcXcXcXcXcXcXcXcXcXcXcXcXcXcXcXcXcXcXcXcXcXcXcX",
"cXcXcXcXcXcXcXcXcXcXcXcXcXcXcXcXcXcXcXcXcXcXcXcXcXcXcXcXcXcXcXcXcXcXcXcXcXcXcXcXcXcXcXcXcXcXcXcXcXcXcXcXcXcXcXcXcXcXcXcXcXcXcXcX",
"cXcXcXcXcXcXcXcXcXcXcXcXcXcXcXcXcXcXcXcXcXcXcXcXcXcXcXcXcXcXcXcXcXcXcXcXcXcXcXcXcXcXcXcXcXcXcXcXcXcXcXcXcXcXcXcXcXcXcXcXcXcXcXcX",
"cXcXcXcXcXcXcXcXcXcXcXcXcXcXcXcXcXcXcXcXcXcXcXcXcXcXcXcXcXcXcXcXcXcXcXcXcXcXcXcXcXcXcXcXcXcXcXcXcXcXcXcXcXcXcXcXcXcXcXcXcXcXcXcX",
"cXcXcXcXcXcXcXcXcXcXcXcXcXcXcXcXcXcXcXcXcXcXcXcXcXcXcXcXcXcXcXcXcXcXcXcXcXcXcXcXcXcXcXcXcXcXcXcXcXcXcXcXcXcXcXcXcXcXcXcXcXcXcXcX",
"cXcXcXcXcXcXcXcXcXcXcXcXcXcXcXcXcXcXcXcXcXcXcXcXcXcXcXcXcXcXcXcXcXcXcXcXcXcXcXcXcXcXcXcXcXcXcXcXcXcXcXcXcXcXcXcXcXcXcXcXcXcXcXcX",
"cXcXcXcXcXcXcXcXcXcXcXcXcXcXcXj + + + > + + + + + 1 cXcXcXcXcXcXcXcXcXcXcXcXcXcXcXcXcXcXcXcXcXcXcXcXcXcXcXcXcXm a a a cXcXcXcXcX",
"cXcXcXcXcXcXcXcXcXcXcXcXcXz cXk m N D D D D D N b l j j cXcXcXcXcXcXcXcXcXcXcXcXcXcXcXcXcXcXcXcXcXcXcXcXcXcXcXy U Y y x cXcXcXcX",
"cXcXcXcXcXcXcXcXcXcXcXcXb 1 , V Z.%X>X>X,X,X,X#XXXD l 2 b cXcXcXcXcXcXcXcXcXcXcXcXb & w w w & ; ; w g g g h y Y ) ' T r cXcXcXcX",
"cXcXcXcXcXcXcXcXcXcXcX1 M Z.G Z.%X>X,X>X,X,X*X&X=X=X=X+Xm j cXcXcXcXcXcXcXcXcXcXcX% U +.%...I .. .X.m.b.B.v. .` [ { _ f cXcXcXcX",
"cXcXcXcXcXcXcXcXcXcX4 V +X%XZ.#X-X>X>X>X,X&XOXA.D K OX=X+XN > + + + + > cXcXcXcXcX&  .c.l.*.P *.$.y.kXjXjX7Xv.X.( ` t cXcXcXcXcX",
"cXcXcXcXcXcXcXcXcXk N XX&X&XoX=X-X-X-X>X=XOXH.F.s.K.Y.$X#XoXN @ a u.:.8 3 cXcXcX> ; c.l.z.&.I l.$.X.V.M.V.m.#.` ' ( u cXcXcXcXcX",
"cXcXcXcXcXcXcXcXk 2 Z.&X-X&XoX&X,X-X-X:X@XA.L._.5X5X5X;X%X#XZ.l i.2X~.u.u < cXB t h c.l.l.*.I &.$.@.V.V.n.#.( { } _ y cXcXcXcXcX",
"cXcXcXcXcXcXcX4 2 G XX&X:X&XOX=X-X>X>X-XZ.S /.0XlXzXzXxX>XZ.Z.G I.uXuX2Xp.8 o +.c.x.x.z.z.c.P &.$.y.zXzXN.T [ } } ) U cXcXcXcXcX",
"cXcXcXcXcXcXcX4 l XX*X:X,X-X*X+X#X>X-X+XF A.sXsXsXhXdX Xs.G A V L.wXgXuX~.;.o +.x.z.z.z.l.*.P &.$.y.jXzX6XT { } } ' I u cXcXcXcX",
"cXcXcXcXcXcXj l V +X-X,X:X,X:X@X+X+XA.C M A <XsXhXpXdXp.p.L.P.u.s.].yXeX/.<.o w t h l.l.z.&.P &.$.@.V.M.v...T ] } [ ( r cXcXcXcX",
"cXcXcXcXcXcXO M J +X-X-X:X*X%XZ.G G i.Z Z i.,./.aXpXuXL.i.s.2Xj.4.a.(. XQ.;.o cX: ; *.l.z.*.P &.$.@.M.M.M.N.I ' } [ ( r cXcXcXcX",
"cXcXcXcXcXcXO D oX+X*X,X*X%XA.S C v E.R.2X<X^ t.E.uXgXlXd.a U.3Xs.W g.Q.g.i o cXcX& +.c.l.*.P &.$.y.kXjXjX7XU ) } ' U r cXcXcXcX",
"cXcXcXcXcXcXO J +XoXOX&X#XK x s.E.E.yXuXiXhXlXr.p.2XuX5Xt.9 ,.1X/.<.i / ^ 6 . cXcX% U O.$...I .. .X.m.b.B.v.I _ } [ _ y cXcXcXcX",
"cXcXcXcXcXcXO A.#XZ.G OXZ.i.i._. X8XdXpXpXgX5Xs d j.dXyXk.i 8 `.3Xk.9 0 6 , cXcXcXcX& e w e & e ; e g g | h r I ) ' T y cXcXcXcX",
"cXcXcXcXcXcXO J #XXXV H H F.[.eXpXpXdXpXfXrX1Xs 8 ,.uXdX_.;.o P.gX<XW 5 < cXcXcXcXcXj j j j j j z k M M M M m f U Y y B cXcXcXcX",
"cXcXcXcXcXcX+ V @XOXC A s.].pXgXfXfXfXfXpXpXrX;.9 c uXfX8Xs.o P.fX5X>.* cXcXcXcXcXcXcXcXcXcXcXcXcXcXcXcXcXcXcXM 3 a a cXcXcXcXcX",
"cXcXcXcXcX: 1 C A.A.x F.[.9XgXfXfXfXfXfXdXfXuXU.d a 0XfXrXK.$ P.iX3Xg.= cXcXcXcXcXcXcXcXcXcXcXcXcXcXcXcXcXcXcXcXcXcXcXcXcXcXcXcX",
"cXcXcXn C G G C C C F.1XrXuXfXfXfXfXpXeXrXyXwX{.v 3 0XdXuX_.d E.'.R.h.= cXcXcXcXcXcXcXcXcXcXcXcXcXcXcXcXcXcXcXcXcXcXcXcXcXcXcXcX",
"cXcXcXb K =XOXC x v |.uXdXdXfXfXfXfXpX X'.'.'. Xu.v uXdXdXaXj.].'.R.g.= cXcXcXcXcXcXcXcXcXcXcXcXcXcXcXcXcXcXcXcXcXcXcXcXcXcXcXcX",
"cXcX@ J +XA.F l v 4.qXiXfXfXfXfXiXfXuXR.D.D.D. XE.k.uXiXrXrXgXgXtX}.g.= cXcXcXcXcXcXcXcXcXcXcXcXcXcXcXcXcXcXcXcXcXcXcXcXcXcXcXcX",
"cXcX. @ # # @ . c U.uXfXfXfXfXfXtXeXpX9X X2X9XtXyXyXpXpX[.~.tXeXwX].>.* cXcXcXcXcXcXcXcXcXcXcXcXcXcXcXcXcXcXcXcXcXcXcXcXcXcXcXcX",
"cXcXcXcXcXcXcXcXv ).wXiXfXfXgXtX4X2XiXiXtXuXtXpXfXfXuXfX].Q.wXwX2XW.W $ cXcXcXcXcXcXcXcXcXcXcXcXcXcXcXcXcXcXcXcXcXcXcXcXcXcXcXcX",
"cXcXcXcXcXcXcXcXv }.3XeXtXeXwX4X}.}.eXpXgXfXfXfXfXiXuXtX1X^.4X4X|.a.5 cXcXcXcXcXcXcXcXcXcXcXcXcXcXcXcXcXcXcXcXcXcXcXcXcXcXcXcXcX",
"cXcXcXcXcXcXcXcXv ^.3X4X3X2X|.).).}.4XiXpXuXuXiXiXtXqXwX4X4X4X|.T.<.  cXcXcXcXcXcXcXcXcXcXcXcXcXcXcXcXcXcXcXcXcXcXcXcXcXcXcXcXcX",
"cXcXcXcXcXcXcXcXu f.].|.|.|.(.j.Q.|.wXwXwXwXwXwXwXwX3XwX2X|.{.{.h.W   cXcXcXcXcXcXcXcXcXcXcXcXcXcXcXcXcXcXcXcXcXcXcXcXcXcXcXcXcX",
"cXcXcXcXcXcXcXcX% p 4.j.j.j.4.4.j.{.|.}.}.}.}.}.}.}.}.}.|.{.{.T.;.- . cXcXcXcXcXcXcXcXcXcXcXcXcXcXcXcXcXcXcXcXcXcXcXcXcXcXcXcXcX",
"cXcXcXcXcXcXcXcXcXo p / ,.>.~ ~ w.T.T.).{.(.(.(.(.{.^.).).).T.a.d * . cXcXcXcXcXcXcXcXcXcXcXcXcXcXcXcXcXcXcXcXcXcXcXcXcXcXcXcXcX",
"cXcXcXcXcXcXcXcXcX. o 6 q L ! 2.2.6.h.T.).).).{.{.(.{.!.~.T.w.W E R % cXcXcXcXcXcXcXcXcXcXcXcXcXcXcXcXcXcXcXcXcXcXcXcXcXcXcXcXcX",
"cXcXcXcXcXcXcXcXcXo 6 L ! 1.8.9.9.0.0.6.w.T.).(.].].!.T.4./ i E ! 1.R = cXcXcXcXcXcXcXcXcXcXcXcXcXcXcXcXcXcXcXcXcXcXcXcXcXcXcXcX",
"cXcXcXcXcXcXcXcXcX% R W.T.8.S.S.0.0.S.9.6.5.4.j.h.f.f./ W W L ! 2.7.1.% cXcXcXcXcXcXcXcXcXcXcXcXcXcXcXcXcXcXcXcXcXcXcXcXcXcXcXcX",
"cXcXcXcXcXcXcXcXcX% ~ /..XS.S.S.S.S.S.S.q.! E ^ d i W 0 0 L ! 1.2.2.~ % cXcXcXcXcXcXcXcXcXcXcXcXcXcXcXcXcXcXcXcXcXcXcXcXcXcXcXcX",
"cXcXcXcXcXcXcXcXcX% E 6.0.0.9.0.9.9.8.8.-.R 6 * cX$ 8 6 q E -.-.-.Q 6 , cXcXcXcXcXcXcXcXcXcXcXcXcXcXcXcXcXcXcXcXcXcXcXcXcXcXcXcX",
"cXcXcXcXcXcXcXcXcXo 9 -.2.2.1.2.2.1.! W 5 o   cXcXcX  o o X X X X X   cXcXcXcXcXcXcXcXcXcXcXcXcXcXcXcXcXcXcXcXcXcXcXcXcXcXcXcXcX",
"cXcXcXcXcXcXcXcXcXcX- 5 7 7 7 7 7 5 5 * cXcXcXcXcXcXcXcXcXcXcXcXcXcXcXcXcXcXcXcXcXcXcXcXcXcXcXcXcXcXcXcXcXcXcXcXcXcXcXcXcXcXcXcX",
"cXcXcXcXcXcXcXcXcXcXcXcXcXcXcXcXcXcXcXcXcXcXcXcXcXcXcXcXcXcXcXcXcXcXcXcXcXcXcXcXcXcXcXcXcXcXcXcXcXcXcXcXcXcXcXcXcXcXcXcXcXcXcXcX",
"cXcXcXcXcXcXcXcXcXcXcXcXcXcXcXcXcXcXcXcXcXcXcXcXcXcXcXcXcXcXcXcXcXcXcXcXcXcXcXcXcXcXcXcXcXcXcXcXcXcXcXcXcXcXcXcXcXcXcXcXcXcXcXcX",
"cXcXcXcXcXcXcXcXcXcXcXcXcXcXcXcXcXcXcXcXcXcXcXcXcXcXcXcXcXcXcXcXcXcXcXcXcXcXcXcXcXcXcXcXcXcXcXcXcXcXcXcXcXcXcXcXcXcXcXcXcXcXcXcX",
"cXcXcXcXcXcXcXcXcXcXcXcXcXcXcXcXcXcXcXcXcXcXcXcXcXcXcXcXcXcXcXcXcXcXcXcXcXcXcXcXcXcXcXcXcXcXcXcXcXcXcXcXcXcXcXcXcXcXcXcXcXcXcXcX",
"cXcXcXcXcXcXcXcXcXcXcXcXcXcXcXcXcXcXcXcXcXcXcXcXcXcXcXcXcXcXcXcXcXcXcXcXcXcXcXcXcXcXcXcXcXcXcXcXcXcXcXcXcXcXcXcXcXcXcXcXcXcXcXcX",
"cXcXcXcXcXcXcXcXcXcXcXcXcXcXcXcXcXcXcXcXcXcXcXcXcXcXcXcXcXcXcXcXcXcXcXcXcXcXcXcXcXcXcXcXcXcXcXcXcXcXcXcXcXcXcXcXcXcXcXcXcXcXcXcX",
"cXcXcXcXcXcXcXcXcXcXcXcXcXcXcXcXcXcXcXcXcXcXcXcXcXcXcXcXcXcXcXcXcXcXcXcXcXcXcXcXcXcXcXcXcXcXcXcXcXcXcXcXcXcXcXcXcXcXcXcXcXcXcXcX",
"cXcXcXcXcXcXcXcXcXcXcXcXcXcXcXcXcXcXcXcXcXcXcXcXcXcXcXcXcXcXcXcXcXcXcXcXcXcXcXcXcXcXcXcXcXcXcXcXcXcXcXcXcXcXcXcXcXcXcXcXcXcXcXcX",
"cXcXcXcXcXcXcXcXcXcXcXcXcXcXcXcXcXcXcXcXcXcXcXcXcXcXcXcXcXcXcXcXcXcXcXcXcXcXcXcXcXcXcXcXcXcXcXcXcXcXcXcXcXcXcXcXcXcXcXcXcXcXcXcX",
"cXcXcXcXcXcXcXcXcXcXcXcXcXcXcXcXcXcXcXcXcXcXcXcXcXcXcXcXcXcXcXcXcXcXcXcXcXcXcXcXcXcXcXcXcXcXcXcXcXcXcXcXcXcXcXcXcXcXcXcXcXcXcXcX",
"cXcXcXcXcXcXcXcXcXcXcXcXcXcXcXcXcXcXcXcXcXcXcXcXcXcXcXcXcXcXcXcXcXcXcXcXcXcXcXcXcXcXcXcXcXcXcXcXcXcXcXcXcXcXcXcXcXcXcXcXcXcXcXcX",
"cXcXcXcXcXcXcXcXcXcXcXcXcXcXcXcXcXcXcXcXcXcXcXcXcXcXcXcXcXcXcXcXcXcXcXcXcXcXcXcXcXcXcXcXcXcXcXcXcXcXcXcXcXcXcXcXcXcXcXcXcXcXcXcX",
"cXcXcXcXcXcXcXcXcXcXcXcXcXcXcXcXcXcXcXcXcXcXcXcXcXcXcXcXcXcXcXcXcXcXcXcXcXcXcXcXcXcXcXcXcXcXcXcXcXcXcXcXcXcXcXcXcXcXcXcXcXcXcXcX"
};
