/* XPM */
static char *d5c0871573174d37869288850a1944a0dZ1A79aBrZIDD5Tr[] = {
/* columns rows colors chars-per-pixel */
"64 64 234 2 ",
"   c None",
".  c #1A080C",
"X  c #1D0B15",
"o  c #13141D",
"O  c #1E141C",
"+  c #0B111D",
"@  c #2D0615",
"#  c #220C18",
"$  c #22121C",
"%  c #24181C",
"&  c #38131B",
"*  c #29070C",
"=  c #3A2415",
"-  c #181A24",
";  c #251421",
":  c #2B1824",
">  c #351E2C",
",  c #1D2434",
"<  c #1F2026",
"1  c #232835",
"2  c #38373E",
"3  c #342E2F",
"4  c #480D13",
"5  c #570B16",
"6  c #4B111A",
"7  c #4F1115",
"8  c #68131B",
"9  c #700C1C",
"0  c #532E14",
"q  c #752A16",
"w  c #7B2B16",
"e  c #693D15",
"r  c #723113",
"t  c #5C1825",
"y  c #770A26",
"u  c #671A26",
"i  c #721426",
"p  c #5A3527",
"a  c #463436",
"s  c #4F2B2B",
"d  c #722C39",
"f  c #7B4916",
"g  c #67472C",
"h  c #4D403A",
"j  c #2B3245",
"k  c #373B47",
"l  c #2D384D",
"z  c #503D54",
"x  c #7A3A51",
"c  c #6F3649",
"v  c #3C4457",
"b  c #504F58",
"n  c #51515A",
"m  c #494B54",
"M  c #5B5A6A",
"N  c #4F4E61",
"B  c #635D71",
"V  c #6F506A",
"C  c #6D6C7A",
"Z  c #696874",
"A  c #79647B",
"S  c #71727A",
"D  c #77435B",
"F  c #8B2E14",
"G  c #B63507",
"H  c #B52B14",
"J  c #A1310F",
"K  c #8D0B25",
"L  c #891828",
"P  c #920931",
"I  c #AC0735",
"U  c #B5063A",
"Y  c #A31435",
"T  c #842739",
"R  c #992438",
"E  c #BD3E3A",
"W  c #CA2D0D",
"Q  c #D42E0B",
"!  c #D53218",
"~  c #D73010",
"^  c #F12A0E",
"/  c #EB2A12",
"(  c #F32A12",
")  c #E32C0F",
"_  c #D73E35",
"`  c #975B14",
"'  c #8F4B0C",
"]  c #A55409",
"[  c #B75803",
"{  c #AC5013",
"}  c #B86809",
"|  c #B26812",
" . c #875631",
".. c #AA4338",
"X. c #B0552C",
"o. c #B26A33",
"O. c #8E6221",
"+. c #C26407",
"@. c #CC7208",
"#. c #D57506",
"$. c #C77413",
"%. c #E27D09",
"&. c #AB0745",
"*. c #B71148",
"=. c #992C41",
"-. c #9D3654",
";. c #9C3E59",
":. c #8A334D",
">. c #B83E5C",
",. c #B0314B",
"<. c #D50958",
"1. c #CF0D55",
"2. c #E6146C",
"3. c #EB1672",
"4. c #F3167A",
"5. c #D63669",
"6. c #EB2677",
"7. c #D81463",
"8. c #904752",
"9. c #AF4D50",
"0. c #A94A45",
"q. c #835272",
"w. c #9B5576",
"e. c #AA4B6A",
"r. c #B84765",
"t. c #A95678",
"y. c #B75474",
"u. c #A05465",
"i. c #84637C",
"p. c #A3626E",
"a. c #CA4642",
"s. c #C9505A",
"d. c #C46046",
"f. c #CA476A",
"g. c #D2496D",
"h. c #C75678",
"j. c #DB527B",
"k. c #D35379",
"l. c #D74E75",
"z. c #E88607",
"x. c #F28C04",
"c. c #F99004",
"v. c #F79007",
"b. c #D3972B",
"n. c #DE830C",
"m. c #B78B66",
"M. c #D7A642",
"N. c #D09566",
"B. c #D5AB74",
"V. c #ECA868",
"C. c #F5CE40",
"Z. c #F2CB50",
"A. c #F1CB68",
"S. c #747383",
"D. c #7A7985",
"F. c #7D7C8B",
"G. c #787481",
"H. c #766C83",
"J. c #F81981",
"K. c #F82687",
"L. c #B35D86",
"P. c #986284",
"I. c #877185",
"U. c #B96A8D",
"Y. c #AC6F91",
"T. c #D25B83",
"R. c #E15E88",
"E. c #E45484",
"W. c #F84394",
"Q. c #EC4686",
"!. c #D6648B",
"~. c #D96A95",
"^. c #D87399",
"/. c #C36B91",
"(. c #EA6694",
"). c #ED6C9B",
"_. c #E66694",
"`. c #EB6698",
"'. c #DA78A2",
"]. c #ED73A1",
"[. c #E678A7",
"{. c #F174A4",
"}. c #F27BAB",
"|. c #FA7EB5",
" X c #FA7DBE",
".X c #E77FB1",
"XX c #FA59A2",
"oX c #82828C",
"OX c #858392",
"+X c #898994",
"@X c #8A8A99",
"#X c #92929E",
"$X c #968B9A",
"%X c #9595A3",
"&X c #9A99A7",
"*X c #9E9DAC",
"=X c #9897A6",
"-X c #8F90A0",
";X c #A09FAE",
":X c #BB8AA7",
">X c #A1A0AF",
",X c #A1A0B0",
"<X c #ACA5B4",
"1X c #D8B093",
"2X c #D785AA",
"3X c #D197B4",
"4X c #E885B5",
"5X c #F584B4",
"6X c #F688B7",
"7X c #F589BA",
"8X c #F885BC",
"9X c #ED8AB3",
"0X c #E6C985",
"qX c #F7EB8A",
"wX c #F2DDB5",
"eX c #F48DC0",
"rX c #F98EC1",
"tX c #F292C5",
"yX c #F892C3",
"uX c #F596CA",
"iX c #F995CA",
"pX c #F899CD",
"aX c #F699CE",
"sX c #F79CD2",
"dX c #F99DD4",
"fX c #F99FD8",
"gX c #D9B0CD",
"hX c #F8A0D6",
"jX c #F9A0D8",
"kX c #F6A3D5",
"lX c #EDAFD1",
"zX c #F2D0CC",
"xX c #F6E8D0",
"cX c #F0C6E4",
/* pixels */
"                                                                                                                                ",
"                                                                                                                                ",
"                                                                                                                                ",
"                                                                                                                                ",
"                                                                                                                                ",
"                                                                                                                                ",
"                                                                                                                                ",
"                                                                                                                                ",
"                                                                                              d w q p                           ",
"                                                                                            p H / W F s                         ",
"                                                                                          a w W ( ( H p                         ",
"                                                                                          p F G ~ ( ~ F p s                     ",
"                                                                                        g o.B.M.+.Q / W H w p p                 ",
"                                                                                      a  .0XqXC.} G ( ( ( W q q                 ",
"                                                                                      a  .0XqXC.} G ( ( ( W q q                 ",
"                                                                                    h r X.1XC.A.N.d.Q Q ^ / H H d               ",
"                                                                                3 3 e @.} { b.wXxXB.{ X.! ^ / / F a             ",
"                                                                              3 f f ] [ #.+.{ 1XqXC.V.1Xo.~ ) ) F a             ",
"                                                                            1 ' @.@.#.[ [ #.+.X.b.A.xXwXM.{ J J q a             ",
"                                    j , , 1 1 1 1 , , ,                     % } z.z.x.#.[ [ #.+.| N.xXB.| r J J 0.              ",
"                                    j k m n b b b m 2 2 j ,                 % ] %.%.v.z.#.[ +.#.+.o.m.O.e   E E s.              ",
"                              l 3 1 M F.%X,X>X,X;X#XF.F.M 2 k                 0 } } c.c.x.#.[ +.@.] 0 a a   a.a.a.              ",
"                            l b S Z oX%X;X>X>X*X=X@X@X@X@X+XS k               g } } v.v.v.x.#.[ ] f       ..! ! ~ ..            ",
"                          l v oX#XoX%X*X>X>X;X=X+XH.A A I.$X@XC 3 o - : ; o = | z.z.z.z.z.c.z.} e         _ ( ( ^ a.            ",
"                      j j b oX*X&X+X&X>X;X;X=XOXI./.~.~.^.U.$X#XS 2 x T.:.0 | x.z.z.` 0 ' @.| 0           _ ( ( ( a.            ",
"                    , k k Z @X,X&X@X&X;X;X>X-XI.U.4XlXlXlXgX<X@XD.M P.7XU.g $.n.` ` p   = 0 0             ..! ! ! 0.            ",
"                    - b b oX%X,X*X#X#X&X;X&XOXH.:XgXcXcXcXlX:XS.C Z Y.sX4Xp.O.f g g                         9.9.0.              ",
"                    k Z Z #X>X>X>X*X+X+X+XH.N B :XgXlXlXjX'.e.P.Y.w.y.}.iX2X8.$                                                 ",
"                  - n D.D.#X>X>X*X%XD.C A q.V q.y.'.uXuXjX2Xp.t.^.!.r.h.}.].r.:                                                 ",
"                  - n D.D.#X;X>X*X%XD.C A q.V q.y.'.uXuXjX2Xp.t.^.!.r.h.}.].r.:                                                 ",
"                  - Z oXoX#X*X*X%XD.A V w.~.[.2Xu.r.[.[.sXlX3Xs y.[.y.=.f.k.=.$                                                 ",
"                  - D.+X+XoX@X#XG.V L.!..XaXsXlXgX8.r.r.4XuX^.i =.~.[.,.L R 8 $                                                 ",
"                  - F.@X@XS.S.F.i.t..XeXaXjXjXhX9Xd T T !.sX[.=.t L.7Xy.8 8 &                                                   ",
"                  - S #X#XS.B i.U..XsXjXjXjXjXdX4Xc u u e.hXeXh.> P.sX!.i &                                                     ",
"                1 1 M OXOXZ V /..XpXjXjXjXjXjXjXaXe.u u 8.hXpX'.s P.jX[.=.;                                                     ",
"              v m N M B B V L.7XuXdXjXjXjXdXpXsXuX_.d d z fXfX4Xc t.8X`.-.:                                                     ",
"            v M @XF.M z z t.4XdXfXjXjXjXjXiX|.|.|.].x x D fXjXtXh.!.XXQ.-.:                                                     ",
"            m F.S.Z z :.:.!.uXjXjXjXjXdXdX XW.W.W.}.h.h.T.dXdXaXtXuXrX).-.:                                                     ",
"            o < < - O -.-.[.dXjXjXjXdXpXpXiX|.|.8XuXtXtXtXjXtX_.tXpXyX~.T $                                                     ",
"                    X e.e.5XpXjXdXdXyX6XeXdXsXsXdXfXjXjXjXjXeXR.6XyX5Xh.5 O                                                     ",
"                    $ t.t.5XyXpXiX7X5X}.6XsXjXjXjXjXjXjXdXpXeX].7X6X).;.&                                                       ",
"                    $ ;.;.).5X5X}.{.(.).5XyXpXpXpXpXpXpXiXyX7X6X5X{.j.d -                                                       ",
"                    . t t r.R.(._.E.g.R.}.6X6X7X7X7X6X6X6X6X5X{.{._.>.6 o                                                       ",
"                    . t t r.R.(._.E.g.R.}.6X6X7X7X7X6X6X6X6X5X{.{._.>.6 o                                                       ",
"                      . . u ,.f.f.,.,.l.).].{.{.{.{.{.{.{.{.{.].).k.d . +                                                       ",
"                          . 4 i L I 1.7.5.E.(.).{.].].].].).)._.f.R K 9 ;                                                       ",
"                          * 8 Y *.7.3.3.6.6.5.E.(.).).).).R.l.>.R P U I u >                                                     ",
"                          5 ,.j.3.4.J.J.J.4.2.5.5.j.j.j.g.>.=.L K I 1.<.P ;                                                     ",
"                          9 5.XXK.J.J.J.J.J.2.U K i u u u i 9 K U 1.<.1.y $                                                     ",
"                          5 *.3.3.3.3.3.2.7.*.y 7 &     & 4 7 9 P P P y 6                                                       ",
"                          4 y &.&.&.&.&.I y 6 #             . X # # # X                                                         ",
"                            . @ @ @ @ @ @ .                                                                                     ",
"                                                                                                                                ",
"                                                                                                                                ",
"                                                                                                                                ",
"                                                                                                                                ",
"                                                                                                                                ",
"                                                                                                                                ",
"                                                                                                                                ",
"                                                                                                                                ",
"                                                                                                                                ",
"                                                                                                                                ",
"                                                                                                                                ",
"                                                                                                                                "
};
