/* XPM */
static char *result[] = {
/* columns rows colors chars-per-pixel */
"64 64 188 2 ",
"   c #020102",
".  c #0A0002",
"X  c #01020C",
"o  c #0B0A0E",
"O  c #0A0109",
"+  c #130203",
"@  c #150907",
"#  c #01041C",
"$  c #050511",
"%  c #3E1D0B",
"&  c #371E18",
"*  c #39210A",
"=  c #34211B",
"-  c #2E211A",
";  c #020522",
":  c #302220",
">  c #441B0B",
",  c #481D08",
"<  c #5A0911",
"1  c #530D13",
"2  c #5A0E10",
"3  c #640606",
"4  c #6D0206",
"5  c #65040C",
"6  c #6A020C",
"7  c #680911",
"8  c #750316",
"9  c #632E16",
"0  c #601720",
"q  c #692D3C",
"w  c #784B2A",
"e  c #2E2F43",
"r  c #372D4C",
"t  c #313149",
"y  c #323047",
"u  c #3A3250",
"i  c #484361",
"p  c #56596D",
"a  c #585A6D",
"s  c #5B546A",
"d  c #555B72",
"f  c #595A72",
"g  c #5D5672",
"h  c #61556F",
"j  c #71757B",
"k  c #8D1215",
"l  c #AA1B04",
"z  c #A91B08",
"x  c #9A2B08",
"c  c #9B3607",
"v  c #882919",
"b  c #A12303",
"n  c #A82702",
"m  c #A93307",
"M  c #920F20",
"N  c #BC0425",
"B  c #BB0B23",
"V  c #BE0432",
"C  c #BA0B31",
"Z  c #BA0C3C",
"A  c #A61733",
"S  c #BA1032",
"D  c #AB0F37",
"F  c #C4011F",
"G  c #CD1B0F",
"H  c #FE0302",
"J  c #FB0902",
"K  c #FD040D",
"L  c #F30E05",
"P  c #F4140A",
"I  c #C30024",
"U  c #C5042D",
"Y  c #C20237",
"T  c #B2460D",
"R  c #B74512",
"E  c #AE4813",
"W  c #A75D23",
"Q  c #986828",
"!  c #CA5E0E",
"~  c #CA5C17",
"^  c #CD600E",
"/  c #D56512",
"(  c #D46E14",
")  c #E4750B",
"_  c #E17414",
"`  c #C55D20",
"'  c #C86A24",
"]  c #B91844",
"[  c #D91644",
"{  c #E4034C",
"}  c #E0084D",
"|  c #E20554",
" . c #FE037D",
".. c #FE0B7D",
"X. c #F2116F",
"o. c #DC366C",
"O. c #ED356D",
"+. c #E7396C",
"@. c #EA3673",
"#. c #E73A74",
"$. c #E83B77",
"%. c #F13170",
"&. c #DF416F",
"*. c #E24479",
"=. c #FD8B03",
"-. c #FC8A09",
";. c #F78A09",
":. c #E8851A",
">. c #FB8B15",
",. c #F58715",
"<. c #EB9111",
"1. c #F38925",
"2. c #F18C30",
"3. c #EBBB2D",
"4. c #F1D729",
"5. c #F7F639",
"6. c #BD947A",
"7. c #F3BA4A",
"8. c #C29A6D",
"9. c #F7EC45",
"0. c #7C7C8B",
"q. c #7A7883",
"w. c #7F7C94",
"e. c #FF0382",
"r. c #FD0A80",
"t. c #FC1185",
"y. c #F2268A",
"u. c #867D89",
"i. c #D8548B",
"p. c #F14F89",
"a. c #F84988",
"s. c #ED518A",
"d. c #E5558F",
"f. c #F2518F",
"g. c #F25291",
"h. c #E65794",
"j. c #FA6296",
"k. c #FE649C",
"l. c #FB699D",
"z. c #E46698",
"x. c #F552A3",
"c. c #FE65A2",
"v. c #FC68A3",
"b. c #F568A8",
"n. c #FB78B1",
"m. c #F978B9",
"M. c #E965A0",
"N. c #FA7FC2",
"B. c #7E8286",
"V. c #7D8189",
"C. c #7C8293",
"Z. c #828086",
"A. c #81818C",
"S. c #838190",
"D. c #8F919F",
"F. c #91919C",
"G. c #9F9EAE",
"H. c #9698A5",
"J. c #9E9CB3",
"K. c #A19FB2",
"L. c #9EA3AF",
"P. c #9DA2B2",
"I. c #A1A0AF",
"U. c #A1A0B2",
"Y. c #AAA5B3",
"T. c #FE86BE",
"R. c #FD8BBF",
"E. c #EEC48A",
"W. c #FE86C2",
"Q. c #FD8AC2",
"!. c #F98CC6",
"~. c #FD93CE",
"^. c #F092C3",
"/. c #FD96D3",
"(. c #FD9AD6",
"). c #FF97D8",
"_. c #FE9BDB",
"`. c #F79DD9",
"'. c #F6A2D1",
"]. c #FC9AE1",
"[. c #BBC6DA",
"{. c #FAEED0",
"}. c #FDCCEA",
"|. c #FBF7E5",
" X c #FDF5F2",
".X c #F9F7FA",
"XX c #EFE9E4",
"oX c None",
/* pixels */
"oXoXoXoXoXoXoXoXoXoXoXoXoXoXoXoXoXoXoXoXoXoXoXoXoXoXoXoXoXoXoXoXoXoXoXoXoXoXoXoXoXoXoXoXoXoXoXoXoXoXoXoXoXoXoXoXoXoXoXoXoXoXoXoX",
"oXoXoXoXoXoXoXoXoXoXoXoXoXoXoXoXoXoXoXoXoXoXoXoXoXoXoXoXoXoXoXoXoXoXoXoXoXoXoXoXoXoXoXoXoXoXoXoXoXoXoXoXoXoXoXoXoXoXoXoXoXoXoXoX",
"oXoXoXoXoXoXoXoXoXoXoXoXoXoXoXoXoXoXoXoXoXoXoXoXoXoXoXoXoXoXoXoXoXoXoXoXoXoXoXoXoXoXoXoXoXoXoXoXoXoXoXoXoXoXoXoXoXoXoXoXoXoXoXoX",
"oXoXoXoXoXoXoXoXoXoXoXoXoXoXoXoXoXoXoXoXoXoXoXoXoXoXoXoXoXoXoXoXoXoXoXoXoXoXoXoXoXoXoXoXoXoXoXoXoXoXoXoXoXoXoXoXoXoXoXoXoXoXoXoX",
"oXoXoXoXoXoXoXoXoXoXoXoXoXoXoXoXoXoXoXoXoXoXoXoXoXoXoXoXoXoXoXoXoXoXoXoXoXoXoXoXoXoXoXoXoXoXoXoXoXoXoXoXoXoXoXoXoXoXoXoXoXoXoXoX",
"oXoXoXoXoXoXoXoXoXoXoXoXoXoXoXoXoXoXoXoXoXoXoXoXoXoXoXoXoXoXoXoXoXoXoXoXoXoXoXoXoXoXoXoXoXoXoXoXoXoXoXoXoXoXoXoXoXoXoXoXoXoXoXoX",
"oXoXoXoXoXoXoXoXoXoXoXoXoXoXoXoXoXoXoXoXoXoXoXoXoXoXoXoXoXoXoXoXoXoXoXoXoXoXoXoXoXoXoXoXoXoXoXoXoXoXoXoXoXoXoXoXoXoXoXoXoXoXoXoX",
"oXoXoXoXoXoXoXoXoXoXoXoXoXoXoXoXoXoXoXoXoXoXoXoXoXoXoXoXoXoXoXoXoXoXoXoXoXoXoXoXoXoXoXoXoXoXoXoXoXoXoXoXoXoXoXoXoXoXoXoXoXoXoXoX",
"oXoXoXoXoXoXoXoXoXoXoXoXoXoXoXoXoXoXoXoXoXoXoXoXoXoXoXoXoXoXoXoXoXoXoXoXoXoXoXoXoXoXoXoXoXoXoXoXoXoXoXoXoXoXoXoXoXoXoXoXoXoXoXoX",
"oXoXoXoXoXoXoXoXoXoXoXoXoXoXoXoXoXoXoXoXoXoXoXoXoXoXoXoXoXoXoXoXoXoXoXoXoXoXoXoXoXoXoXoXoXoXoXoXoXoXoXoXoXoXoXoXoXoXoXoXoXoXoXoX",
"oXoXoXoXoXoXoXoXoXoXoXoXoXoXoXoXoXoXoXoXoXoXoXoXoXoXoXoXoXoXoXoXoXoXoXoXoXoXoXoXoXoXoXoXoXoXoXoXoXoXoXoXoXoXoXoXoXoXoXoXoXoXoXoX",
"oXoXoXoXoXoXoXoXoXoXoXoXoXoXoXoXoXoXoXoXoXoXoXoXoXoXoXoXoXoXoXoXoXoXoXoXoXoXoXoXoXoXoXoXoXoXoXoXoXoXoXoXoXoXoXoXoXoXoXoXoXoXoXoX",
"oXoXoXoXoXoXoXoXoXoXoXoXoXoXoXoXoXoXoXoXoXoXoXoXoXoXoXoXoXoXoXoXoXoXoXoXoXoXoXoXoXoXoXoXoXoXoXoXoXoXoXoXoXoXoXoXoXoXoXoXoXoXoXoX",
"oXoXoXoXoXoXoXoXoXoXoXoXoXoXoXoXoXoXoXoXoXoXoXoXoXoXoXoXoXoXoXoXoXoXoXoXoXoXoXoXoXoXoXoXoXoXoXoXoXoXoXoXoXoXoXoXoXoXoXoXoXoXoXoX",
"oXoXoXoXoXoXoXoXoXoXoXoXoXoXoXoXoXoXoXoXoXoXoXoXoXoXoXoXoXoXoXoXoXoXoXoXoXoXoXoXoXoXoXoXoXoXoXoXoXoXoXoXoXoXoXoXoXoXoXoXoXoXoXoX",
"oXoXoXoXoXoXoXoXoXoXoXoXoXoXoXoXoXoXoXoXoXoXoXoXoXoXoXoXoXoXoXoXoXoXoXoXoXoXoXoXoXoXoXoXoXoXoXoXoXoXoXoXoXoXoXoXoXoXoXoXoXoXoXoX",
"oXoXoXoXoXoXoXoXoXoXoXoXoXoXoXoXoXoXoXoXoXoXoXoXoXoXoXoXoXoXoXoXoXoXoXoXoXoXoXoXoXoXoXoXoXoXoXoXoXoXoXoXoXoXoXoXoXoXoXoXoXoXoXoX",
"oXoXoXoXoXoXoXoXoXoXoXoXoXoXoXoXoXoXoXoXoXoXoXoXoXoXoXoXoXoXoXoXoXoXoXoXoXoXoXoXoXoXoXoXoXoXoXoXoXoXoXoXoXoXoXoXoXoXoXoXoXoXoXoX",
"oXoXoXoXoXoXoXoXoXoXoXoXoXoXoXoXoXoXoXoXoX# o o o o o o o $ oXoXoXoXoXoXoXoXoXoXoXoXoXoXoXoXoXoXoXoXoXoXoXoXoXoXoXoXoXoXoXoXoXoX",
"oXoXoXoXoXoXoXoXoXoXoXoXoXoXoXoXoXoXoXX X s j K.U.U.U.G.A.f     oXoXoXoXoXoXoXoXoXoXoXoXoXoXoXoXoXoXoXoXoXoXoXoXoXoXoXoXoXoXoXoX",
"oXoXoXoXoXoXoXoXoXoXoXoXoXoXoXoXoXoXX j p 0.F.K.U.U.I.U.P.I.U.B.  oXoXoXoXoXoXoXoXoXoXoXoXoXoXoXoXoXoXoXoXoXoXoXoXoXoXoXoXoXoXoX",
"oXoXoXoXoXoXoXoXoXoXoXoXoXoXoXoXoXO Z.G.Z.G.U.U.U.K.L.w.g h Z.P.V.    O . . oXoXoXoXoXoXoXoXoXoXoXoXoXoXoXoXoXoXoXoXoXoXoXoXoXoX",
"oXoXoXoXoXoXoXoXoXoXoXoXoXoXoXoX  Z.P.U.Z.G.U.K.U.K.V.u.a.p.f.V.P.V.  l.@.4 + oXoXoXoXoXoXoXoXoXoXoXoXoXoXoXoXoXoXoXoXoXoXoXoXoX",
"oXoXoXoXoXoXoXoXoXoXoXoXoXoXoX  f A.U.K.V.G.I.U.K.K.h g._. X.X[.V.A.d (._.v.7 . oXoXoXoXoXoXoXoXoXoXoXoXoXoXoXoXoXoXoXoXoXoXoXoX",
"oXoXoXoXoXoXoXoXoXoXoXoXoXoXoX  A.U.U.U.I.A.F.U.D.V.d [.[._._.a.d d d !._._.*.. oXoXoXoXoXoXoXoXoXoXoXoXoXoXoXoXoXoXoXoXoXoXoXoX",
"oXoXoXoXoXoXoXoXoXoXoXoXoXoX. d Z.U.U.U.U.A.Z.f i t r f.`.`.(.5 c.!.V +.Q.W.$.. oXoXoXoXoXoXoXoXoXoXoXoXoXoXoXoXoXoXoXoXoXoXoXoX",
"oXoXoXoXoXoXoXoXoXoXoXoXoXoX  S.Z.U.U.U.Z.f i i.s.h.'.8 y.'.(..X. v.T.8 @.k.2 X oXoXoXoXoXoXoXoXoXoXoXoXoXoXoXoXoXoXoXoXoXoXoXoX",
"oXoXoXoXoXoXoXoXoXoXoXoXoXoX  K.V.Z.U.A.y d.a./._._.(.XX6 k._.v.4 C _.$.3 * ,.=.@ ; oX    X oXoXoXoXoXoXoXoXoXoXoXoXoXoXoXoXoXoX",
"oXoXoXoXoXoXoXoXoXoXoXoXoXoX  U.V.f A.d d.~._._._._.(.z.+ Z `._.S + _.W.6 . :.-.>.w O ~ 1.` # oXoXoXoXoXoXoXoXoXoXoXoXoXoXoXoXoX",
"oXoXoXoXoXoXoXoXoXoXoXoXoXoX. A.G.d d i.~.(.`._._._._.^.< 4 _._.j.  _._.D . @ >.-.,.:.>.=.=.Q X oXoXoXoXoXoXoXoXoXoXoXoXoXoXoXoX",
"oXoXoXoXoXoXoXoXoXoXoXoXoXX t p V.r b.T.'._._._._._._.~.&.. _._.W.  ].].@.. oXo :.=.=.>.;.^ m 2.X oXoXoXoXoXoXoXoXoXoXoXoXoXoXoX",
"oXoXoXoXoXoXoXoXoXoXoXoXX Y.0.f u M.`./._._._._.~.Q.~.T.j.  _._.(.A b.y.+.. X v ,.=.=.) ^ x ,./ v = : oXoXoXoXoXoXoXoXoXoXoXoXoX",
"oXoXoXoXoXoXoXoXoXoXoX# p H.0.i q n.).`._._._._.m.x.x.x.n.0 _._._.i.N.x.@.. . ~ >.=.>.! R ~ _ T 6.Q 9 oXoXoXoXoXoXoXoXoXoXoXoXoX",
"oXoXoXoXoXoXoXoXoXoXoX  Y.q.0.e ] !._._._._._._.b.t.y.y.Q.] _._.~._.).Q.+..   ,.-.=.,.T m =.^ c .X7.m > > oXoXoXoXoXoXoXoXoXoXoX",
"oXoXoXoXoXoXoXoXoXoXoX# ; # ;   p.~._._._./.T.).`.~.~./._.]._._.O.~.Q.n.M . ; 9 _ ^ R / _ E 6.4.E. X' G G * oXoXoXoXoXoXoXoXoXoX",
"oXoXoXoXoXoXoXoXoXoXoXoXoXoXoX  v.Q.)._.).Q.n./._._._._._._.).(.$.Q.T.k.2 X oX# W T m ) ~ m |.9.,.{.l K J * oXoXoXoXoXoXoXoXoXoX",
"oXoXoXoXoXoXoXoXoXoXoXoXoXoXoX  v.!.Q.Q.v.l.v.T.~.`.)._._.(.Q.Q.!.T.c.+.  oXoXoX$ w 1.T c 3. X Xz z H J P & oXoXoXoXoXoXoXoXoXoX",
"oXoXoXoXoXoXoXoXoXoXoXoXoXoXoX  A g.c.k.g.#.p.T.W.T.T.W.T.Q.T.W.v.v.c.D   oXoXoXoXoXO 6.{.5.<.b H H H L % oXoXoXoXoXoXoXoXoXoXoX",
"oXoXoXoXoXoXoXoXoXoXoXoXoXoXoX$   Z O.@.V Y o.c.c.l.c.c.c.c.c.c.v.k.$.. . oXoXoXoXoXoXQ 7.|.9.l H J P x - oXoXoXoXoXoXoXoXoXoXoX",
"oXoXoXoXoXoXoXoXoXoXoXoXoXoXoXoXX   5 5 B [ } O.p.v.c.c.c.c.c.c.c.@.6 N   oXoXoXoXoXoXoX, x l K J x % * oXoXoXoXoXoXoXoXoXoXoXoX",
"oXoXoXoXoXoXoXoXoXoXoXoXoXoXoXoXX 4 V }  . .e...X.| @.k.c.k.k.O.U 4 I | N . oXoXoXoXoXoX> x K H P = oXoXoXoXoXoXoXoXoXoXoXoXoXoX",
"oXoXoXoXoXoXoXoXoXoXoXoXoXoXoXoXX I }.y.e.e.e.e.e...{ U @.V S 5 3 N { ..| . oXoXoXoXoXoXoX> J K b = oXoXoXoXoXoXoXoXoXoXoXoXoXoX",
"oXoXoXoXoXoXoXoXoXoXoXoXoXoXoXoX  F ..e.e.e.e.e.r.X.B 1     3 6 I { { { 3   oXoXoXoXoXoXoXoX* * * oXoXoXoXoXoXoXoXoXoXoXoXoXoXoX",
"oXoXoXoXoXoXoXoXoXoXoXoXoXoXoXoXX 3 } } { { { N k <   X oXoX              oXoXoXoXoXoXoXoXoXoXoXoXoXoXoXoXoXoXoXoXoXoXoXoXoXoXoX",
"oXoXoXoXoXoXoXoXoXoXoXoXoXoXoXoXoX              . X oXoXoXoXoXoXoXoXoXoXoXoXoXoXoXoXoXoXoXoXoXoXoXoXoXoXoXoXoXoXoXoXoXoXoXoXoXoX",
"oXoXoXoXoXoXoXoXoXoXoXoXoXoXoXoXoXoXoXoXoXoXoXoXoXoXoXoXoXoXoXoXoXoXoXoXoXoXoXoXoXoXoXoXoXoXoXoXoXoXoXoXoXoXoXoXoXoXoXoXoXoXoXoX",
"oXoXoXoXoXoXoXoXoXoXoXoXoXoXoXoXoXoXoXoXoXoXoXoXoXoXoXoXoXoXoXoXoXoXoXoXoXoXoXoXoXoXoXoXoXoXoXoXoXoXoXoXoXoXoXoXoXoXoXoXoXoXoXoX",
"oXoXoXoXoXoXoXoXoXoXoXoXoXoXoXoXoXoXoXoXoXoXoXoXoXoXoXoXoXoXoXoXoXoXoXoXoXoXoXoXoXoXoXoXoXoXoXoXoXoXoXoXoXoXoXoXoXoXoXoXoXoXoXoX",
"oXoXoXoXoXoXoXoXoXoXoXoXoXoXoXoXoXoXoXoXoXoXoXoXoXoXoXoXoXoXoXoXoXoXoXoXoXoXoXoXoXoXoXoXoXoXoXoXoXoXoXoXoXoXoXoXoXoXoXoXoXoXoXoX",
"oXoXoXoXoXoXoXoXoXoXoXoXoXoXoXoXoXoXoXoXoXoXoXoXoXoXoXoXoXoXoXoXoXoXoXoXoXoXoXoXoXoXoXoXoXoXoXoXoXoXoXoXoXoXoXoXoXoXoXoXoXoXoXoX",
"oXoXoXoXoXoXoXoXoXoXoXoXoXoXoXoXoXoXoXoXoXoXoXoXoXoXoXoXoXoXoXoXoXoXoXoXoXoXoXoXoXoXoXoXoXoXoXoXoXoXoXoXoXoXoXoXoXoXoXoXoXoXoXoX",
"oXoXoXoXoXoXoXoXoXoXoXoXoXoXoXoXoXoXoXoXoXoXoXoXoXoXoXoXoXoXoXoXoXoXoXoXoXoXoXoXoXoXoXoXoXoXoXoXoXoXoXoXoXoXoXoXoXoXoXoXoXoXoXoX",
"oXoXoXoXoXoXoXoXoXoXoXoXoXoXoXoXoXoXoXoXoXoXoXoXoXoXoXoXoXoXoXoXoXoXoXoXoXoXoXoXoXoXoXoXoXoXoXoXoXoXoXoXoXoXoXoXoXoXoXoXoXoXoXoX",
"oXoXoXoXoXoXoXoXoXoXoXoXoXoXoXoXoXoXoXoXoXoXoXoXoXoXoXoXoXoXoXoXoXoXoXoXoXoXoXoXoXoXoXoXoXoXoXoXoXoXoXoXoXoXoXoXoXoXoXoXoXoXoXoX",
"oXoXoXoXoXoXoXoXoXoXoXoXoXoXoXoXoXoXoXoXoXoXoXoXoXoXoXoXoXoXoXoXoXoXoXoXoXoXoXoXoXoXoXoXoXoXoXoXoXoXoXoXoXoXoXoXoXoXoXoXoXoXoXoX",
"oXoXoXoXoXoXoXoXoXoXoXoXoXoXoXoXoXoXoXoXoXoXoXoXoXoXoXoXoXoXoXoXoXoXoXoXoXoXoXoXoXoXoXoXoXoXoXoXoXoXoXoXoXoXoXoXoXoXoXoXoXoXoXoX",
"oXoXoXoXoXoXoXoXoXoXoXoXoXoXoXoXoXoXoXoXoXoXoXoXoXoXoXoXoXoXoXoXoXoXoXoXoXoXoXoXoXoXoXoXoXoXoXoXoXoXoXoXoXoXoXoXoXoXoXoXoXoXoXoX",
"oXoXoXoXoXoXoXoXoXoXoXoXoXoXoXoXoXoXoXoXoXoXoXoXoXoXoXoXoXoXoXoXoXoXoXoXoXoXoXoXoXoXoXoXoXoXoXoXoXoXoXoXoXoXoXoXoXoXoXoXoXoXoXoX",
"oXoXoXoXoXoXoXoXoXoXoXoXoXoXoXoXoXoXoXoXoXoXoXoXoXoXoXoXoXoXoXoXoXoXoXoXoXoXoXoXoXoXoXoXoXoXoXoXoXoXoXoXoXoXoXoXoXoXoXoXoXoXoXoX",
"oXoXoXoXoXoXoXoXoXoXoXoXoXoXoXoXoXoXoXoXoXoXoXoXoXoXoXoXoXoXoXoXoXoXoXoXoXoXoXoXoXoXoXoXoXoXoXoXoXoXoXoXoXoXoXoXoXoXoXoXoXoXoXoX",
"oXoXoXoXoXoXoXoXoXoXoXoXoXoXoXoXoXoXoXoXoXoXoXoXoXoXoXoXoXoXoXoXoXoXoXoXoXoXoXoXoXoXoXoXoXoXoXoXoXoXoXoXoXoXoXoXoXoXoXoXoXoXoXoX",
"oXoXoXoXoXoXoXoXoXoXoXoXoXoXoXoXoXoXoXoXoXoXoXoXoXoXoXoXoXoXoXoXoXoXoXoXoXoXoXoXoXoXoXoXoXoXoXoXoXoXoXoXoXoXoXoXoXoXoXoXoXoXoXoX",
"oXoXoXoXoXoXoXoXoXoXoXoXoXoXoXoXoXoXoXoXoXoXoXoXoXoXoXoXoXoXoXoXoXoXoXoXoXoXoXoXoXoXoXoXoXoXoXoXoXoXoXoXoXoXoXoXoXoXoXoXoXoXoXoX",
"oXoXoXoXoXoXoXoXoXoXoXoXoXoXoXoXoXoXoXoXoXoXoXoXoXoXoXoXoXoXoXoXoXoXoXoXoXoXoXoXoXoXoXoXoXoXoXoXoXoXoXoXoXoXoXoXoXoXoXoXoXoXoXoX"
};
