/* XPM */
static char *_8f5f7ebca1642a3ec2de6a841740af9CspK71iN0ggG45ob[] = {
/* columns rows colors chars-per-pixel */
"64 64 231 2 ",
"   c None",
".  c #0D060C",
"X  c #0D0A0D",
"o  c #080406",
"O  c #1C040A",
"+  c #1A0505",
"@  c #0C0C14",
"#  c #110C17",
"$  c #0D121C",
"%  c #14151A",
"&  c #111216",
"*  c #21120C",
"=  c #28131A",
"-  c #351318",
";  c #370C0F",
":  c #3B2314",
">  c #161924",
",  c #3A1A26",
"<  c #1A2334",
"1  c #1C212F",
"2  c #3E2A2C",
"3  c #383438",
"4  c #252937",
"5  c #450D14",
"6  c #580D16",
"7  c #4E1211",
"8  c #691418",
"9  c #700C1C",
"0  c #472B17",
"q  c #582E0E",
"w  c #692C0B",
"e  c #6E3110",
"r  c #4C1D2B",
"t  c #73132A",
"y  c #543331",
"u  c #6A2C32",
"i  c #764513",
"p  c #6E4E37",
"a  c #23324A",
"s  c #2A3145",
"d  c #2B364E",
"f  c #453C43",
"g  c #70354C",
"h  c #314767",
"j  c #43454B",
"k  c #48464C",
"l  c #4A4A59",
"z  c #524953",
"x  c #7E4453",
"c  c #585867",
"v  c #5D5B72",
"b  c #554F61",
"n  c #6F546E",
"m  c #5D606C",
"M  c #666476",
"N  c #72737C",
"B  c #77677D",
"V  c #82101E",
"C  c #9C3603",
"Z  c #882E0E",
"A  c #B52D08",
"S  c #B13012",
"D  c #8A0D22",
"F  c #950924",
"G  c #871726",
"H  c #8A0E34",
"J  c #B70337",
"K  c #A51135",
"L  c #A80431",
"P  c #8C2335",
"I  c #9C2438",
"U  c #922D22",
"Y  c #B02038",
"T  c #CA2D08",
"R  c #DA2C16",
"E  c #CF2F0E",
"W  c #F42A0E",
"Q  c #F9280E",
"!  c #EC2C14",
"~  c #F52A14",
"^  c #F92814",
"/  c #EB3017",
"(  c #E73930",
")  c #91490A",
"_  c #A44801",
"`  c #AA5504",
"'  c #B95B02",
"]  c #BD6305",
"[  c #BC6D17",
"{  c #AC670E",
"}  c #BC7C3E",
"|  c #9D592D",
" . c #C15F01",
".. c #C86906",
"X. c #D47403",
"o. c #DC7B08",
"O. c #D17913",
"+. c #B50547",
"@. c #B01A46",
"#. c #97354B",
"$. c #AB2B46",
"%. c #AA334D",
"&. c #B73653",
"*. c #C80348",
"=. c #D3125B",
"-. c #E0025E",
";. c #C9345B",
":. c #E40D69",
">. c #E9116E",
",. c #E41A6D",
"<. c #F4167A",
"1. c #EC1774",
"2. c #CA3F61",
"3. c #D42A61",
"4. c #F3207D",
"5. c #D61363",
"6. c #A74551",
"7. c #9D587A",
"8. c #915470",
"9. c #B94766",
"0. c #B9516E",
"q. c #AD557B",
"w. c #96637E",
"e. c #A8655C",
"r. c #CA466A",
"t. c #CC4C71",
"y. c #D74973",
"u. c #D85279",
"i. c #CF5075",
"p. c #C2607E",
"a. c #CD5D53",
"s. c #BE9A3A",
"d. c #DD8404",
"f. c #E88708",
"g. c #F38C04",
"h. c #FA9102",
"j. c #F79108",
"k. c #E3821B",
"l. c #CB8722",
"z. c #E3BB16",
"x. c #F6D52E",
"c. c #D39F7E",
"v. c #EDB96B",
"b. c #D9B458",
"n. c #7B7B85",
"m. c #7B7C89",
"M. c #747585",
"N. c #F81981",
"B. c #F81B82",
"V. c #F4368A",
"C. c #975F81",
"Z. c #A85D82",
"A. c #8B7C8B",
"S. c #AF7091",
"D. c #BA79A2",
"F. c #AA7AA0",
"G. c #CF5E84",
"H. c #DA5B84",
"J. c #E45A88",
"K. c #F15091",
"L. c #CB6788",
"P. c #D76A93",
"I. c #D47399",
"U. c #D26791",
"Y. c #E5618D",
"T. c #EE6D9C",
"R. c #E76896",
"E. c #E8739C",
"W. c #F1709E",
"Q. c #FB5EA5",
"!. c #DD7CA5",
"~. c #F86BA8",
"^. c #ED73A3",
"/. c #EA7AA7",
"(. c #F071A1",
"). c #F279AA",
"_. c #F578B3",
"`. c #7D808A",
"'. c #83838C",
"]. c #88888F",
"[. c #8A8994",
"{. c #8C8C99",
"}. c #878691",
"|. c #91929D",
" X c #9594A2",
".X c #9999A5",
"XX c #9D9CAB",
"oX c #9799A6",
"OX c #A09FAE",
"+X c #9FA1AF",
"@X c #A1A0AF",
"#X c #AAA6B6",
"$X c #A68587",
"%X c #D9B389",
"&X c #D18CAB",
"*X c #E981AC",
"=X c #F381AE",
"-X c #E884B4",
";X c #F684B3",
":X c #F68CBC",
">X c #FA84BB",
",X c #ED91BE",
"<X c #F7D98D",
"1X c #F9F28C",
"2X c #DFC0A9",
"3X c #F6E8BE",
"4X c #BDB6C9",
"5X c #F38DC0",
"6X c #F88FC0",
"7X c #F594C6",
"8X c #F893C3",
"9X c #F696CB",
"0X c #F996C9",
"qX c #F59ACC",
"wX c #F999CF",
"eX c #F79CD2",
"rX c #F99DD4",
"tX c #FA9FD8",
"yX c #EB98C6",
"uX c #F7A1D5",
"iX c #F9A0D6",
"pX c #F6A2D9",
"aX c #F9A0D8",
"sX c #F7ACD9",
"dX c #EEADD8",
"fX c #DDA7CB",
"gX c #C2C0D8",
"hX c #EED6CB",
"jX c #F9EDDB",
"kX c #F5DAE9",
"lX c #FBEFF2",
/* pixels */
"                                                                                                                                ",
"                                                                                                                                ",
"                                                                                                                                ",
"                                                                                                                                ",
"                                                                                                                                ",
"                                                                                                                                ",
"                                                                                                                                ",
"                                                                                                                                ",
"                                                                                                                                ",
"                                                                                                                                ",
"                                                                                              r 2 2                             ",
"                                                                                            U R R Z y                           ",
"                                                                                          y A ^ W T q                           ",
"                                                                                        f w A E W ! Z                           ",
"                                                                                        p | } ] E ~ T C e y                     ",
"                                                                                      0 s.<X1Xz.C W ~ ~ R Z :                   ",
"                                                                                    > Z 2X1Xx.d.C ~ ^ Q ~ S 0                   ",
"                                                                                  0 O.] | l.<XjXhXC C T ^ W R u                 ",
"                                                                                y ) ' o.' ' %XjX1XO.c.a.T ^ ! w                 ",
"                                                                              f ) .._ ..X.' e.%Xx.v.jX%X' E T q                 ",
"                                                                            < e f.g.X._ ..X.' ` l.lX3Xv.{ w w k                 ",
"                                      $ & % % % % % & @ h                   < i g.h.h..._  .o.] ) hXb.{ e 2 2                   ",
"                                h $ 1 l N }.{.{.{.[.M.c s $ a               < 7 ..h.h.f...` ..f.] | e 0 y                       ",
"                              a j v c n.XXOX@X@X@X+XXXoX X}.c >                 ) h.h.h.g.X.` ` k.*                             ",
"                            d l N '.n. X@X@X@X@XXX{.m.M.`.{.'.z d a a a a a a p O.h.h.h.h.g..._ q                               ",
"                            3 N oX|.[.OX@X@X@XXX|.A.w.8.w.S.|.[.k X = y r o 0 { h.f.` X.f.g.{ e s                               ",
"                          % n..X@X|.].OX@X@X@XoXm.A.U.R.E.I.{..X}.4 x E.i.O [ j.f.{ * e [ ..q 4                                 ",
"                        > c ]..X@X|.[.XX@X@XXX{.B I.yXkXlXkX#Xm.n.M F.rXqXy [ o.i     > $ $                                     ",
"                        > N XX@X@XXX X].XX@X|.n.M.4XgXdXsXqXL.M v v S.7XtX-Xp :                                                 ",
"                      d l `.OX@X@X@X.X'.[.m.v l n &XfXpXiX-X#.S.D.6.0.W.7X7X0.r                                                 ",
"                      3 M.'.OX@X@XoX'.M b 7.q.q.Z.#.G.7XtXfX$Xg U.R.9.%.Y./.r.8                                                 ",
"                      k [.'.|.XXXXm.M 8.x U.)._.,X7.6.!.wXsX&X- 6.-Xp.I %.i.$.5                                                 ",
"                      b .X'.m. X{.n g P.R.7XaXiXsXkXx t.-X9XG.9 P -X).9.8 I 8 -                                                 ",
"                      l  X'.v M.B Z.^.rXaXaXaXaXwX/.r t L.aX-X%.; D.wXI.8 7 =                                                   ",
"                      j [.oXv v 7./.wXpXaXaXaXaXrX7Xg 8 q.aX7XP., D.rX*XI O                                                     ",
"                    4 j N ].l C.I.5XpXiXaXaXaXpXaXeX0.5 8.aXeX*X2 D.aX:X2..                                                     ",
"                d m M v c b Z.-X9XrXaXaXtXpXeX0X0X8XT., n aXuX9X#.U.~.K.t..                                                     ",
"                k [. XM z g ).9XaXaXaXaXuXaX>X~.~.~.).u 7.aXaXuXP.^.~.K.t.X                                                     ",
"              @  Xm.N l y $.:XrXaXaXiXaXuXtX~.V.V.V._.t.P.pXrXwXrXrX0X).r.X                                                     ",
"              o % & & @ , r.9XtXaXaXaXtX0XeX0X>X>X>XwX7X9XpX5XH.:X9X8XE.$..                                                     ",
"                        , R.8XrXaXiXrX8X).9XrXrXrXrXaXaXiXaX5Xu.=X8X;XG.8 o                                                     ",
"                        , E.6X7X0X:X;X).^.5XeXpXpXaXaXaXrXqX5X/.:X;XT.9.=                                                       ",
"                        - i.;X;X;X).T.Y.(.:X0XwXwXwXwXwX0X:X:X;X;X).u.#..                                                       ",
"                        O t i.Y.Y.H.y.2.^.=X;X;X;X;X;X;X;X;X=X(.^.R.%.6 o                                                       ",
"                          o P &.r.&.Y @.Y.R.T.(.(.(.(.(.(.(.(.(.T.t.t + o                                                       ",
"                          o O 6 t D J *.=.y.J.(.^.(.(.(.(.^.W.T.H.P D 9 .                                   a.                  ",
"                          o 6 F J 5.1.<.<.4.,.3.J.W.(.W.(.R.y.$.G F J *.F >                                 (                   ",
"                          o G L.J.<.N.B.<.N.<.,.3.;.u.r.2.&.P V D J =.:.+..                               6./ 6.                ",
"                          o K E.Q.B.N.N.B.N.N.1.J F P t G G 8 V L *.-.5.K .                               E W T                 ",
"                          o D =.>.>.>.>.>.:.=.@.6 ;     , ; 5 9 t H H t 5                                 W ^ Q                 ",
"                            6 K +.+.+.+.+.L 9 5             @ @ # # # @                                   ! ^ !                 ",
"                            . O O O O O O + +                                                             A ! A                 ",
"                                                                                                                                ",
"                                                                                                                                ",
"                                                                                                                                ",
"                                                                                                                                ",
"                                                                                                                                ",
"                                                                                                                                ",
"                                                                                                                                ",
"                                                                                                                                ",
"                                                                                                                                ",
"                                                                                                                                ",
"                                                                                                                                ",
"                                                                                                                                "
};
