/* XPM */
static char *_fa337c7139b4d65e52f683109f20493VvKQyFSJkSQGtw5D[] = {
/* columns rows colors chars-per-pixel */
"60 60 218 2 ",
"   c None",
".  c #0B0000",
"X  c #120100",
"o  c #180000",
"O  c #6C3E01",
"+  c #733D02",
"@  c #7C3C00",
"#  c #7A3B06",
"$  c #773F1E",
"%  c #6A3D14",
"&  c #5B4815",
"*  c #6C4400",
"=  c #694605",
"-  c #734301",
";  c #7B4301",
":  c #7B4900",
">  c #734900",
",  c #674315",
"<  c #574C25",
"1  c #565030",
"2  c #684921",
"3  c #754625",
"4  c #7A773C",
"5  c #554644",
"6  c #6E615B",
"7  c #767958",
"8  c #6C795B",
"9  c #766E65",
"0  c #717564",
"q  c #7B7364",
"w  c #72797B",
"e  c #707272",
"r  c #823E00",
"t  c #824500",
"y  c #8A4200",
"u  c #8B4900",
"i  c #805214",
"p  c #8E720F",
"a  c #917101",
"s  c #9C7400",
"d  c #967F00",
"f  c #817A1F",
"g  c #A66C00",
"h  c #AB6C01",
"j  c #AB6C0D",
"k  c #B16C03",
"l  c #B86E00",
"z  c #A27301",
"x  c #AC7300",
"c  c #A87805",
"v  c #B37400",
"b  c #B97200",
"n  c #B37709",
"m  c #A56F1B",
"M  c #B77310",
"N  c #9A6D2B",
"B  c #857A28",
"V  c #987825",
"C  c #9A6834",
"Z  c #847238",
"A  c #97713F",
"S  c #A06D2B",
"D  c #A76C35",
"F  c #9D6D46",
"G  c #8F714D",
"H  c #877358",
"J  c #8F7453",
"K  c #A07844",
"L  c #8A6F65",
"P  c #7E8037",
"I  c #75832B",
"U  c #A08500",
"Y  c #DCB50A",
"T  c #DBAC16",
"R  c #DCB617",
"E  c #D4B510",
"W  c #E5B80A",
"Q  c #E4AB1B",
"!  c #E2AF16",
"~  c #E3B919",
"^  c #E4B814",
"/  c #D69E2F",
"(  c #CEAD22",
")  c #CDB220",
"_  c #D9B42B",
"`  c #DFAD32",
"'  c #D8B539",
"]  c #CCB938",
"[  c #E8A821",
"{  c #F0AC23",
"}  c #E3B123",
"|  c #EDB625",
" . c #DFC10B",
".. c #DBC011",
"X. c #EAD907",
"o. c #F3D70C",
"O. c #EAC81D",
"+. c #F2CF1D",
"@. c #EBD513",
"#. c #EED61A",
"$. c #E7D917",
"%. c #F7D914",
"&. c #E7E408",
"*. c #F3E40D",
"=. c #FBEA0B",
"-. c #F4EB07",
";. c #F3F204",
":. c #EBE618",
">. c #F3E313",
",. c #FDE614",
"<. c #F4EC12",
"1. c #FBED11",
"2. c #FFE51D",
"3. c #FAEA1B",
"4. c #F6E71C",
"5. c #E1F11F",
"6. c #F3F112",
"7. c #F8CF25",
"8. c #FCD320",
"9. c #F3DC24",
"0. c #FBD52A",
"q. c #FADC25",
"w. c #E9CF36",
"e. c #E9D33A",
"r. c #FCDB39",
"t. c #F2CD32",
"y. c #DEEA30",
"u. c #DFF330",
"i. c #ECE525",
"p. c #E4ED24",
"a. c #E4EC2A",
"s. c #E9E929",
"d. c #FBE525",
"f. c #F8E627",
"g. c #EFFB2F",
"h. c #F8F52A",
"j. c #E4EC32",
"k. c #EDE937",
"l. c #E7E638",
"z. c #F8E438",
"x. c #E5F230",
"c. c #ADBD4F",
"v. c #94B96C",
"b. c #BFAD6D",
"n. c #BAB86E",
"m. c #D7B242",
"M. c #C3B65C",
"N. c #C0BB69",
"B. c #DCCF43",
"V. c #D9D745",
"C. c #CDD252",
"Z. c #EECF43",
"A. c #E9D946",
"S. c #FBD954",
"D. c #F8DA46",
"F. c #DFE84D",
"G. c #DCE854",
"H. c #EAEA44",
"J. c #FAE648",
"K. c #F8FA4E",
"L. c #E8E255",
"P. c #FBE05D",
"I. c #E2F357",
"U. c #C1DD6E",
"Y. c #C6D27A",
"T. c #F3DB66",
"R. c #EFDE72",
"E. c #E6DE62",
"W. c #D7EA6A",
"Q. c #CBEF75",
"!. c #CBEB77",
"~. c #D1E470",
"^. c #DBF975",
"/. c #E4E861",
"(. c #F1E269",
"). c #FFF967",
"_. c #FFFF6B",
"`. c #FFF669",
"'. c #E1E371",
"]. c #FFFC7B",
"[. c #FEF776",
"{. c #9DBA80",
"}. c #A4BF9C",
"|. c #B8B781",
" X c #A6B7AA",
".X c #ABBFB5",
"XX c #BFDD83",
"oX c #BFCE93",
"OX c #BDD69F",
"+X c #A9D29A",
"@X c #B2C4B7",
"#X c #ABC1B5",
"$X c #DEDE88",
"%X c #D2D79D",
"&X c #E4DE88",
"*X c #CDEC8E",
"=X c #DAE884",
"-X c #D9E587",
";X c #D3E997",
":X c #C5E697",
">X c #FFF681",
",X c #FFFE82",
"<X c #FFFB8B",
"1X c #E1E394",
"2X c #F9F998",
"3X c #E0E388",
"4X c #CCDEA0",
"5X c #C1D6B9",
"6X c #D0E7A3",
"7X c #FBFBA3",
"8X c #F1FEB4",
"9X c #FAF6B6",
"0X c #EBF4B5",
"qX c #B8E0D5",
"wX c #E5F9CA",
"eX c #EDF9DB",
"rX c #D7FFFA",
"tX c #EAFBE9",
/* pixels */
"                                                                                                                        ",
"                                                                                                                        ",
"                                                                                                                        ",
"                                                                                                                        ",
"                                                                                                                        ",
"                                                                                                                        ",
"                                                                                                                        ",
"                                                                                                                        ",
"                                                                                                                        ",
"                                                    #X X X@X X.X X@X                                                    ",
"                                                    Y.1X=XY.-X-X3X$X1X%X5X                                              ",
"                                              OX-XW.]._._._._.).).`.,X<X7X8X4X}.                                        ",
"                                          N.L.l.y.x.p.$.@.#.+.0.8.8.9.k.k.L.7X9X&XoX                                    ",
"                                        M.w.,.=.<.&.$.#.0.R _ ( _ T ~  .%.z.R.2X].E.{.                                  ",
"                                      B w.@.<.>.@.0.T x m O & < 1 & : @ h x ` S.D.)./.XX                                ",
"                                    B e.@.1.%...d a = G L           H A , - : z _ e.K.F.:X                              ",
"                                q V Z.#.&.1.^ > B 8                       9 i @ ; z #.i._.6X                            ",
"                                N h 8.3.1.f.a G                             6 3 + : Y q.z.'.                            ",
"                                c W ,.*.#.] 7                                   H + t | r._.=X                          ",
"                                } %.*.h.d 4                                       H @ k R z.H.c.                        ",
"                                7.,.=.E 4                                           $ y s d.>.K.v.                      ",
"                              b %.1.4.C.                                            L + c +.=.:.U.                      ",
"                              h d.:.l.I                                               2 + } >.g.~.                      ",
"                              [ >.h.G.                                                0 ; v 4.p.W.                      ",
"                              } 4.p.W.                                                w + v 9.s./.                      ",
"                              Q 3.a.!.                                                  C h q.:.l.'.                    ",
"                            t | 3.a.!.                                                  D l o.<.6.H.                    ",
"                            @ Q 2.a.Q.                                                  C b o.;.;.a.                    ",
"                            y { 2.a.Q.                                                  A v o.;.;.j.                    ",
"                            y [ d.a.Q.                                                  K h o.;.6.                      ",
"                              v d.a.Q.                                                  N v o.=.i.                      ",
"                              h d.a.W.                                                w - Q X.<.H.                      ",
"                              t Y f.G.                                                9 ; ! <.5.W.                      ",
"                              + | q.l.!.                                              , z 0.<.u.*X                      ",
"                                h ^ $.I.                                            H z O.o.-.l.+X                      ",
"                                @ x 2.k.*X                                          = T %.1.3.V.                        ",
"                                ; ; R f.j.^.                                      Z U %.=.X.k.c.                        ",
"                              e , t x r.*.a.;X                                  H p 9.*.=.i.C.                          ",
"                                H + @ k r.f._.;X                            Z V M.(.f.X.%.B.                            ",
"                                  H 3 r g ~ z.G.wXrXqX                  0 b.m.S.]._.$.#.) P                             ",
"                                    5 % t h r.J.2X8X2X;X5X           X|.n.&XR.[._.z.7._ 4                               ",
"                                      5 3 t g } T.(.L.[.7X0XeXtXtXwX2X>X[.,X>XT.B.A.m.Z                                 ",
"                                        e 2 @ y M / _ e.A.J.S.P.A.J.J.r.J.r.t.` ' f 7                                   ",
"                                            J + @ t : c s ~ ! Y W W Y Y R s c * 4                                       ",
"                                              w 5 2 @ r u j j n x g x g m = < 0                                         ",
"                                                    F D # # O * - - ; S F                                               ",
"                                                    X o o X X . . X o X X                                               ",
"                                                                                                                        ",
"                                                                                                                        ",
"                                                                                                                        ",
"                                                                                                                        ",
"                                                                                                                        ",
"                                                                                                                        ",
"                                                                                                                        ",
"                                                                                                                        ",
"                                                                                                                        ",
"                                                                                                                        ",
"                                                                                                                        ",
"                                                                                                                        ",
"                                                                                                                        "
};
