/* XPM */
static char *d544173d2a15417ec43359f28c6bfbcbVQ7f5rrHu5WJirr2[] = {
/* columns rows colors chars-per-pixel */
"60 60 247 2 ",
"   c None",
".  c #52493B",
"X  c #5E5240",
"o  c #29231C",
"O  c #28221B",
"+  c #393229",
"@  c #27221B",
"#  c #463D31",
"$  c #6D624F",
"%  c #7B6F5A",
"&  c #685B49",
"*  c #615645",
"=  c #3C3529",
"-  c #4E473C",
";  c #6C6353",
":  c #695D4C",
">  c #4D463A",
",  c #837660",
"<  c #655848",
"1  c #514536",
"2  c #2B2620",
"3  c #191510",
"4  c #322B21",
"5  c #70624D",
"6  c #887A64",
"7  c #302A21",
"8  c #473D33",
"9  c #574D40",
"0  c #93836C",
"q  c #39342D",
"w  c #3C352D",
"e  c #332B23",
"r  c #3A3126",
"t  c #231E17",
"y  c #26201A",
"u  c #494339",
"i  c #5C5040",
"p  c #5A4C3B",
"a  c #453B2D",
"s  c #433B30",
"d  c #211D19",
"f  c #3D342B",
"g  c #373027",
"h  c #40372D",
"j  c #52463A",
"k  c #2E2923",
"l  c #413B32",
"z  c #1D1914",
"x  c #241E18",
"c  c #463B30",
"v  c #4A3F31",
"b  c #352D23",
"n  c #2C271F",
"m  c #1F1B17",
"M  c #2E2B28",
"N  c #665D4E",
"B  c #736753",
"V  c #4D4334",
"C  c #1D1A14",
"Z  c #201C16",
"A  c #2B251D",
"S  c #191513",
"D  c #181613",
"F  c #15120F",
"G  c #1F1B15",
"H  c #332C24",
"J  c #443B34",
"K  c #3F3529",
"L  c #392B24",
"P  c #3C3228",
"I  c #433A2D",
"U  c #585245",
"Y  c #48443D",
"T  c #726450",
"R  c #484036",
"E  c #25201B",
"W  c #4D4439",
"Q  c #9C8B6F",
"!  c #B4A684",
"~  c #7B6D54",
"^  c #564C3D",
"/  c #453D2E",
"(  c #5F5242",
")  c #3A342B",
"_  c #2F2820",
"`  c #1A1615",
"'  c #2D2621",
"]  c #2C211C",
"[  c #342B22",
"{  c #27221D",
"}  c #38322B",
"|  c #4A443A",
" . c #AA997A",
".. c #948466",
"X. c #312B24",
"o. c #776953",
"O. c #6B5D4A",
"+. c #3F362B",
"@. c #2E2920",
"#. c #2D241F",
"$. c #25241E",
"%. c #2B2821",
"&. c #3C352E",
"*. c #4D4336",
"=. c #3D372D",
"-. c #4E4637",
";. c #655A48",
":. c #554A3B",
">. c #42392E",
",. c #5D5343",
"<. c #3D362E",
"1. c #81735C",
"2. c #4A4134",
"3. c #312B23",
"4. c #201E16",
"5. c #171310",
"6. c #2D261F",
"7. c #252221",
"8. c #100D0B",
"9. c #302621",
"0. c #2B251F",
"q. c #473F34",
"w. c #3F3932",
"e. c #5B5042",
"r. c #594D3D",
"t. c #594E3F",
"y. c #B6A381",
"u. c #3F372D",
"i. c #4B4133",
"p. c #302921",
"a. c #271F1D",
"s. c #291E19",
"d. c #121112",
"f. c #0E0B09",
"g. c #171410",
"h. c #2D251B",
"j. c #342F25",
"k. c #353129",
"l. c #454036",
"z. c #887D6A",
"x. c #40382B",
"c. c #554D3F",
"v. c #40382D",
"b. c #3C3227",
"n. c #433A2E",
"m. c #231D19",
"M. c #211A16",
"N. c #141611",
"B. c #222019",
"V. c #070506",
"C. c #221712",
"Z. c #211F1F",
"A. c #1B1713",
"S. c #1A1213",
"D. c #544740",
"F. c #76695A",
"G. c #C3B495",
"H. c #332E29",
"J. c #615648",
"K. c #5B4938",
"L. c #151315",
"P. c #0B0908",
"I. c #14110E",
"U. c #16120E",
"Y. c #151713",
"T. c #3E372E",
"R. c #615241",
"E. c #7A644D",
"W. c #44392B",
"Q. c #191611",
"!. c #211E14",
"~. c #1D1C19",
"^. c #16150D",
"/. c #171513",
"(. c #120F0C",
"). c #231E19",
"_. c #645442",
"`. c #2F271D",
"'. c #121512",
"]. c #17110F",
"[. c #1A1710",
"{. c #13100D",
"}. c #1D140F",
"|. c #0E0D0A",
" X c #0C0A08",
".X c #0D0C09",
"XX c #0A0907",
"oX c #2C2118",
"OX c #3B332B",
"+X c #8A7D67",
"@X c #73624A",
"#X c #5C4E3E",
"$X c #42372A",
"%X c #2D251C",
"&X c #22251C",
"*X c #0B0A07",
"=X c #090806",
"-X c #080705",
";X c #070605",
":X c #040605",
">X c #605140",
",X c #42392D",
"<X c #221F1B",
"1X c #625541",
"2X c #867257",
"3X c #957D62",
"4X c #0E0B0A",
"5X c #010201",
"6X c #060503",
"7X c #090805",
"8X c #060504",
"9X c #050403",
"0X c #050504",
"qX c #040302",
"wX c #010101",
"eX c #110F0C",
"rX c #9A8669",
"tX c #A48F72",
"yX c #74634E",
"uX c #836E57",
"iX c #AA8F70",
"pX c #040402",
"aX c #030302",
"sX c black",
"dX c #675945",
"fX c #8B755B",
"gX c #584639",
"hX c #020201",
"jX c #020102",
"kX c #63594A",
"lX c #8A785E",
"zX c #13110E",
"xX c #0E0C09",
"cX c #110E0B",
"vX c #5C5245",
"bX c #665A4A",
"nX c #908571",
"mX c #665948",
"MX c #675A48",
"NX c #726857",
"BX c #9E8566",
"VX c #575149",
"CX c #5D5447",
"ZX c #645644",
"AX c #3B3329",
"SX c #332C23",
"DX c #221D17",
/* pixels */
"                                                                                                                        ",
"                                                                                                                        ",
"                                                                                                                        ",
"                                                                                                                        ",
"                                                                                                                        ",
"                                                                                                                        ",
"                                                                                                                        ",
"                                                                                                                        ",
"                                                                                                                        ",
"                                                                                                                        ",
"                                                                                                                        ",
"                                                                                                                        ",
"                                                          . X                                                           ",
"                                          X X o O O       + @                                                           ",
"                                          X X o O O       + @                                                           ",
"                                          # # $ % % & * * =                                                             ",
"                                        - ; ; % : : > , , < 1 2 2 3 4 4 5 6 6 7                                         ",
"                                        - ; ; % : : > , , < 1 2 2 3 4 4 5 6 6 7                                         ",
"                            8 8       . < 9 9 0 6 6 2 q q w e r r t y y u ; ; i p , , X                                 ",
"                    a a s d f f g     h j k k u l l z x x f c v v b n n m M M # N ; ; B V V g                           ",
"                    a a s d f f g     h j k k u l l z x x f c v v b n n m M M # N ; ; B V V g                           ",
"                  # h h + C Z Z   r r A y S S D F F G H H J # K K L r r P I I s U Y Y 5 T T R E                         ",
"        W W Q ! ! ~ V V % ^ @ @ / ( ( ) _ Z Z ` d d ' ] ] ' H [ [ o { { } # # W | * *  .....v                           ",
"      X.o.o.% O.O.o.. . u W 4 4 +.c c X.@._ _ #.$.$.d #.#.y %.[ [ r e e &.a a *.=.-.-.;.:.:.>.z @ @ ,.= =               ",
"      X.o.o.% O.O.o.. . u W 4 4 +.c c X.@._ _ #.$.$.d #.#.y %.[ [ r e e &.a a *.=.-.-.;.:.:.>.z @ @ ,.= =               ",
"        g g <.9 9 1.T T ^ 2.3.3.4.5.5.4.6.{ { d 7.7.8.x x 9.2 3.3.9.0.0.+ v v q.w.e.e.$ ! ! O.r.@.@.z                   ",
"      I T T t.$ $ y.5 5 u.9 i.i.p.D D 6.a.y y s.d.d.f.g.g.$.$.E E h.{ { X.j.j.k.q.^ ^ l.z.z.! ! ,.,.n x.x.              ",
"      I T T t.$ $ y.5 5 u.9 i.i.p.D D 6.a.y y s.d.d.f.g.g.$.$.E E h.{ { X.j.j.k.q.^ ^ l.z.z.! ! ,.,.n x.x.              ",
"      o. . .~ c.c.1.5 5 2.# v.v.-.b.b.n.L m.m.M.N.N.B.V.V.C.Z.A.A.S.Z Z A x x 0.D.-.-.l.F.F.G., 2 2                     ",
"        ) ) H.U U 0 5 5 a 1 n.n.J.K.K.a A L.L.z M.M.H.P.P.I.I.3 3 U.C C z Y.Y.x i.T.T.> H.H.| R H H x.V V               ",
"              - - : ^ ^ R.E.W.W.+.a a 4 x z z 3 Q.Q.!.~.~.3 ^././.8.(.(.U.Q.Q.).7 h h W  . .T i i.i.            ;       ",
"              - - : ^ ^ R.E.W.W.+.a a 4 x z z 3 Q.Q.!.~.~.3 ^././.8.(.(.U.Q.Q.).7 h h W  . .T i i.i.            ;       ",
"              $ $ y.~ ~ _.r h.h.b `.`.` '.].].[.U.U.{.}.}.|. X.X.XXX|.|.I.A.A.oXH OXOXE l.l.*.$ q.q.                    ",
"              u u +Xi i @X#X$X$Xb %X%X4.&X|.|..X(.(.*X*X*X=X-X;X;X:XXXXX*X|.|.z a.0.0.) R R >X,X    o e.e.7             ",
"              u u +Xi i @X#X$X$Xb %X%X4.&X|.|..X(.(.*X*X*X=X-X;X;X:XXXXX*X|.|.z a.0.0.) R R >X,X    o e.e.7             ",
"              <X<Xl _ _ 1X2X3X3X#X$X$XS 4X5X5X6X7X7X-X-X-X=X8X9X9X0XqXqXwXwXwXeXa.v v rXtXtXyXP [ [ @.O.O.o.            ",
"                        O.uXiXiXiX2X2X1 U.qXqXpXaXaXaXqXqX0X9XpXpXpXsXsXsXsXsXP.t.>X>X, tXtXdXb =.=.n                   ",
"                        O.uXiXiXiX2X2X1 U.qXqXpXaXaXaXqXqX0X9XpXpXpXsXsXsXsXsXP.t.>X>X, tXtXdXb =.=.n                   ",
"                    ;.;.+XV >X>X2XfXfX3X2XgXgXA hXhXjXaXaXwXjXwXwXaXqXqXhX=X=Xl 0 T T w.D.D.2.                          ",
"                    q.q.kXi yXyXQ lXlXo.3X3X3XuXr r ;XsXsXzXxXaXaX=XcXcXO vXvX .bXi i j 9 9                             ",
"                          j.;.;.nXQ Q mXB  . .MXyXyX6 NXNXG.G.1X1X .tXtXBXw.w.VX> 1X1X1 R.R.                            ",
"                          j.;.;.nXQ Q mXB  . .MXyXyX6 NXNXG.G.1X1X .tXtXBXw.w.VX> 1X1X1 R.R.                            ",
"                                l.1 1 n.CX% % ZXfXfXbX$ $ NX6 } } NXo.o.5 & & +XnXe.e.                                  ",
"                                        u.T.T.v a a j X X t.o.* * t.p p K +.+.AX                                        ",
"                                        u.T.T.v a a j X X t.o.* * t.p p K +.+.AX                                        ",
"                                              T 4 4 SX~ ~ 1.2.H H DX                                                    ",
"                                                    7 c.c.|                                                             ",
"                                                    7 c.c.|                                                             ",
"                                                                                                                        ",
"                                                                                                                        ",
"                                                                                                                        ",
"                                                                                                                        ",
"                                                                                                                        ",
"                                                                                                                        ",
"                                                                                                                        ",
"                                                                                                                        ",
"                                                                                                                        ",
"                                                                                                                        ",
"                                                                                                                        ",
"                                                                                                                        "
};
