/* XPM */
static char *f4f02571d99e4a38d0bb284f68254487z9E3KR6eWuY1ONtN[] = {
/* columns rows colors chars-per-pixel */
"60 60 5 1 ",
"  c #55AAAA",
". c #005555",
"X c black",
"o c #55FFFF",
"O c white",
/* pixels */
"               ..XXoo                            ..XXo      ",
"               ..XXoo                            ..XXo      ",
"               ..XXoo                            ..XXo      ",
"               ..XXoo                            ..XXo      ",
"               ..XXoo                            ..XXo      ",
"               ..XXoo                            ..XXo      ",
"               ..XXoo                            ..XXo      ",
"               ..XXoo                            ..XXo      ",
"               ..XXoo                            ..XXo      ",
"             OO..XXoo                            ..XXo      ",
"             OO..XXoo                            ..XXo      ",
"        .........XXoo                            ..XXo      ",
"        .........XXoo                            ..XXo      ",
"        .XXXXXXXXXXoo                            ..XXo      ",
"        .XXXXXXXXXXoo                            ..XXo      ",
"        .XXoooooooooo                            ..XXo      ",
"        .XXoooooooooo                            ..XXo      ",
"        .XXooOO                                  ..XXo      ",
"        .XXooOO                                  ..XXo      ",
"        .XXoo                                    ..XXo      ",
"        .XXoo                                    ..XXo      ",
"      OO.XXoo                                  OO..XXoOO    ",
".........XXoo                     .................XX ......",
".........XXoo                     .................XX ......",
"XXXXXXXXXXXooOO                 OO..XXXXXXXXXXXXXXXXXXXXXXXX",
"XXXXXXXXXXXooOO                 OO..XXXXXXXXXXXXXXXXXXXXXXXX",
"oooooooooXX  .......................XXoooooooooooooooooooooo",
"oooooooooXX  .......................XXoooooooooooooooooooooo",
"      OOoXXXXXXXXXXXXXXXXXXXXXXXXXXXXXoOO                   ",
"      OOoXXXXXXXXXXXXXXXXXXXXXXXXXXXXXoOO                   ",
"        ooooooo  XXooooooooooooooo  XXo                     ",
"        ooooooo  XXooooooooooooooo  XXo                     ",
"             OO..XXooOO         OO..XXo                     ",
"             OO..XXooOO         OO..XXo                     ",
"               ..XXoo             ..XXo                     ",
"               ..XXoo             ..XXo                     ",
"               ..XXoo             ..XXo                     ",
"               ..XXoo             ..XXo                     ",
"               ..XXoo             ..XXo                     ",
"               ..XXoo             ..XXoOO                   ",
"               ..XXoo             ..XXoOO                   ",
"               ..XXoo             ..XX ...............      ",
"               ..XXoo             ..XX ...............      ",
"               ..XXoo             ..XXXXXXXXXXXXXXXXXo      ",
"               ..XXoo             ..XXXXXXXXXXXXXXXXXo      ",
"               ..XXoo             ooooooooooooooo  XXo      ",
"               ..XXoo             ooooooooooooooo  XXo      ",
"               ..XXoo                          OO..XXo      ",
"               ..XXoo                          OO..XXo      ",
"               ..XXoo                            ..XXo      ",
"               ..XXoo                            ..XXo      ",
"               ..XXoo                            ..XXo      ",
"               ..XXoo                            ..XXo      ",
"               ..XXoo                            ..XXo      ",
"               ..XXoo                            ..XXo      ",
"               ..XXoo                            ..XXo      ",
"               ..XXoo                            ..XXo      ",
"               ..XXoo                            ..XXo      ",
"               ..XXoo                            ..XXo      ",
"               ..XXoo                            ..XXo      "
};
