/* XPM */
static char *_e450b7ba0944b92929f9df38efc2137ojly44XsOLozu5y5[] = {
/* columns rows colors chars-per-pixel */
"64 64 235 2 ",
"   c #070709",
".  c #080709",
"X  c #07090A",
"o  c #0B0B0C",
"O  c #070707",
"+  c #120C0D",
"@  c #1B0D0D",
"#  c #13070A",
"$  c #0D110E",
"%  c #13120E",
"&  c #1D110E",
"*  c #0C0D12",
"=  c #0C0C1B",
"-  c #130D12",
";  c #190D11",
":  c #130D1C",
">  c #1A0E1A",
",  c #0E1214",
"<  c #0E131B",
"1  c #131314",
"2  c #1B1313",
"3  c #141A16",
"4  c #1D1A15",
"5  c #13141B",
"6  c #1B151B",
"7  c #151B1C",
"8  c #1B1B1C",
"9  c #220D0D",
"0  c #2A0E0C",
"q  c #350E0F",
"w  c #22100E",
"e  c #35100F",
"r  c #230E1D",
"t  c #270C12",
"y  c #390E11",
"u  c #231313",
"i  c #21141B",
"p  c #221B1A",
"a  c #281716",
"s  c #341313",
"d  c #381618",
"f  c #1D211E",
"g  c #17271A",
"h  c #27261B",
"j  c #322E18",
"k  c #0E0D22",
"l  c #130D23",
"z  c #1B0D25",
"x  c #160E29",
"c  c #0D1324",
"v  c #0E172A",
"b  c #131323",
"n  c #1B1323",
"m  c #151C23",
"M  c #1A1C23",
"N  c #13162C",
"B  c #1B152B",
"V  c #151B2B",
"C  c #1B1C2C",
"Z  c #0F1E33",
"A  c #151C33",
"S  c #191D33",
"D  c #171A38",
"F  c #231224",
"G  c #231C21",
"H  c #271929",
"J  c #331B22",
"K  c #231C34",
"L  c #162222",
"P  c #1C2324",
"I  c #16212D",
"U  c #1C252B",
"Y  c #1D2A2C",
"T  c #1C2A25",
"R  c #142333",
"E  c #1B2332",
"W  c #1D2B34",
"Q  c #1C2A39",
"!  c #19253B",
"~  c #1D302F",
"^  c #222425",
"/  c #2B2424",
"(  c #23252A",
")  c #2B242B",
"_  c #232B2D",
"`  c #2A2C2D",
"'  c #242B25",
"]  c #352426",
"[  c #342429",
"{  c #392A2C",
"}  c #382628",
"|  c #25342B",
" . c #2B322D",
".. c #2A362A",
"X. c #3B3A2D",
"o. c #242532",
"O. c #232C32",
"+. c #2B2D33",
"@. c #232C3B",
"#. c #292A3B",
"$. c #332E32",
"%. c #372C31",
"&. c #253234",
"*. c #2B3334",
"=. c #2D3835",
"-. c #26343A",
";. c #2B353B",
":. c #263A3B",
">. c #2D3A3D",
",. c #333334",
"<. c #333A37",
"1. c #33353B",
"2. c #333B3C",
"3. c #3A3C3D",
"4. c #3B3437",
"5. c #4B180F",
"6. c #481815",
"7. c #501A11",
"8. c #532217",
"9. c #421C21",
"0. c #452829",
"q. c #452D36",
"w. c #453738",
"e. c #52332C",
"r. c #2A413E",
"t. c #33423D",
"y. c #39433F",
"u. c #151E41",
"i. c #182847",
"p. c #192F4C",
"a. c #262E44",
"s. c #2B3543",
"d. c #2C3C43",
"f. c #2D3D4A",
"g. c #253647",
"h. c #323D42",
"j. c #3A3D43",
"k. c #363744",
"l. c #253853",
"z. c #313E52",
"x. c #423E41",
"c. c #2E4144",
"v. c #2D434A",
"b. c #344344",
"n. c #3A4345",
"m. c #3B4945",
"M. c #34454B",
"N. c #3B4549",
"B. c #354A4C",
"V. c #3B4B4C",
"C. c #354A45",
"Z. c #3C524C",
"A. c #2C4352",
"S. c #2E4956",
"D. c #344B53",
"F. c #3B4D52",
"G. c #384957",
"H. c #3C5254",
"J. c #3C545A",
"K. c #3D5A5C",
"L. c #375455",
"P. c #3D5C62",
"I. c #3B5566",
"U. c #3F6267",
"Y. c #424445",
"T. c #42464A",
"R. c #424C4D",
"E. c #48484A",
"W. c #43514E",
"Q. c #434D51",
"!. c #484C5B",
"~. c #435354",
"^. c #4B5455",
"/. c #43555A",
"(. c #4A565A",
"). c #445A5C",
"_. c #4B5B5C",
"`. c #4E5A57",
"'. c #545F5D",
"]. c #49615E",
"[. c #52625D",
"{. c #435C62",
"}. c #495E62",
"|. c #445C6C",
" X c #515E64",
".X c #446265",
"XX c #4B6264",
"oX c #45646B",
"OX c #4A666A",
"+X c #4C696C",
"@X c #486A68",
"#X c #526465",
"$X c #546B66",
"%X c #526B6E",
"&X c #5B6C6B",
"*X c #52676A",
"=X c #4C6C72",
"-X c #476771",
";X c #516D72",
":X c #4D7175",
">X c #4C747B",
",X c #48767A",
"<X c #547375",
"1X c #5C7375",
"2X c #547579",
"3X c #5B757A",
"4X c #5B7A7D",
"5X c #577A7B",
"6X c #51726F",
"7X c #65797C",
"8X c #606766",
"9X c #66847D",
"0X c #4B7782",
"qX c #547C81",
"wX c #5B7D82",
"eX c #597F8A",
"rX c #6A7F82",
"tX c #5A8185",
"yX c #5D848A",
"uX c #57848B",
"iX c #598A93",
"pX c #5C939A",
"aX c #4F8287",
"sX c #668285",
"dX c #67898A",
"fX c #648C92",
"gX c #628B94",
"hX c #639296",
"jX c #68969B",
"kX c #769795",
"lX c #6F8C88",
"zX c #699CA1",
"xX c #72A2A3",
"cX c #6FA4AA",
"vX c #8ABEBD",
/* pixels */
"9 0 Y.sXkXd.! R Z v c v v g.=XxXB.L 3 3 : - * o T ).kX3.p @ @ @ @ @ 9 u 1.wXF.8 O O . . . o % 7 H.h.7     . . . . o 1 b.h.) t r ",
"9 0 Y.sXkXf.! Z v c < c v -.+XxXB.L 3 3 - + o o T ~.kXn.p @ + @ @ 9 9 i >.5XF.P . . . o o o 1 8 K.b.8   O . . * * , 8 b.h.) r F ",
"u a T.sXkXM.@.Q E U I I I d.OXhXH.-._ _ _ ( P T ;.}.lX~.2.+.+.*.,.<.,.*.M.<XK.>.Y Y T _ _ | *.*./.b._ 8 P ^ P ( +.2.n.F.V.k.+.1.",
"` $.R.;X3XB.d.;.;.h.M.h.>.M.).%XH.N.M.N.~.V.h.b.F.XX1X#X(.~.(.#XXX(.F.V.H.XX/.M.>.h.B.M.>.2.b.=.b.;.*.&.>.n.j.n.T.R.^.R.T.j.3.x.",
"R.R.n.h.h.h.2.1.V.#X`.W.m.<.=.<.2.3.n.^.1X(.n.m.R.R.V.~.~./.%XlX$X^.n.2.h.2.2.*.` 1.XXM.Y P U 8 7 M _ ;.d./.~.N.2.<.[ [ { } ] ] ",
"T f 8 8 6 2 2 h V.OXf 1 $ o $ $ o * m D.4X` 7 1 1 , , o < I D.fXc.P 7 3 3 u u 9 9 / :XH.P , , . o . o - M %XV./ 2 u t s s q s d ",
"1 1 1 & & 9 @ p m.XX1 o o o o . o o 5 v.<XP , o o o o o , m v.dX*.8 1 1 2 w 9 9 u ` :XH.P o o . o . o + 8 3X~.` u w 0 s s s e d ",
"+ o + & & 9 @ p R.#X$ o o o o . o o 5 c.<XP * o o o * * * m D.fX>.6 2 2 2 @ 9 9 a ,.2X).P . . . o o + + P 4X~./ 9 9 0 s d s s d ",
"8 m M ^ / / h  .~.#X8 f 8 8 6 6 8 8 P M.<X2.^ ^ _ _ U U T &.J.wXM.1.,.,.,./ p a / 2.<X).*.M M 8 1 8 8 / 1.3X(.n.,.$.[ [ { } ] } ",
"d.d.h.n.m.y.2.N.).(.,.2.1.2.3.3.+.` ,.N.}.Q.n.Y.~./.F.N.h.n.Q.).F./._. XXXN.*._ _ 2.~.V.2.;.h.j.+.+.,.y.R.#X_._._./.F.N.N.N.j.j.",
"R.V.~.(.).2.n.R.R.n.;.j.Q.Q.(.*Xx.0.0.} } { } { 3.~.3XV.*._ _ *.1.1.2.N./.~.&.P 7 8 M P 7 6 / n.).j.[ [ %.4.4.,.%.1.J.}.Q.j.k.#.",
"6 p ` ).wXY m 7 5 5 b V S #.Q.dXq.9.d y d s s t H N.wXO.5 5 < 5 5 5 b #.H.}.O.5 o o , @.m + 6 n.).<.d d d / G p 2 6 :.(.n.) i n ",
"+ @ / ).tXU < * * = c c c U Q.lX0.6.6.y y q 0 t G n.4XU = = * * - : : o.J._.( * o o < g.m + p V.}.%.d d J H G G G ^ :.(.k.G ; > ",
"o @ / ).tXP < = = = c c k C Q.lX0.6.6.6.y q 0 t H Y.1XE k = = - - : : o.F.~.U 1 * * 5 A.Y 1 G V.XX1.[ [ ) ` _ o.+.-.c.(.n.^ i i ",
"8 p ,.}.tX_ I V m m V V m ( T.7Xe.0.9.9.] J J G $.R.#X@.E C M G G ^ U -.V.V.;.U m M Y I.-.P O.V.OXF.k.1.1.2.<.h.h.M.B.(.Q.1.+.+.",
"R.T.Q.#X<XV.N.h.h.h.2.d.b.b.N.Q.Y.4.1.j.T.Y.n.m.R.~.(.F.N.N.N.R.Q.Q.~.~.F.V.~.b.>.2.N.^.b.>.b.B.H.F.V.b.j.V.~.~.F.V.~.W./.J.M.F.",
"].#X#X&X&X[.`./.).~.b.b.b.b.2.<.2.>.n.~.#X^.Y.n.b.b.>.M.M.F.).XX~.2.>.2.b.2.>.;.;.h.~.V._ 1 7 L U M P Y ;..X.XD.c.c.b.2.>.&.O.>.",
"y.X.X.....| | C..X.X' P P L 7 7 M 7 O./.1X<.( M 7 8 6 7 8 ` M.).;.U M M 7 M 6 7 M +.H.B.L * , , , * , , P P.P.-.m m 5 1 1 , , 7 ",
"j j h g g 3 g r..X@Xf 3 1 , , 5 5 < E J.<X_ 5 * o o + + @ ^ b.K.&.7 5 5 = - > > 6 +.R.M.m o o o o o * * 5 {.J.Y o o O O       1 ",
"h h h T g 3 3 r..X.Xf 3 3 1 5 m m c O.J.%X_ 1 = * - ; u u ` F.K.>.P m N m M M n H ,.~.B.U , , , , , , , M +XK.&.7 7 3 3 7 7 7 M ",
"' | | ~ Y L L c.).).' P P P P W U m -.).OX*.U P P ^ / / [ 3.)..XJ.>.&.-.&.>.;.-.1.n.~.H.;.U P L U U P L O.2X.XB.b.M.c.c.c.c.>.>.",
".X.XK.H.F.J.D.~.).).~.W.W._.#XXXY.m.V.~._.XXXX#XXXXX.XV.H.)._.].XX~.H.).(.J.H.V.M.b.b.M.*.*.=.O.B.n.N.N.N.;XN.b.V.~.V.V.W.W.m.,.",
"N.V.F.}.%XF.>.*.;.*.,.,.2.~.2XtX>._ *.h.n.b.V.b.B.}.OX>._ O.>.2.b.<. .2.XX=XM.*.` _ O._ T T &.B.+Xc.( P ^ O.8 7 8 _ V..XJ.b.*.P ",
"U ( 1.#XlX;.C B B B H n ( d.oXhXd.W W O.O.O.-.W :.H.XXU 5 7 8 p f 6 2 _ ).=X=.f 8 8 7 3 3 5 W J.=X-.1 - - , o o o 7 B.+XH.O.6 - ",
"< 5 +.$XkX( l l x z z : n o.K.jXA.g.Q I U U R I Q F.OX7 o o + + + + o T ).+X&.3 1 1 , , , , Y {.OXO.> - o .   . . 5 B.=XH.( # # ",
"5 6 $.&XkXP b l z z z l l o.).hXA.p.Q E U U R I -.J.=XP 1 1 1 1 1 6 6 O.}.+X*.8 3 3 5 < < < Y {..X+.6 > - o o o o 7 H.:XK._ + + ",
"b M 1.1XkXY 5 n F H z b n #.XXdXv.g.a.-.-.O.O.O.d.J.+Xd.;.-.-.-.>.d.>.M.XX<XV.;.&.&.Y Y Y U &.OXXX>.C B b 5 7 7 7 T {.:X@X>.6 3 ",
"n.N.H.XX$XB.B.M.F./.+.,.<.n.)._.>.&.&.M.).-.2.<.b.B.H.v.d.c.H.3X~.M.c.B._./.H.V.M.B.H.V.N.n.n.V.=.O._ O.>.b.M.h.>.h.).H.N.h.;.b.",
"_ _ &.2.b._ &.M.).).=.=.=.>.b.b.&.^ *.H.+XF.b.=.*.;.;.*.&.>.H.%XK.b.=.;.>.&.&.&.&.b.OX.X2._ _ ^ 8 8 M P *.J.OXm.` _ +.( P M M _ ",
"6 1 1 7 L , 5 d./.V.T P M M P ^ M 6 *.~.+XH.&.P L L 8 P L &.B.).D.| P 8 8 6 8 6 M d.=X+X&.1 1 + o * - 1 ^ ).4XY.a 2 6 5 = * = 5 ",
"+ o .   . . . >./.b.= * * * - - - ; *.).OXM.7 $ $ 1 1 1 1 T M.H.c.8 + # # @ + - 5 -.+X+X_ o o . o o . o P _.dXY.u @ 1 6 = o o - ",
"1 - o o o o o h.}.F.5 : : 5 : > > r k.OX+XM.8 1 1 1 3 7 1 Y B.{.c.8 @ - - @ ; 2 7 -.XXoX_ o o , 1 , * 1 _ +XdXT.u 2 - 1 1 + o 1 ",
"n.n.b.b.M.b.n.).+X{.` +.+.+.+.+.1.j.).=X2XXX>.>.h.V.F.F.~.).}.XX/.2.*.=.h.>.b.n.M.H.OXOXM.O.&.-.d.F.D.v.M.<X5XR.` ` <._ ^ 8 7 _ ",
"R.F./.OX=XB.b.M.V.F.4.Y.R.Q.~._.Q./.).}.).~.>.;.N.OX<X+X;X;X=XoX).~.R.~.+X.X)./.V.B.XX;XoX).{.OX0XJ.d.&.&.b.n.1.` _ b.+XF.O.U >.",
"b.b.F.=XyXY.w.w.4.{ } 0.4.Y.&XjXh.;.;.;.>.>.O.U d.;XfXF.M.M.d.>.>.*.,.V.2X-XF.k.+.o.h.G.M.f.G.tXuXD.E V S C C M G ) ~.yX{.@.M ) ",
"_ U >.+XjXe.e.8.6.6.d d s { &XvXO.b b b m N V < -.<XzXY 5 1 1 , 1 & u <.:XU.s.C n n n S N N g.gXeXA.S N A A x z r } &XgX|.#.F r ",
". o _ oXjXe.8.7.5.5.5.5.s } &XvXY c k k k k = = @.<XzXU o . . o + @ u 2.>XP.@.S B B l b b N g.yXuXS.i.D D D B H H q.rXhX|.a.F r ",
"o * &.+XjXe.8.7.5.5.5.5.y 0.8XvXO.c k l l k k = -.3XcX( + o . o + @ u <.:X.X#.C C B n M N b -.wXyXI.g.! Q D K H H q.sXfX|.k.K H ",
"O.&.M..X0X}./.^.Q.T.Q.T.N.T.'.4XF.B.c.>.;.c.B.D.{.2XyXP.L.L.M.` ,.=.>.F.qXqX-XoX=X=X/.F.B.c.F.2X=XJ.d.-.d.s.h.b.h.V.7X%XXXN.( ` ",
"b.d.h.M.F.c.d.D.oX-Xv.M.c.2.n.N.c.>.:.t.N.N.N.F./.}./.H.D.B.M.N.~.).U.oX:X}.oXOXOXXX~.N.n.h.h.~.N.*._ ` 2.b.V.~.(.#XrX#XF.>.O.O.",
";.;.&.&.*.^ P -.{.oX_ _ T ^ _ ^ T L Y B.}.M.1.1.2.2.+.+.O.*.M.).H.~.Q.F.N.%.4.3.x.T.}.G.s.#.#.#.^ M M ( d.XX~.N.n.R.`.m.+.P M V ",
"m M T U T 8 6 _ B.F.4 2 1 1 1 - * , _ ).2Xz.#.) H M 6 > 5 -.~.XX2./ d s s s q q d Y.dXI.l.u.D S b N A R v.lXXX_ - - 1 2 2 + + b ",
"* X . o .   . 7 >.b.% o . .       o _ ).=Xa.K B B n z > 5 ;.).].,.d q y q q q y 9.Y.tXI.p.D D D N N V R g.dX=X-.= * o + + + * b ",
"= * * , , , 1 P d.B.L L M M m m m L *.).=XD.s.s.s.d.;.;.;.V.XX].n.%.{ q.q.w.w.w.E.(.5XP.f.a.a.@.@.Q Q Q c.sX:Xv.U m 5 P 7 6 5 m ",
"OX+XXXXX<X+X=X+XOX+X<X+XOX.X.X+XoXoX+X+X=XoXP.K.K.).$XZ.C.~.XXXXOX).R.Q.(.*XR.m.N.~.4X}.h.;.2.D.{.N.2.1.m.<X:XJ.>.&.` ).M._ M ^ ",
"OX%X2XdXjX<X;XOXOX+XOX}.XX<XyXfX=X.X{.{.).).H.L.K.6X3Xm.2.n.H.)..XH.V.).2X:XZ.b.b.H.<XOX/.R.~.=XuX~.<.2.C.).@XK.N.M.m.wX.Xd._ *.",
"O.-.P.uXyX2.=.&.b.V.^ ^ *.J.tXdXB.:.-.>.c.2.&.O.B.2X%X*.^ _ *.>.&._ _ H.iXK.>.*.=.t.~.~.(.~.(.gXiXN. . .*.*.t.t.>.M.@XiX{.d.&.*.",
"! S S.>X2X7 7 m m P 5 5 m d.=XyXg.i.W I W W V V A.:X}.Y m 5 < = o o 1 F.pX:.7 1 , 1 7 7 7 1 :.zX>X1.a 9 @ @ + + o _ pXiXS.V b n ",
"! Z f.-X:X, * * , < , , * O..XwXi.A v v R ! Z Z S.qX}.m < = * * o + 2 F.zXd.6 o .   . . . . -.cX,X$.t 9 9 t @ + + O.hXpXD.V b b ",
"z.A.D..X2XN.M.b.d.>.>.-.&.d.}.5XM.f.d.d.f.v.v.f.I.qX<XD.D.B.d.f.v.v.B.OXhXoXB.c.>.-.-.&.&.O.B.hXqXn.^ 6 2 - + 1 1 -.cXtXH.O.b z ",
"M.F.{.+XOX~./.~.~.V.V.b.b.H.+XOXF.M.B.B.B.F.N.M.J.2X5XB.b.b.M.D.P.P.{.=XqX=XF.b.>.>.h.N.N.h.F.uX>XV.=._ ^ U T T T >.jX:XH.>._ ( ",
"h.h./.XXH.d.M.V.~.~.n.2.<.H.OXF.b.>.>.M.~.~.~.V.~.+X.X>.` *.2.V.L.H.H.K.).H.>.*.` *.2.V.Q.Q.).,X.XV.t.<.>.b.2.<.=.t.,XL.b.=. . .",
"d.O.-.h.;.M P &.V.~.`  .` =.n.;.O.L T b.%X).XX_.(.R.` ` ,.3.Y.V.=.*. . .*.P ' ` *.2.H.D.H.{.oX@XC.y.t.t.C.).Z.C.t.=.y.| ' h p h ",
"N : 5 b 5 + - ( b.b.7 1 o , 1 * * o 7 b.XX&.L L ^ p p p p ,.`.$X*.6 1 1 - o o o 7 d.uX{.4.] ] p 6 6 8 8 *.lX@X| 1 % 4 4 u & & a ",
"b b l : : * * Y h.>.o o . . . . . . 7 h.H.7 , 1 1 @ & ; @ } `.+X*.2 - 1 1 1 1 , 7 d.qX/.[ s a u 1 1 1 7 *.9X]._ % % 1 8 p p u h ",
"o.o.o.o.+.^ ( d.F.V.Y U U U T P L L &.V.XX>.O.O._ / ) _ ( 3.'.<Xn.*.+.*.&._ _ T _ F.yX}.2./ ^ ^ P 8 7 P >.9X@X>.P 8 8 &.*._ ^ _ ",
"j.j.n.~._.*.>.F.+X+X;.&.&.2.H.{.-.&.c.).%XB.d.>.d.M.N.;.&.M.OX2XV.1.=.>.b.H.2._ *.J.hX.Xh.o._ O.M.O.U _ M.lX<XM._ U W {.F.:.Y O.",
"F.j./.5XdX-.d.J.2X2X-.O._ M.2XjX>.W d.J.oXd.&.&.b..XOXO.T >.{.=X2._ ^ _ N.<Xb._ +.H.uXP.:.E O.d.=Xd.U U h.sX%Xb.( _ c.gX=Xf.U Y ",
"N.h.F.,XuXc.c.B.K..XH.B.M.K.qXhXd.Q Q @.d.M.F.B.).2X3X&.^ ( O.&.>.-.-.B.oX=XL.B.D.D.d.M.d.:.d.K.4Xb.U M 7 ^ ` ,.,.1.).gX;XB.O.M ",
"K H s.oXaXT L T Y Y T L P >.+XyXl.i.i.i.i.a.a.#.!.4XR.P 3 7 L m m m P B.iX+X-.V V V V Q m 5 -.uXwXh.7 - - ; ; u u ` sXjXK.U o o ",
"B F 1.OXaX1 , , , 1 , % % *.+XeXl.p.p.i.i.D D K G.2Xh.Y L T T m 5 m U H.hX<X;.E S C E E N N f.pXtXN.^ 6 6 8 2 i p $.dXjX{._ 1 o ",
"k.k.Q.OX>Xb.&.O.&.;.2.<.` N.+X%XA.g.l.l.a.a.a.s.J.:XJ.v.:.-.&.:.d.d.c.{.yX4XF.h.d.s.-.d.s.s.J.uX2X}.M.*.( / ^ ) ` 2.sXtXoXd.T L ",
"^.^.XXOX{.OXJ.H.XX2XXX(.V.XX3X/.V.M.D.F.f.d.B.M.J.,X,XJ.M.>.h.{.J.J.J.{.2XdX}.F.V.M.h.F.F.G./.qXOXoXH.2.O.` *.*.O.2.7X+XXXB.&.*.",
"*.>._.<XV._ _ n.4XfXY ^ _ ).yX}.M.f.S.D.f.D E S z.0X0X*._ Y f.2X&.b.M.J.4XjXJ.s.;.>.M.#.O.E g.0X|.f.( M ^ N.;.P 7 _ 3X}.).b.` 1."
};
